<svg width="20" height="21" viewBox="0 0 20 21" fill="none" xmlns="http://www.w3.org/2000/svg">
<path d="M10 3.78613C13.866 3.78613 17 6.92014 17 10.7861C17 14.6521 13.866 17.7861 10 17.7861C6.13401 17.7861 3 14.6521 3 10.7861C3 6.92014 6.13401 3.78613 10 3.78613ZM10 6.28613C9.44772 6.28613 9 6.73385 9 7.28613V10.7861C9 11.0513 9.10543 11.3056 9.29297 11.4932L11.7676 13.9678C12.1581 14.3583 12.7911 14.3583 13.1816 13.9678C13.5722 13.5772 13.5722 12.9442 13.1816 12.5537L11 10.3721V7.28613C11 6.73385 10.5523 6.28613 10 6.28613Z" fill="white"/>
</svg>
