<svg width="20" height="21" viewBox="0 0 20 21" fill="none" xmlns="http://www.w3.org/2000/svg">
<path d="M5.47099 5.14706C5.47099 4.23741 6.2084 3.5 7.11805 3.5H10.8946C11.3314 3.5 11.7503 3.67353 12.0592 3.98241L14.8709 6.79412C15.1798 7.103 15.3533 7.52194 15.3533 7.95876V15.0294C15.3533 15.9391 14.6159 16.6765 13.7063 16.6765H12.4481C13.2305 15.8023 13.7063 14.6479 13.7063 13.3824C13.7063 10.6534 11.494 8.44118 8.76511 8.44118C7.49958 8.44118 6.34518 8.91694 5.47099 9.69935V5.14706Z" fill="white"/>
<path fill-rule="evenodd" clip-rule="evenodd" d="M8.76511 10.0882C6.94582 10.0882 5.47099 11.5631 5.47099 13.3824C5.47099 13.9929 5.63758 14.5653 5.9272 15.0556L4.88867 16.0941C4.56706 16.4158 4.56706 16.9372 4.88867 17.2588C5.21028 17.5804 5.73171 17.5804 6.05331 17.2588L7.09184 16.2203C7.58221 16.5099 8.15456 16.6765 8.76511 16.6765C10.5844 16.6765 12.0592 15.2016 12.0592 13.3824C12.0592 11.5631 10.5844 10.0882 8.76511 10.0882ZM7.11805 13.3824C7.11805 12.4727 7.85546 11.7353 8.76511 11.7353C9.67475 11.7353 10.4122 12.4727 10.4122 13.3824C10.4122 14.292 9.67475 15.0294 8.76511 15.0294C8.31006 15.0294 7.89942 14.846 7.60046 14.547C7.3015 14.248 7.11805 13.8374 7.11805 13.3824Z" fill="white"/>
</svg>
