<svg width="20" height="21" viewBox="0 0 20 21" fill="none" xmlns="http://www.w3.org/2000/svg">
<path fill-rule="evenodd" clip-rule="evenodd" d="M6.73364 5.05922C7.29632 5.01432 7.8305 4.79305 8.26013 4.42693C9.26271 3.57253 10.7373 3.57253 11.7399 4.42693C12.1695 4.79305 12.7037 5.01432 13.2664 5.05922C14.5794 5.164 15.6221 6.20669 15.7269 7.51977C15.7718 8.08245 15.9931 8.61663 16.3592 9.04626C17.2136 10.0488 17.2136 11.5234 16.3592 12.526C15.9931 12.9556 15.7718 13.4898 15.7269 14.0525C15.6221 15.3656 14.5794 16.4083 13.2664 16.513C12.7037 16.5579 12.1695 16.7792 11.7399 17.1453C10.7373 17.9997 9.26271 17.9997 8.26013 17.1453C7.8305 16.7792 7.29632 16.5579 6.73364 16.513C5.42056 16.4083 4.37787 15.3656 4.27309 14.0525C4.22818 13.4898 4.00692 12.9556 3.64079 12.526C2.7864 11.5234 2.7864 10.0488 3.64079 9.04626C4.00692 8.61663 4.22818 8.08245 4.27309 7.51977C4.37787 6.20669 5.42056 5.164 6.73364 5.05922ZM13.2437 9.65485C13.5854 9.31314 13.5854 8.75912 13.2437 8.41741C12.902 8.07571 12.348 8.07571 12.0063 8.41741L9.125 11.2987L7.99372 10.1674C7.65201 9.82571 7.09799 9.82571 6.75628 10.1674C6.41457 10.5091 6.41457 11.0631 6.75628 11.4049L8.50628 13.1549C8.84799 13.4966 9.40201 13.4966 9.74372 13.1549L13.2437 9.65485Z" fill="white"/>
</svg>
