<svg width="20" height="21" viewBox="0 0 20 21" fill="none" xmlns="http://www.w3.org/2000/svg">
<path d="M9.125 3.78613C8.64175 3.78613 8.25 4.17788 8.25 4.66113C8.25 5.14438 8.64175 5.53613 9.125 5.53613H10.875C11.3582 5.53613 11.75 5.14438 11.75 4.66113C11.75 4.17788 11.3582 3.78613 10.875 3.78613H9.125Z" fill="white"/>
<path fill-rule="evenodd" clip-rule="evenodd" d="M4.75 6.41113C4.75 5.44463 5.5335 4.66113 6.5 4.66113C6.5 6.11088 7.67525 7.28613 9.125 7.28613H10.875C12.3247 7.28613 13.5 6.11088 13.5 4.66113C14.4665 4.66113 15.25 5.44463 15.25 6.41113V16.0361C15.25 17.0026 14.4665 17.7861 13.5 17.7861H6.5C5.5335 17.7861 4.75 17.0026 4.75 16.0361V6.41113ZM13.2437 11.4049C13.5854 11.0631 13.5854 10.5091 13.2437 10.1674C12.902 9.82571 12.348 9.82571 12.0063 10.1674L9.125 13.0487L7.99372 11.9174C7.65201 11.5757 7.09799 11.5757 6.75628 11.9174C6.41457 12.2591 6.41457 12.8131 6.75628 13.1549L8.50628 14.9049C8.84799 15.2466 9.40201 15.2466 9.74372 14.9049L13.2437 11.4049Z" fill="white"/>
</svg>
