<svg width="20" height="20" viewBox="0 0 20 20" fill="none" xmlns="http://www.w3.org/2000/svg">
<path d="M3.39742 3.39795L6.03037 6.0309M16.6019 16.6025L13.9692 13.9698M11.375 15.0066C10.9296 15.0911 10.47 15.1353 10 15.1353C6.71527 15.1353 3.93477 12.9764 3 10.0002C3.25448 9.18996 3.64574 8.44032 4.14672 7.77831M8.4435 8.44404C8.84176 8.04578 9.39195 7.79945 9.99967 7.79945C11.2151 7.79945 12.2004 8.78476 12.2004 10.0002C12.2004 10.6079 11.9541 11.1581 11.5558 11.5564M8.4435 8.44404L11.5558 11.5564M8.4435 8.44404L6.03037 6.0309M11.5558 11.5564L6.03037 6.0309M11.5558 11.5564L13.9692 13.9698M6.03037 6.0309C7.17463 5.29319 8.53732 4.86512 9.99999 4.86512C13.2847 4.86512 16.0652 7.02399 17 10.0002C16.4814 11.6513 15.3948 13.0508 13.9692 13.9698" stroke="#333333" stroke-width="2" stroke-linecap="round" stroke-linejoin="round"/>
</svg>
