<svg width="188" height="239" viewBox="0 0 188 239" fill="none" xmlns="http://www.w3.org/2000/svg">
<g id="Android" filter="url(#filter0_d_1027_10087)">
<g id="Rectangle 288">
<path id="Vector" d="M179 0.0449219H9C6.23858 0.0449219 4 2.2835 4 5.04492V225.045C4 227.806 6.23858 230.045 9 230.045H179C181.761 230.045 184 227.806 184 225.045V5.04492C184 2.2835 181.761 0.0449219 179 0.0449219Z" fill="white"/>
<path id="Vector_2" d="M179 0.544922H9C6.51472 0.544922 4.5 2.55964 4.5 5.04492V225.045C4.5 227.53 6.51472 229.545 9 229.545H179C181.485 229.545 183.5 227.53 183.5 225.045V5.04492C183.5 2.55964 181.485 0.544922 179 0.544922Z" stroke="white"/>
</g>
<g id="IDP_google_play">
<path id="Rectangle 844" d="M174 10.0449H14V170.045H174V10.0449Z" fill="white"/>
<path id="Rectangle 845" d="M29 21.0449H25V25.0449H29V21.0449Z" fill="black"/>
<path id="Rectangle 846" d="M33 21.0449H29V25.0449H33V21.0449Z" fill="black"/>
<path id="Rectangle 847" d="M35 21.0449H33V25.0449H35V21.0449Z" fill="black"/>
<path id="Rectangle 848" d="M39 21.0449H35V25.0449H39V21.0449Z" fill="black"/>
<path id="Rectangle 849" d="M43 21.0449H39V25.0449H43V21.0449Z" fill="black"/>
<path id="Rectangle 850" d="M47 21.0449H43V25.0449H47V21.0449Z" fill="black"/>
<path id="Rectangle 851" d="M51 21.0449H47V25.0449H51V21.0449Z" fill="black"/>
<path id="Rectangle 852" d="M62 21.0449H58V25.0449H62V21.0449Z" fill="black"/>
<path id="Rectangle 853" d="M84 21.0449H80V25.0449H84V21.0449Z" fill="black"/>
<path id="Rectangle 854" d="M88 21.0449H84V25.0449H88V21.0449Z" fill="black"/>
<path id="Rectangle 855" d="M92 21.0449H88V25.0449H92V21.0449Z" fill="black"/>
<path id="Rectangle 856" d="M96 21.0449H92V25.0449H96V21.0449Z" fill="black"/>
<path id="Rectangle 857" d="M99 21.0449H96V25.0449H99V21.0449Z" fill="black"/>
<path id="Rectangle 858" d="M103 21.0449H99V25.0449H103V21.0449Z" fill="black"/>
<path id="Rectangle 859" d="M114 21.0449H111V25.0449H114V21.0449Z" fill="black"/>
<path id="Rectangle 860" d="M125 21.0449H121V25.0449H125V21.0449Z" fill="black"/>
<path id="Rectangle 861" d="M133 21.0449H129V25.0449H133V21.0449Z" fill="black"/>
<path id="Rectangle 862" d="M141 21.0449H137V25.0449H141V21.0449Z" fill="black"/>
<path id="Rectangle 863" d="M144 21.0449H141V25.0449H144V21.0449Z" fill="black"/>
<path id="Rectangle 864" d="M148 21.0449H144V25.0449H148V21.0449Z" fill="black"/>
<path id="Rectangle 865" d="M152 21.0449H148V25.0449H152V21.0449Z" fill="black"/>
<path id="Rectangle 866" d="M155 21.0449H152V25.0449H155V21.0449Z" fill="black"/>
<path id="Rectangle 867" d="M159 21.0449H155V25.0449H159V21.0449Z" fill="black"/>
<path id="Rectangle 868" d="M163 21.0449H159V25.0449H163V21.0449Z" fill="black"/>
<path id="Rectangle 869" d="M29 25.0449H25V29.0449H29V25.0449Z" fill="black"/>
<path id="Rectangle 870" d="M51 25.0449H47V29.0449H51V25.0449Z" fill="black"/>
<path id="Rectangle 871" d="M58 25.0449H55V29.0449H58V25.0449Z" fill="black"/>
<path id="Rectangle 872" d="M62 25.0449H58V29.0449H62V25.0449Z" fill="black"/>
<path id="Rectangle 873" d="M70 25.0449H66V29.0449H70V25.0449Z" fill="black"/>
<path id="Rectangle 874" d="M74 25.0449H70V29.0449H74V25.0449Z" fill="black"/>
<path id="Rectangle 875" d="M107 25.0449H103V29.0449H107V25.0449Z" fill="black"/>
<path id="Rectangle 876" d="M118 25.0449H114V29.0449H118V25.0449Z" fill="black"/>
<path id="Rectangle 877" d="M129 25.0449H125V29.0449H129V25.0449Z" fill="black"/>
<path id="Rectangle 878" d="M141 25.0449H137V29.0449H141V25.0449Z" fill="black"/>
<path id="Rectangle 879" d="M163 25.0449H159V29.0449H163V25.0449Z" fill="black"/>
<path id="Rectangle 880" d="M29 29.0449H25V31.0449H29V29.0449Z" fill="black"/>
<path id="Rectangle 881" d="M35 29.0449H33V31.0449H35V29.0449Z" fill="black"/>
<path id="Rectangle 882" d="M39 29.0449H35V31.0449H39V29.0449Z" fill="black"/>
<path id="Rectangle 883" d="M43 29.0449H39V31.0449H43V29.0449Z" fill="black"/>
<path id="Rectangle 884" d="M51 29.0449H47V31.0449H51V29.0449Z" fill="black"/>
<path id="Rectangle 885" d="M62 29.0449H58V31.0449H62V29.0449Z" fill="black"/>
<path id="Rectangle 886" d="M66 29.0449H62V31.0449H66V29.0449Z" fill="black"/>
<path id="Rectangle 887" d="M70 29.0449H66V31.0449H70V29.0449Z" fill="black"/>
<path id="Rectangle 888" d="M80 29.0449H77V31.0449H80V29.0449Z" fill="black"/>
<path id="Rectangle 889" d="M88 29.0449H84V31.0449H88V29.0449Z" fill="black"/>
<path id="Rectangle 890" d="M96 29.0449H92V31.0449H96V29.0449Z" fill="black"/>
<path id="Rectangle 891" d="M107 29.0449H103V31.0449H107V29.0449Z" fill="black"/>
<path id="Rectangle 892" d="M111 29.0449H107V31.0449H111V29.0449Z" fill="black"/>
<path id="Rectangle 893" d="M114 29.0449H111V31.0449H114V29.0449Z" fill="black"/>
<path id="Rectangle 894" d="M129 29.0449H125V31.0449H129V29.0449Z" fill="black"/>
<path id="Rectangle 895" d="M141 29.0449H137V31.0449H141V29.0449Z" fill="black"/>
<path id="Rectangle 896" d="M148 29.0449H144V31.0449H148V29.0449Z" fill="black"/>
<path id="Rectangle 897" d="M152 29.0449H148V31.0449H152V29.0449Z" fill="black"/>
<path id="Rectangle 898" d="M155 29.0449H152V31.0449H155V29.0449Z" fill="black"/>
<path id="Rectangle 899" d="M163 29.0449H159V31.0449H163V29.0449Z" fill="black"/>
<path id="Rectangle 900" d="M29 31.0449H25V35.0449H29V31.0449Z" fill="black"/>
<path id="Rectangle 901" d="M35 31.0449H33V35.0449H35V31.0449Z" fill="black"/>
<path id="Rectangle 902" d="M39 31.0449H35V35.0449H39V31.0449Z" fill="black"/>
<path id="Rectangle 903" d="M43 31.0449H39V35.0449H43V31.0449Z" fill="black"/>
<path id="Rectangle 904" d="M51 31.0449H47V35.0449H51V31.0449Z" fill="black"/>
<path id="Rectangle 905" d="M58 31.0449H55V35.0449H58V31.0449Z" fill="black"/>
<path id="Rectangle 906" d="M62 31.0449H58V35.0449H62V31.0449Z" fill="black"/>
<path id="Rectangle 907" d="M70 31.0449H66V35.0449H70V31.0449Z" fill="black"/>
<path id="Rectangle 908" d="M88 31.0449H84V35.0449H88V31.0449Z" fill="black"/>
<path id="Rectangle 909" d="M92 31.0449H88V35.0449H92V31.0449Z" fill="black"/>
<path id="Rectangle 910" d="M96 31.0449H92V35.0449H96V31.0449Z" fill="black"/>
<path id="Rectangle 911" d="M99 31.0449H96V35.0449H99V31.0449Z" fill="black"/>
<path id="Rectangle 912" d="M111 31.0449H107V35.0449H111V31.0449Z" fill="black"/>
<path id="Rectangle 913" d="M114 31.0449H111V35.0449H114V31.0449Z" fill="black"/>
<path id="Rectangle 914" d="M118 31.0449H114V35.0449H118V31.0449Z" fill="black"/>
<path id="Rectangle 915" d="M121 31.0449H118V35.0449H121V31.0449Z" fill="black"/>
<path id="Rectangle 916" d="M125 31.0449H121V35.0449H125V31.0449Z" fill="black"/>
<path id="Rectangle 917" d="M129 31.0449H125V35.0449H129V31.0449Z" fill="black"/>
<path id="Rectangle 918" d="M133 31.0449H129V35.0449H133V31.0449Z" fill="black"/>
<path id="Rectangle 919" d="M141 31.0449H137V35.0449H141V31.0449Z" fill="black"/>
<path id="Rectangle 920" d="M148 31.0449H144V35.0449H148V31.0449Z" fill="black"/>
<path id="Rectangle 921" d="M152 31.0449H148V35.0449H152V31.0449Z" fill="black"/>
<path id="Rectangle 922" d="M155 31.0449H152V35.0449H155V31.0449Z" fill="black"/>
<path id="Rectangle 923" d="M163 31.0449H159V35.0449H163V31.0449Z" fill="black"/>
<path id="Rectangle 924" d="M29 35.0449H25V39.0449H29V35.0449Z" fill="black"/>
<path id="Rectangle 925" d="M35 35.0449H33V39.0449H35V35.0449Z" fill="black"/>
<path id="Rectangle 926" d="M39 35.0449H35V39.0449H39V35.0449Z" fill="black"/>
<path id="Rectangle 927" d="M43 35.0449H39V39.0449H43V35.0449Z" fill="black"/>
<path id="Rectangle 928" d="M51 35.0449H47V39.0449H51V35.0449Z" fill="black"/>
<path id="Rectangle 929" d="M66 35.0449H62V39.0449H66V35.0449Z" fill="black"/>
<path id="Rectangle 930" d="M74 35.0449H70V39.0449H74V35.0449Z" fill="black"/>
<path id="Rectangle 931" d="M77 35.0449H74V39.0449H77V35.0449Z" fill="black"/>
<path id="Rectangle 932" d="M80 35.0449H77V39.0449H80V35.0449Z" fill="black"/>
<path id="Rectangle 933" d="M84 35.0449H80V39.0449H84V35.0449Z" fill="black"/>
<path id="Rectangle 934" d="M92 35.0449H88V39.0449H92V35.0449Z" fill="black"/>
<path id="Rectangle 935" d="M99 35.0449H96V39.0449H99V35.0449Z" fill="black"/>
<path id="Rectangle 936" d="M103 35.0449H99V39.0449H103V35.0449Z" fill="black"/>
<path id="Rectangle 937" d="M107 35.0449H103V39.0449H107V35.0449Z" fill="black"/>
<path id="Rectangle 938" d="M114 35.0449H111V39.0449H114V35.0449Z" fill="black"/>
<path id="Rectangle 939" d="M118 35.0449H114V39.0449H118V35.0449Z" fill="black"/>
<path id="Rectangle 940" d="M125 35.0449H121V39.0449H125V35.0449Z" fill="black"/>
<path id="Rectangle 941" d="M133 35.0449H129V39.0449H133V35.0449Z" fill="black"/>
<path id="Rectangle 942" d="M141 35.0449H137V39.0449H141V35.0449Z" fill="black"/>
<path id="Rectangle 943" d="M148 35.0449H144V39.0449H148V35.0449Z" fill="black"/>
<path id="Rectangle 944" d="M152 35.0449H148V39.0449H152V35.0449Z" fill="black"/>
<path id="Rectangle 945" d="M155 35.0449H152V39.0449H155V35.0449Z" fill="black"/>
<path id="Rectangle 946" d="M163 35.0449H159V39.0449H163V35.0449Z" fill="black"/>
<path id="Rectangle 947" d="M29 39.0449H25V43.0449H29V39.0449Z" fill="black"/>
<path id="Rectangle 948" d="M51 39.0449H47V43.0449H51V39.0449Z" fill="black"/>
<path id="Rectangle 949" d="M58 39.0449H55V43.0449H58V39.0449Z" fill="black"/>
<path id="Rectangle 950" d="M66 39.0449H62V43.0449H66V39.0449Z" fill="black"/>
<path id="Rectangle 951" d="M77 39.0449H74V43.0449H77V39.0449Z" fill="black"/>
<path id="Rectangle 952" d="M80 39.0449H77V43.0449H80V39.0449Z" fill="black"/>
<path id="Rectangle 953" d="M84 39.0449H80V43.0449H84V39.0449Z" fill="black"/>
<path id="Rectangle 954" d="M88 39.0449H84V43.0449H88V39.0449Z" fill="black"/>
<path id="Rectangle 955" d="M107 39.0449H103V43.0449H107V39.0449Z" fill="black"/>
<path id="Rectangle 956" d="M111 39.0449H107V43.0449H111V39.0449Z" fill="black"/>
<path id="Rectangle 957" d="M121 39.0449H118V43.0449H121V39.0449Z" fill="black"/>
<path id="Rectangle 958" d="M129 39.0449H125V43.0449H129V39.0449Z" fill="black"/>
<path id="Rectangle 959" d="M133 39.0449H129V43.0449H133V39.0449Z" fill="black"/>
<path id="Rectangle 960" d="M141 39.0449H137V43.0449H141V39.0449Z" fill="black"/>
<path id="Rectangle 961" d="M163 39.0449H159V43.0449H163V39.0449Z" fill="black"/>
<path id="Rectangle 962" d="M29 43.0449H25V47.0449H29V43.0449Z" fill="black"/>
<path id="Rectangle 963" d="M33 43.0449H29V47.0449H33V43.0449Z" fill="black"/>
<path id="Rectangle 964" d="M35 43.0449H33V47.0449H35V43.0449Z" fill="black"/>
<path id="Rectangle 965" d="M39 43.0449H35V47.0449H39V43.0449Z" fill="black"/>
<path id="Rectangle 966" d="M43 43.0449H39V47.0449H43V43.0449Z" fill="black"/>
<path id="Rectangle 967" d="M47 43.0449H43V47.0449H47V43.0449Z" fill="black"/>
<path id="Rectangle 968" d="M51 43.0449H47V47.0449H51V43.0449Z" fill="black"/>
<path id="Rectangle 969" d="M58 43.0449H55V47.0449H58V43.0449Z" fill="black"/>
<path id="Rectangle 970" d="M66 43.0449H62V47.0449H66V43.0449Z" fill="black"/>
<path id="Rectangle 971" d="M74 43.0449H70V47.0449H74V43.0449Z" fill="black"/>
<path id="Rectangle 972" d="M80 43.0449H77V47.0449H80V43.0449Z" fill="black"/>
<path id="Rectangle 973" d="M88 43.0449H84V47.0449H88V43.0449Z" fill="black"/>
<path id="Rectangle 974" d="M96 43.0449H92V47.0449H96V43.0449Z" fill="black"/>
<path id="Rectangle 975" d="M103 43.0449H99V47.0449H103V43.0449Z" fill="black"/>
<path id="Rectangle 976" d="M111 43.0449H107V47.0449H111V43.0449Z" fill="black"/>
<path id="Rectangle 977" d="M118 43.0449H114V47.0449H118V43.0449Z" fill="black"/>
<path id="Rectangle 978" d="M125 43.0449H121V47.0449H125V43.0449Z" fill="black"/>
<path id="Rectangle 979" d="M133 43.0449H129V47.0449H133V43.0449Z" fill="black"/>
<path id="Rectangle 980" d="M141 43.0449H137V47.0449H141V43.0449Z" fill="black"/>
<path id="Rectangle 981" d="M144 43.0449H141V47.0449H144V43.0449Z" fill="black"/>
<path id="Rectangle 982" d="M148 43.0449H144V47.0449H148V43.0449Z" fill="black"/>
<path id="Rectangle 983" d="M152 43.0449H148V47.0449H152V43.0449Z" fill="black"/>
<path id="Rectangle 984" d="M155 43.0449H152V47.0449H155V43.0449Z" fill="black"/>
<path id="Rectangle 985" d="M159 43.0449H155V47.0449H159V43.0449Z" fill="black"/>
<path id="Rectangle 986" d="M163 43.0449H159V47.0449H163V43.0449Z" fill="black"/>
<path id="Rectangle 987" d="M74 47.0449H70V51.0449H74V47.0449Z" fill="black"/>
<path id="Rectangle 988" d="M77 47.0449H74V51.0449H77V47.0449Z" fill="black"/>
<path id="Rectangle 989" d="M84 47.0449H80V51.0449H84V47.0449Z" fill="black"/>
<path id="Rectangle 990" d="M99 47.0449H96V51.0449H99V47.0449Z" fill="black"/>
<path id="Rectangle 991" d="M103 47.0449H99V51.0449H103V47.0449Z" fill="black"/>
<path id="Rectangle 992" d="M107 47.0449H103V51.0449H107V47.0449Z" fill="black"/>
<path id="Rectangle 993" d="M125 47.0449H121V51.0449H125V47.0449Z" fill="black"/>
<path id="Rectangle 994" d="M129 47.0449H125V51.0449H129V47.0449Z" fill="black"/>
<path id="Rectangle 995" d="M29 51.0449H25V54.0449H29V51.0449Z" fill="black"/>
<path id="Rectangle 996" d="M33 51.0449H29V54.0449H33V51.0449Z" fill="black"/>
<path id="Rectangle 997" d="M35 51.0449H33V54.0449H35V51.0449Z" fill="black"/>
<path id="Rectangle 998" d="M39 51.0449H35V54.0449H39V51.0449Z" fill="black"/>
<path id="Rectangle 999" d="M43 51.0449H39V54.0449H43V51.0449Z" fill="black"/>
<path id="Rectangle 1000" d="M51 51.0449H47V54.0449H51V51.0449Z" fill="black"/>
<path id="Rectangle 1001" d="M55 51.0449H51V54.0449H55V51.0449Z" fill="black"/>
<path id="Rectangle 1002" d="M58 51.0449H55V54.0449H58V51.0449Z" fill="black"/>
<path id="Rectangle 1003" d="M62 51.0449H58V54.0449H62V51.0449Z" fill="black"/>
<path id="Rectangle 1004" d="M66 51.0449H62V54.0449H66V51.0449Z" fill="black"/>
<path id="Rectangle 1005" d="M74 51.0449H70V54.0449H74V51.0449Z" fill="black"/>
<path id="Rectangle 1006" d="M80 51.0449H77V54.0449H80V51.0449Z" fill="black"/>
<path id="Rectangle 1007" d="M84 51.0449H80V54.0449H84V51.0449Z" fill="black"/>
<path id="Rectangle 1008" d="M92 51.0449H88V54.0449H92V51.0449Z" fill="black"/>
<path id="Rectangle 1009" d="M111 51.0449H107V54.0449H111V51.0449Z" fill="black"/>
<path id="Rectangle 1010" d="M114 51.0449H111V54.0449H114V51.0449Z" fill="black"/>
<path id="Rectangle 1011" d="M118 51.0449H114V54.0449H118V51.0449Z" fill="black"/>
<path id="Rectangle 1012" d="M121 51.0449H118V54.0449H121V51.0449Z" fill="black"/>
<path id="Rectangle 1013" d="M129 51.0449H125V54.0449H129V51.0449Z" fill="black"/>
<path id="Rectangle 1014" d="M137 51.0449H133V54.0449H137V51.0449Z" fill="black"/>
<path id="Rectangle 1015" d="M144 51.0449H141V54.0449H144V51.0449Z" fill="black"/>
<path id="Rectangle 1016" d="M152 51.0449H148V54.0449H152V51.0449Z" fill="black"/>
<path id="Rectangle 1017" d="M159 51.0449H155V54.0449H159V51.0449Z" fill="black"/>
<path id="Rectangle 1018" d="M29 54.0449H25V58.0449H29V54.0449Z" fill="black"/>
<path id="Rectangle 1019" d="M47 54.0449H43V58.0449H47V54.0449Z" fill="black"/>
<path id="Rectangle 1020" d="M55 54.0449H51V58.0449H55V54.0449Z" fill="black"/>
<path id="Rectangle 1021" d="M58 54.0449H55V58.0449H58V54.0449Z" fill="black"/>
<path id="Rectangle 1022" d="M84 54.0449H80V58.0449H84V54.0449Z" fill="black"/>
<path id="Rectangle 1023" d="M88 54.0449H84V58.0449H88V54.0449Z" fill="black"/>
<path id="Rectangle 1024" d="M96 54.0449H92V58.0449H96V54.0449Z" fill="black"/>
<path id="Rectangle 1025" d="M99 54.0449H96V58.0449H99V54.0449Z" fill="black"/>
<path id="Rectangle 1026" d="M107 54.0449H103V58.0449H107V54.0449Z" fill="black"/>
<path id="Rectangle 1027" d="M111 54.0449H107V58.0449H111V54.0449Z" fill="black"/>
<path id="Rectangle 1028" d="M114 54.0449H111V58.0449H114V54.0449Z" fill="black"/>
<path id="Rectangle 1029" d="M121 54.0449H118V58.0449H121V54.0449Z" fill="black"/>
<path id="Rectangle 1030" d="M133 54.0449H129V58.0449H133V54.0449Z" fill="black"/>
<path id="Rectangle 1031" d="M144 54.0449H141V58.0449H144V54.0449Z" fill="black"/>
<path id="Rectangle 1032" d="M152 54.0449H148V58.0449H152V54.0449Z" fill="black"/>
<path id="Rectangle 1033" d="M155 54.0449H152V58.0449H155V54.0449Z" fill="black"/>
<path id="Rectangle 1034" d="M159 54.0449H155V58.0449H159V54.0449Z" fill="black"/>
<path id="Rectangle 1035" d="M29 58.0449H25V62.0449H29V58.0449Z" fill="black"/>
<path id="Rectangle 1036" d="M33 58.0449H29V62.0449H33V58.0449Z" fill="black"/>
<path id="Rectangle 1037" d="M51 58.0449H47V62.0449H51V58.0449Z" fill="black"/>
<path id="Rectangle 1038" d="M55 58.0449H51V62.0449H55V58.0449Z" fill="black"/>
<path id="Rectangle 1039" d="M70 58.0449H66V62.0449H70V58.0449Z" fill="black"/>
<path id="Rectangle 1040" d="M74 58.0449H70V62.0449H74V58.0449Z" fill="black"/>
<path id="Rectangle 1041" d="M107 58.0449H103V62.0449H107V58.0449Z" fill="black"/>
<path id="Rectangle 1042" d="M121 58.0449H118V62.0449H121V58.0449Z" fill="black"/>
<path id="Rectangle 1043" d="M125 58.0449H121V62.0449H125V58.0449Z" fill="black"/>
<path id="Rectangle 1044" d="M129 58.0449H125V62.0449H129V58.0449Z" fill="black"/>
<path id="Rectangle 1045" d="M133 58.0449H129V62.0449H133V58.0449Z" fill="black"/>
<path id="Rectangle 1046" d="M137 58.0449H133V62.0449H137V58.0449Z" fill="black"/>
<path id="Rectangle 1047" d="M141 58.0449H137V62.0449H141V58.0449Z" fill="black"/>
<path id="Rectangle 1048" d="M152 58.0449H148V62.0449H152V58.0449Z" fill="black"/>
<path id="Rectangle 1049" d="M155 58.0449H152V62.0449H155V58.0449Z" fill="black"/>
<path id="Rectangle 1050" d="M163 58.0449H159V62.0449H163V58.0449Z" fill="black"/>
<path id="Rectangle 1051" d="M33 62.0449H29V66.0449H33V62.0449Z" fill="black"/>
<path id="Rectangle 1052" d="M35 62.0449H33V66.0449H35V62.0449Z" fill="black"/>
<path id="Rectangle 1053" d="M39 62.0449H35V66.0449H39V62.0449Z" fill="black"/>
<path id="Rectangle 1054" d="M47 62.0449H43V66.0449H47V62.0449Z" fill="black"/>
<path id="Rectangle 1055" d="M62 62.0449H58V66.0449H62V62.0449Z" fill="black"/>
<path id="Rectangle 1056" d="M66 62.0449H62V66.0449H66V62.0449Z" fill="black"/>
<path id="Rectangle 1057" d="M70 62.0449H66V66.0449H70V62.0449Z" fill="black"/>
<path id="Rectangle 1058" d="M80 62.0449H77V66.0449H80V62.0449Z" fill="black"/>
<path id="Rectangle 1059" d="M88 62.0449H84V66.0449H88V62.0449Z" fill="black"/>
<path id="Rectangle 1060" d="M103 62.0449H99V66.0449H103V62.0449Z" fill="black"/>
<path id="Rectangle 1061" d="M107 62.0449H103V66.0449H107V62.0449Z" fill="black"/>
<path id="Rectangle 1062" d="M114 62.0449H111V66.0449H114V62.0449Z" fill="black"/>
<path id="Rectangle 1063" d="M125 62.0449H121V66.0449H125V62.0449Z" fill="black"/>
<path id="Rectangle 1064" d="M133 62.0449H129V66.0449H133V62.0449Z" fill="black"/>
<path id="Rectangle 1065" d="M137 62.0449H133V66.0449H137V62.0449Z" fill="black"/>
<path id="Rectangle 1066" d="M141 62.0449H137V66.0449H141V62.0449Z" fill="black"/>
<path id="Rectangle 1067" d="M144 62.0449H141V66.0449H144V62.0449Z" fill="black"/>
<path id="Rectangle 1068" d="M148 62.0449H144V66.0449H148V62.0449Z" fill="black"/>
<path id="Rectangle 1069" d="M152 62.0449H148V66.0449H152V62.0449Z" fill="black"/>
<path id="Rectangle 1070" d="M159 62.0449H155V66.0449H159V62.0449Z" fill="black"/>
<path id="Rectangle 1071" d="M35 66.0449H33V70.0449H35V66.0449Z" fill="black"/>
<path id="Rectangle 1072" d="M39 66.0449H35V70.0449H39V66.0449Z" fill="black"/>
<path id="Rectangle 1073" d="M43 66.0449H39V70.0449H43V66.0449Z" fill="black"/>
<path id="Rectangle 1074" d="M51 66.0449H47V70.0449H51V66.0449Z" fill="black"/>
<path id="Rectangle 1075" d="M55 66.0449H51V70.0449H55V66.0449Z" fill="black"/>
<path id="Rectangle 1076" d="M62 66.0449H58V70.0449H62V66.0449Z" fill="black"/>
<path id="Rectangle 1077" d="M66 66.0449H62V70.0449H66V66.0449Z" fill="black"/>
<path id="Rectangle 1078" d="M70 66.0449H66V70.0449H70V66.0449Z" fill="black"/>
<path id="Rectangle 1079" d="M88 66.0449H84V70.0449H88V66.0449Z" fill="black"/>
<path id="Rectangle 1080" d="M92 66.0449H88V70.0449H92V66.0449Z" fill="black"/>
<path id="Rectangle 1081" d="M114 66.0449H111V70.0449H114V66.0449Z" fill="black"/>
<path id="Rectangle 1082" d="M118 66.0449H114V70.0449H118V66.0449Z" fill="black"/>
<path id="Rectangle 1083" d="M121 66.0449H118V70.0449H121V66.0449Z" fill="black"/>
<path id="Rectangle 1084" d="M125 66.0449H121V70.0449H125V66.0449Z" fill="black"/>
<path id="Rectangle 1085" d="M141 66.0449H137V70.0449H141V66.0449Z" fill="black"/>
<path id="Rectangle 1086" d="M148 66.0449H144V70.0449H148V66.0449Z" fill="black"/>
<path id="Rectangle 1087" d="M152 66.0449H148V70.0449H152V66.0449Z" fill="black"/>
<path id="Rectangle 1088" d="M155 66.0449H152V70.0449H155V66.0449Z" fill="black"/>
<path id="Rectangle 1089" d="M163 66.0449H159V70.0449H163V66.0449Z" fill="black"/>
<path id="Rectangle 1090" d="M29 70.0449H25V73.0449H29V70.0449Z" fill="black"/>
<path id="Rectangle 1091" d="M33 70.0449H29V73.0449H33V70.0449Z" fill="black"/>
<path id="Rectangle 1092" d="M35 70.0449H33V73.0449H35V70.0449Z" fill="black"/>
<path id="Rectangle 1093" d="M43 70.0449H39V73.0449H43V70.0449Z" fill="black"/>
<path id="Rectangle 1094" d="M55 70.0449H51V73.0449H55V70.0449Z" fill="black"/>
<path id="Rectangle 1095" d="M58 70.0449H55V73.0449H58V70.0449Z" fill="black"/>
<path id="Rectangle 1096" d="M74 70.0449H70V73.0449H74V70.0449Z" fill="black"/>
<path id="Rectangle 1097" d="M77 70.0449H74V73.0449H77V70.0449Z" fill="black"/>
<path id="Rectangle 1098" d="M80 70.0449H77V73.0449H80V70.0449Z" fill="black"/>
<path id="Rectangle 1099" d="M84 70.0449H80V73.0449H84V70.0449Z" fill="black"/>
<path id="Rectangle 1100" d="M92 70.0449H88V73.0449H92V70.0449Z" fill="black"/>
<path id="Rectangle 1101" d="M96 70.0449H92V73.0449H96V70.0449Z" fill="black"/>
<path id="Rectangle 1102" d="M99 70.0449H96V73.0449H99V70.0449Z" fill="black"/>
<path id="Rectangle 1103" d="M103 70.0449H99V73.0449H103V70.0449Z" fill="black"/>
<path id="Rectangle 1104" d="M114 70.0449H111V73.0449H114V70.0449Z" fill="black"/>
<path id="Rectangle 1105" d="M144 70.0449H141V73.0449H144V70.0449Z" fill="black"/>
<path id="Rectangle 1106" d="M155 70.0449H152V73.0449H155V70.0449Z" fill="black"/>
<path id="Rectangle 1107" d="M159 70.0449H155V73.0449H159V70.0449Z" fill="black"/>
<path id="Rectangle 1108" d="M29 73.0449H25V76.0449H29V73.0449Z" fill="black"/>
<path id="Rectangle 1109" d="M35 73.0449H33V76.0449H35V73.0449Z" fill="black"/>
<path id="Rectangle 1110" d="M43 73.0449H39V76.0449H43V73.0449Z" fill="black"/>
<path id="Rectangle 1111" d="M47 73.0449H43V76.0449H47V73.0449Z" fill="black"/>
<path id="Rectangle 1112" d="M51 73.0449H47V76.0449H51V73.0449Z" fill="black"/>
<path id="Rectangle 1113" d="M55 73.0449H51V76.0449H55V73.0449Z" fill="black"/>
<path id="Rectangle 1114" d="M66 73.0449H62V76.0449H66V73.0449Z" fill="black"/>
<path id="Rectangle 1115" d="M77 73.0449H74V76.0449H77V73.0449Z" fill="black"/>
<path id="Rectangle 1116" d="M80 73.0449H77V76.0449H80V73.0449Z" fill="black"/>
<path id="Rectangle 1117" d="M84 73.0449H80V76.0449H84V73.0449Z" fill="black"/>
<path id="Rectangle 1118" d="M88 73.0449H84V76.0449H88V73.0449Z" fill="black"/>
<path id="Rectangle 1119" d="M92 73.0449H88V76.0449H92V73.0449Z" fill="black"/>
<path id="Rectangle 1120" d="M103 73.0449H99V76.0449H103V73.0449Z" fill="black"/>
<path id="Rectangle 1121" d="M111 73.0449H107V76.0449H111V73.0449Z" fill="black"/>
<path id="Rectangle 1122" d="M125 73.0449H121V76.0449H125V73.0449Z" fill="black"/>
<path id="Rectangle 1123" d="M129 73.0449H125V76.0449H129V73.0449Z" fill="black"/>
<path id="Rectangle 1124" d="M133 73.0449H129V76.0449H133V73.0449Z" fill="black"/>
<path id="Rectangle 1125" d="M137 73.0449H133V76.0449H137V73.0449Z" fill="black"/>
<path id="Rectangle 1126" d="M144 73.0449H141V76.0449H144V73.0449Z" fill="black"/>
<path id="Rectangle 1127" d="M148 73.0449H144V76.0449H148V73.0449Z" fill="black"/>
<path id="Rectangle 1128" d="M155 73.0449H152V76.0449H155V73.0449Z" fill="black"/>
<path id="Rectangle 1129" d="M159 73.0449H155V76.0449H159V73.0449Z" fill="black"/>
<path id="Rectangle 1130" d="M163 73.0449H159V76.0449H163V73.0449Z" fill="black"/>
<path id="Rectangle 1131" d="M47 76.0449H43V80.0449H47V76.0449Z" fill="black"/>
<path id="Rectangle 1132" d="M58 76.0449H55V80.0449H58V76.0449Z" fill="black"/>
<path id="Rectangle 1133" d="M62 76.0449H58V80.0449H62V76.0449Z" fill="black"/>
<path id="Rectangle 1134" d="M74 76.0449H70V80.0449H74V76.0449Z" fill="black"/>
<path id="Rectangle 1135" d="M77 76.0449H74V80.0449H77V76.0449Z" fill="black"/>
<path id="Rectangle 1136" d="M84 76.0449H80V80.0449H84V76.0449Z" fill="black"/>
<path id="Rectangle 1137" d="M96 76.0449H92V80.0449H96V76.0449Z" fill="black"/>
<path id="Rectangle 1138" d="M107 76.0449H103V80.0449H107V76.0449Z" fill="black"/>
<path id="Rectangle 1139" d="M114 76.0449H111V80.0449H114V76.0449Z" fill="black"/>
<path id="Rectangle 1140" d="M118 76.0449H114V80.0449H118V76.0449Z" fill="black"/>
<path id="Rectangle 1141" d="M129 76.0449H125V80.0449H129V76.0449Z" fill="black"/>
<path id="Rectangle 1142" d="M133 76.0449H129V80.0449H133V76.0449Z" fill="black"/>
<path id="Rectangle 1143" d="M144 76.0449H141V80.0449H144V76.0449Z" fill="black"/>
<path id="Rectangle 1144" d="M152 76.0449H148V80.0449H152V76.0449Z" fill="black"/>
<path id="Rectangle 1145" d="M163 76.0449H159V80.0449H163V76.0449Z" fill="black"/>
<path id="Rectangle 1146" d="M33 80.0449H29V84.0449H33V80.0449Z" fill="black"/>
<path id="Rectangle 1147" d="M43 80.0449H39V84.0449H43V80.0449Z" fill="black"/>
<path id="Rectangle 1148" d="M47 80.0449H43V84.0449H47V80.0449Z" fill="black"/>
<path id="Rectangle 1149" d="M51 80.0449H47V84.0449H51V80.0449Z" fill="black"/>
<path id="Rectangle 1150" d="M74 80.0449H70V84.0449H74V80.0449Z" fill="black"/>
<path id="Rectangle 1151" d="M80 80.0449H77V84.0449H80V80.0449Z" fill="black"/>
<path id="Rectangle 1152" d="M84 80.0449H80V84.0449H84V80.0449Z" fill="black"/>
<path id="Rectangle 1153" d="M111 80.0449H107V84.0449H111V80.0449Z" fill="black"/>
<path id="Rectangle 1154" d="M118 80.0449H114V84.0449H118V80.0449Z" fill="black"/>
<path id="Rectangle 1155" d="M121 80.0449H118V84.0449H121V80.0449Z" fill="black"/>
<path id="Rectangle 1156" d="M125 80.0449H121V84.0449H125V80.0449Z" fill="black"/>
<path id="Rectangle 1157" d="M129 80.0449H125V84.0449H129V80.0449Z" fill="black"/>
<path id="Rectangle 1158" d="M137 80.0449H133V84.0449H137V80.0449Z" fill="black"/>
<path id="Rectangle 1159" d="M141 80.0449H137V84.0449H141V80.0449Z" fill="black"/>
<path id="Rectangle 1160" d="M148 80.0449H144V84.0449H148V80.0449Z" fill="black"/>
<path id="Rectangle 1161" d="M152 80.0449H148V84.0449H152V80.0449Z" fill="black"/>
<path id="Rectangle 1162" d="M155 80.0449H152V84.0449H155V80.0449Z" fill="black"/>
<path id="Rectangle 1163" d="M163 80.0449H159V84.0449H163V80.0449Z" fill="black"/>
<path id="Rectangle 1164" d="M39 84.0449H35V88.0449H39V84.0449Z" fill="black"/>
<path id="Rectangle 1165" d="M43 84.0449H39V88.0449H43V84.0449Z" fill="black"/>
<path id="Rectangle 1166" d="M55 84.0449H51V88.0449H55V84.0449Z" fill="black"/>
<path id="Rectangle 1167" d="M84 84.0449H80V88.0449H84V84.0449Z" fill="black"/>
<path id="Rectangle 1168" d="M88 84.0449H84V88.0449H88V84.0449Z" fill="black"/>
<path id="Rectangle 1169" d="M92 84.0449H88V88.0449H92V84.0449Z" fill="black"/>
<path id="Rectangle 1170" d="M99 84.0449H96V88.0449H99V84.0449Z" fill="black"/>
<path id="Rectangle 1171" d="M103 84.0449H99V88.0449H103V84.0449Z" fill="black"/>
<path id="Rectangle 1172" d="M107 84.0449H103V88.0449H107V84.0449Z" fill="black"/>
<path id="Rectangle 1173" d="M111 84.0449H107V88.0449H111V84.0449Z" fill="black"/>
<path id="Rectangle 1174" d="M114 84.0449H111V88.0449H114V84.0449Z" fill="black"/>
<path id="Rectangle 1175" d="M133 84.0449H129V88.0449H133V84.0449Z" fill="black"/>
<path id="Rectangle 1176" d="M144 84.0449H141V88.0449H144V84.0449Z" fill="black"/>
<path id="Rectangle 1177" d="M155 84.0449H152V88.0449H155V84.0449Z" fill="black"/>
<path id="Rectangle 1178" d="M159 84.0449H155V88.0449H159V84.0449Z" fill="black"/>
<path id="Rectangle 1179" d="M47 88.0449H43V92.0449H47V88.0449Z" fill="black"/>
<path id="Rectangle 1180" d="M51 88.0449H47V92.0449H51V88.0449Z" fill="black"/>
<path id="Rectangle 1181" d="M55 88.0449H51V92.0449H55V88.0449Z" fill="black"/>
<path id="Rectangle 1182" d="M58 88.0449H55V92.0449H58V88.0449Z" fill="black"/>
<path id="Rectangle 1183" d="M70 88.0449H66V92.0449H70V88.0449Z" fill="black"/>
<path id="Rectangle 1184" d="M74 88.0449H70V92.0449H74V88.0449Z" fill="black"/>
<path id="Rectangle 1185" d="M92 88.0449H88V92.0449H92V88.0449Z" fill="black"/>
<path id="Rectangle 1186" d="M103 88.0449H99V92.0449H103V88.0449Z" fill="black"/>
<path id="Rectangle 1187" d="M125 88.0449H121V92.0449H125V88.0449Z" fill="black"/>
<path id="Rectangle 1188" d="M129 88.0449H125V92.0449H129V88.0449Z" fill="black"/>
<path id="Rectangle 1189" d="M141 88.0449H137V92.0449H141V88.0449Z" fill="black"/>
<path id="Rectangle 1190" d="M144 88.0449H141V92.0449H144V88.0449Z" fill="black"/>
<path id="Rectangle 1191" d="M148 88.0449H144V92.0449H148V88.0449Z" fill="black"/>
<path id="Rectangle 1192" d="M155 88.0449H152V92.0449H155V88.0449Z" fill="black"/>
<path id="Rectangle 1193" d="M159 88.0449H155V92.0449H159V88.0449Z" fill="black"/>
<path id="Rectangle 1194" d="M163 88.0449H159V92.0449H163V88.0449Z" fill="black"/>
<path id="Rectangle 1195" d="M29 92.0449H25V95.0449H29V92.0449Z" fill="black"/>
<path id="Rectangle 1196" d="M33 92.0449H29V95.0449H33V92.0449Z" fill="black"/>
<path id="Rectangle 1197" d="M39 92.0449H35V95.0449H39V92.0449Z" fill="black"/>
<path id="Rectangle 1198" d="M58 92.0449H55V95.0449H58V92.0449Z" fill="black"/>
<path id="Rectangle 1199" d="M62 92.0449H58V95.0449H62V92.0449Z" fill="black"/>
<path id="Rectangle 1200" d="M66 92.0449H62V95.0449H66V92.0449Z" fill="black"/>
<path id="Rectangle 1201" d="M70 92.0449H66V95.0449H70V92.0449Z" fill="black"/>
<path id="Rectangle 1202" d="M80 92.0449H77V95.0449H80V92.0449Z" fill="black"/>
<path id="Rectangle 1203" d="M88 92.0449H84V95.0449H88V92.0449Z" fill="black"/>
<path id="Rectangle 1204" d="M99 92.0449H96V95.0449H99V92.0449Z" fill="black"/>
<path id="Rectangle 1205" d="M103 92.0449H99V95.0449H103V92.0449Z" fill="black"/>
<path id="Rectangle 1206" d="M107 92.0449H103V95.0449H107V92.0449Z" fill="black"/>
<path id="Rectangle 1207" d="M111 92.0449H107V95.0449H111V92.0449Z" fill="black"/>
<path id="Rectangle 1208" d="M125 92.0449H121V95.0449H125V92.0449Z" fill="black"/>
<path id="Rectangle 1209" d="M137 92.0449H133V95.0449H137V92.0449Z" fill="black"/>
<path id="Rectangle 1210" d="M144 92.0449H141V95.0449H144V92.0449Z" fill="black"/>
<path id="Rectangle 1211" d="M148 92.0449H144V95.0449H148V92.0449Z" fill="black"/>
<path id="Rectangle 1212" d="M163 92.0449H159V95.0449H163V92.0449Z" fill="black"/>
<path id="Rectangle 1213" d="M29 95.0449H25V99.0449H29V95.0449Z" fill="black"/>
<path id="Rectangle 1214" d="M51 95.0449H47V99.0449H51V95.0449Z" fill="black"/>
<path id="Rectangle 1215" d="M55 95.0449H51V99.0449H55V95.0449Z" fill="black"/>
<path id="Rectangle 1216" d="M62 95.0449H58V99.0449H62V95.0449Z" fill="black"/>
<path id="Rectangle 1217" d="M66 95.0449H62V99.0449H66V95.0449Z" fill="black"/>
<path id="Rectangle 1218" d="M70 95.0449H66V99.0449H70V95.0449Z" fill="black"/>
<path id="Rectangle 1219" d="M99 95.0449H96V99.0449H99V95.0449Z" fill="black"/>
<path id="Rectangle 1220" d="M111 95.0449H107V99.0449H111V95.0449Z" fill="black"/>
<path id="Rectangle 1221" d="M114 95.0449H111V99.0449H114V95.0449Z" fill="black"/>
<path id="Rectangle 1222" d="M121 95.0449H118V99.0449H121V95.0449Z" fill="black"/>
<path id="Rectangle 1223" d="M125 95.0449H121V99.0449H125V95.0449Z" fill="black"/>
<path id="Rectangle 1224" d="M129 95.0449H125V99.0449H129V95.0449Z" fill="black"/>
<path id="Rectangle 1225" d="M133 95.0449H129V99.0449H133V95.0449Z" fill="black"/>
<path id="Rectangle 1226" d="M137 95.0449H133V99.0449H137V95.0449Z" fill="black"/>
<path id="Rectangle 1227" d="M141 95.0449H137V99.0449H141V95.0449Z" fill="black"/>
<path id="Rectangle 1228" d="M148 95.0449H144V99.0449H148V95.0449Z" fill="black"/>
<path id="Rectangle 1229" d="M155 95.0449H152V99.0449H155V95.0449Z" fill="black"/>
<path id="Rectangle 1230" d="M159 95.0449H155V99.0449H159V95.0449Z" fill="black"/>
<path id="Rectangle 1231" d="M163 95.0449H159V99.0449H163V95.0449Z" fill="black"/>
<path id="Rectangle 1232" d="M33 99.0449H29V103.045H33V99.0449Z" fill="black"/>
<path id="Rectangle 1233" d="M39 99.0449H35V103.045H39V99.0449Z" fill="black"/>
<path id="Rectangle 1234" d="M43 99.0449H39V103.045H43V99.0449Z" fill="black"/>
<path id="Rectangle 1235" d="M47 99.0449H43V103.045H47V99.0449Z" fill="black"/>
<path id="Rectangle 1236" d="M55 99.0449H51V103.045H55V99.0449Z" fill="black"/>
<path id="Rectangle 1237" d="M62 99.0449H58V103.045H62V99.0449Z" fill="black"/>
<path id="Rectangle 1238" d="M66 99.0449H62V103.045H66V99.0449Z" fill="black"/>
<path id="Rectangle 1239" d="M74 99.0449H70V103.045H74V99.0449Z" fill="black"/>
<path id="Rectangle 1240" d="M77 99.0449H74V103.045H77V99.0449Z" fill="black"/>
<path id="Rectangle 1241" d="M80 99.0449H77V103.045H80V99.0449Z" fill="black"/>
<path id="Rectangle 1242" d="M84 99.0449H80V103.045H84V99.0449Z" fill="black"/>
<path id="Rectangle 1243" d="M92 99.0449H88V103.045H92V99.0449Z" fill="black"/>
<path id="Rectangle 1244" d="M96 99.0449H92V103.045H96V99.0449Z" fill="black"/>
<path id="Rectangle 1245" d="M99 99.0449H96V103.045H99V99.0449Z" fill="black"/>
<path id="Rectangle 1246" d="M103 99.0449H99V103.045H103V99.0449Z" fill="black"/>
<path id="Rectangle 1247" d="M107 99.0449H103V103.045H107V99.0449Z" fill="black"/>
<path id="Rectangle 1248" d="M111 99.0449H107V103.045H111V99.0449Z" fill="black"/>
<path id="Rectangle 1249" d="M114 99.0449H111V103.045H114V99.0449Z" fill="black"/>
<path id="Rectangle 1250" d="M118 99.0449H114V103.045H118V99.0449Z" fill="black"/>
<path id="Rectangle 1251" d="M125 99.0449H121V103.045H125V99.0449Z" fill="black"/>
<path id="Rectangle 1252" d="M133 99.0449H129V103.045H133V99.0449Z" fill="black"/>
<path id="Rectangle 1253" d="M144 99.0449H141V103.045H144V99.0449Z" fill="black"/>
<path id="Rectangle 1254" d="M152 99.0449H148V103.045H152V99.0449Z" fill="black"/>
<path id="Rectangle 1255" d="M159 99.0449H155V103.045H159V99.0449Z" fill="black"/>
<path id="Rectangle 1256" d="M29 103.045H25V107.045H29V103.045Z" fill="black"/>
<path id="Rectangle 1257" d="M43 103.045H39V107.045H43V103.045Z" fill="black"/>
<path id="Rectangle 1258" d="M51 103.045H47V107.045H51V103.045Z" fill="black"/>
<path id="Rectangle 1259" d="M55 103.045H51V107.045H55V103.045Z" fill="black"/>
<path id="Rectangle 1260" d="M77 103.045H74V107.045H77V103.045Z" fill="black"/>
<path id="Rectangle 1261" d="M80 103.045H77V107.045H80V103.045Z" fill="black"/>
<path id="Rectangle 1262" d="M84 103.045H80V107.045H84V103.045Z" fill="black"/>
<path id="Rectangle 1263" d="M88 103.045H84V107.045H88V103.045Z" fill="black"/>
<path id="Rectangle 1264" d="M96 103.045H92V107.045H96V103.045Z" fill="black"/>
<path id="Rectangle 1265" d="M107 103.045H103V107.045H107V103.045Z" fill="black"/>
<path id="Rectangle 1266" d="M111 103.045H107V107.045H111V103.045Z" fill="black"/>
<path id="Rectangle 1267" d="M118 103.045H114V107.045H118V103.045Z" fill="black"/>
<path id="Rectangle 1268" d="M125 103.045H121V107.045H125V103.045Z" fill="black"/>
<path id="Rectangle 1269" d="M129 103.045H125V107.045H129V103.045Z" fill="black"/>
<path id="Rectangle 1270" d="M133 103.045H129V107.045H133V103.045Z" fill="black"/>
<path id="Rectangle 1271" d="M137 103.045H133V107.045H137V103.045Z" fill="black"/>
<path id="Rectangle 1272" d="M144 103.045H141V107.045H144V103.045Z" fill="black"/>
<path id="Rectangle 1273" d="M148 103.045H144V107.045H148V103.045Z" fill="black"/>
<path id="Rectangle 1274" d="M152 103.045H148V107.045H152V103.045Z" fill="black"/>
<path id="Rectangle 1275" d="M159 103.045H155V107.045H159V103.045Z" fill="black"/>
<path id="Rectangle 1276" d="M163 103.045H159V107.045H163V103.045Z" fill="black"/>
<path id="Rectangle 1277" d="M29 107.045H25V110.045H29V107.045Z" fill="black"/>
<path id="Rectangle 1278" d="M35 107.045H33V110.045H35V107.045Z" fill="black"/>
<path id="Rectangle 1279" d="M43 107.045H39V110.045H43V107.045Z" fill="black"/>
<path id="Rectangle 1280" d="M47 107.045H43V110.045H47V107.045Z" fill="black"/>
<path id="Rectangle 1281" d="M58 107.045H55V110.045H58V107.045Z" fill="black"/>
<path id="Rectangle 1282" d="M62 107.045H58V110.045H62V107.045Z" fill="black"/>
<path id="Rectangle 1283" d="M74 107.045H70V110.045H74V107.045Z" fill="black"/>
<path id="Rectangle 1284" d="M77 107.045H74V110.045H77V107.045Z" fill="black"/>
<path id="Rectangle 1285" d="M99 107.045H96V110.045H99V107.045Z" fill="black"/>
<path id="Rectangle 1286" d="M107 107.045H103V110.045H107V107.045Z" fill="black"/>
<path id="Rectangle 1287" d="M133 107.045H129V110.045H133V107.045Z" fill="black"/>
<path id="Rectangle 1288" d="M137 107.045H133V110.045H137V107.045Z" fill="black"/>
<path id="Rectangle 1289" d="M144 107.045H141V110.045H144V107.045Z" fill="black"/>
<path id="Rectangle 1290" d="M148 107.045H144V110.045H148V107.045Z" fill="black"/>
<path id="Rectangle 1291" d="M163 107.045H159V110.045H163V107.045Z" fill="black"/>
<path id="Rectangle 1292" d="M35 110.045H33V114.045H35V110.045Z" fill="black"/>
<path id="Rectangle 1293" d="M39 110.045H35V114.045H39V110.045Z" fill="black"/>
<path id="Rectangle 1294" d="M43 110.045H39V114.045H43V110.045Z" fill="black"/>
<path id="Rectangle 1295" d="M51 110.045H47V114.045H51V110.045Z" fill="black"/>
<path id="Rectangle 1296" d="M74 110.045H70V114.045H74V110.045Z" fill="black"/>
<path id="Rectangle 1297" d="M80 110.045H77V114.045H80V110.045Z" fill="black"/>
<path id="Rectangle 1298" d="M84 110.045H80V114.045H84V110.045Z" fill="black"/>
<path id="Rectangle 1299" d="M88 110.045H84V114.045H88V110.045Z" fill="black"/>
<path id="Rectangle 1300" d="M103 110.045H99V114.045H103V110.045Z" fill="black"/>
<path id="Rectangle 1301" d="M111 110.045H107V114.045H111V110.045Z" fill="black"/>
<path id="Rectangle 1302" d="M118 110.045H114V114.045H118V110.045Z" fill="black"/>
<path id="Rectangle 1303" d="M121 110.045H118V114.045H121V110.045Z" fill="black"/>
<path id="Rectangle 1304" d="M125 110.045H121V114.045H125V110.045Z" fill="black"/>
<path id="Rectangle 1305" d="M137 110.045H133V114.045H137V110.045Z" fill="black"/>
<path id="Rectangle 1306" d="M141 110.045H137V114.045H141V110.045Z" fill="black"/>
<path id="Rectangle 1307" d="M148 110.045H144V114.045H148V110.045Z" fill="black"/>
<path id="Rectangle 1308" d="M152 110.045H148V114.045H152V110.045Z" fill="black"/>
<path id="Rectangle 1309" d="M155 110.045H152V114.045H155V110.045Z" fill="black"/>
<path id="Rectangle 1310" d="M159 110.045H155V114.045H159V110.045Z" fill="black"/>
<path id="Rectangle 1311" d="M163 110.045H159V114.045H163V110.045Z" fill="black"/>
<path id="Rectangle 1312" d="M29 114.045H25V117.045H29V114.045Z" fill="black"/>
<path id="Rectangle 1313" d="M35 114.045H33V117.045H35V114.045Z" fill="black"/>
<path id="Rectangle 1314" d="M43 114.045H39V117.045H43V114.045Z" fill="black"/>
<path id="Rectangle 1315" d="M47 114.045H43V117.045H47V114.045Z" fill="black"/>
<path id="Rectangle 1316" d="M66 114.045H62V117.045H66V114.045Z" fill="black"/>
<path id="Rectangle 1317" d="M84 114.045H80V117.045H84V114.045Z" fill="black"/>
<path id="Rectangle 1318" d="M88 114.045H84V117.045H88V114.045Z" fill="black"/>
<path id="Rectangle 1319" d="M92 114.045H88V117.045H92V114.045Z" fill="black"/>
<path id="Rectangle 1320" d="M96 114.045H92V117.045H96V114.045Z" fill="black"/>
<path id="Rectangle 1321" d="M99 114.045H96V117.045H99V114.045Z" fill="black"/>
<path id="Rectangle 1322" d="M103 114.045H99V117.045H103V114.045Z" fill="black"/>
<path id="Rectangle 1323" d="M107 114.045H103V117.045H107V114.045Z" fill="black"/>
<path id="Rectangle 1324" d="M111 114.045H107V117.045H111V114.045Z" fill="black"/>
<path id="Rectangle 1325" d="M114 114.045H111V117.045H114V114.045Z" fill="black"/>
<path id="Rectangle 1326" d="M133 114.045H129V117.045H133V114.045Z" fill="black"/>
<path id="Rectangle 1327" d="M144 114.045H141V117.045H144V114.045Z" fill="black"/>
<path id="Rectangle 1328" d="M155 114.045H152V117.045H155V114.045Z" fill="black"/>
<path id="Rectangle 1329" d="M159 114.045H155V117.045H159V114.045Z" fill="black"/>
<path id="Rectangle 1330" d="M29 117.045H25V121.045H29V117.045Z" fill="black"/>
<path id="Rectangle 1331" d="M51 117.045H47V121.045H51V117.045Z" fill="black"/>
<path id="Rectangle 1332" d="M55 117.045H51V121.045H55V117.045Z" fill="black"/>
<path id="Rectangle 1333" d="M58 117.045H55V121.045H58V117.045Z" fill="black"/>
<path id="Rectangle 1334" d="M62 117.045H58V121.045H62V117.045Z" fill="black"/>
<path id="Rectangle 1335" d="M70 117.045H66V121.045H70V117.045Z" fill="black"/>
<path id="Rectangle 1336" d="M74 117.045H70V121.045H74V117.045Z" fill="black"/>
<path id="Rectangle 1337" d="M84 117.045H80V121.045H84V117.045Z" fill="black"/>
<path id="Rectangle 1338" d="M88 117.045H84V121.045H88V117.045Z" fill="black"/>
<path id="Rectangle 1339" d="M92 117.045H88V121.045H92V117.045Z" fill="black"/>
<path id="Rectangle 1340" d="M107 117.045H103V121.045H107V117.045Z" fill="black"/>
<path id="Rectangle 1341" d="M111 117.045H107V121.045H111V117.045Z" fill="black"/>
<path id="Rectangle 1342" d="M129 117.045H125V121.045H129V117.045Z" fill="black"/>
<path id="Rectangle 1343" d="M137 117.045H133V121.045H137V117.045Z" fill="black"/>
<path id="Rectangle 1344" d="M144 117.045H141V121.045H144V117.045Z" fill="black"/>
<path id="Rectangle 1345" d="M148 117.045H144V121.045H148V117.045Z" fill="black"/>
<path id="Rectangle 1346" d="M152 117.045H148V121.045H152V117.045Z" fill="black"/>
<path id="Rectangle 1347" d="M159 117.045H155V121.045H159V117.045Z" fill="black"/>
<path id="Rectangle 1348" d="M163 117.045H159V121.045H163V117.045Z" fill="black"/>
<path id="Rectangle 1349" d="M29 121.045H25V125.045H29V121.045Z" fill="black"/>
<path id="Rectangle 1350" d="M35 121.045H33V125.045H35V121.045Z" fill="black"/>
<path id="Rectangle 1351" d="M39 121.045H35V125.045H39V121.045Z" fill="black"/>
<path id="Rectangle 1352" d="M43 121.045H39V125.045H43V121.045Z" fill="black"/>
<path id="Rectangle 1353" d="M47 121.045H43V125.045H47V121.045Z" fill="black"/>
<path id="Rectangle 1354" d="M62 121.045H58V125.045H62V121.045Z" fill="black"/>
<path id="Rectangle 1355" d="M70 121.045H66V125.045H70V121.045Z" fill="black"/>
<path id="Rectangle 1356" d="M80 121.045H77V125.045H80V121.045Z" fill="black"/>
<path id="Rectangle 1357" d="M84 121.045H80V125.045H84V121.045Z" fill="black"/>
<path id="Rectangle 1358" d="M88 121.045H84V125.045H88V121.045Z" fill="black"/>
<path id="Rectangle 1359" d="M96 121.045H92V125.045H96V121.045Z" fill="black"/>
<path id="Rectangle 1360" d="M99 121.045H96V125.045H99V121.045Z" fill="black"/>
<path id="Rectangle 1361" d="M107 121.045H103V125.045H107V121.045Z" fill="black"/>
<path id="Rectangle 1362" d="M111 121.045H107V125.045H111V121.045Z" fill="black"/>
<path id="Rectangle 1363" d="M118 121.045H114V125.045H118V121.045Z" fill="black"/>
<path id="Rectangle 1364" d="M125 121.045H121V125.045H125V121.045Z" fill="black"/>
<path id="Rectangle 1365" d="M129 121.045H125V125.045H129V121.045Z" fill="black"/>
<path id="Rectangle 1366" d="M133 121.045H129V125.045H133V121.045Z" fill="black"/>
<path id="Rectangle 1367" d="M137 121.045H133V125.045H137V121.045Z" fill="black"/>
<path id="Rectangle 1368" d="M141 121.045H137V125.045H141V121.045Z" fill="black"/>
<path id="Rectangle 1369" d="M144 121.045H141V125.045H144V121.045Z" fill="black"/>
<path id="Rectangle 1370" d="M163 121.045H159V125.045H163V121.045Z" fill="black"/>
<path id="Rectangle 1371" d="M29 125.045H25V129.045H29V125.045Z" fill="black"/>
<path id="Rectangle 1372" d="M35 125.045H33V129.045H35V125.045Z" fill="black"/>
<path id="Rectangle 1373" d="M51 125.045H47V129.045H51V125.045Z" fill="black"/>
<path id="Rectangle 1374" d="M62 125.045H58V129.045H62V125.045Z" fill="black"/>
<path id="Rectangle 1375" d="M70 125.045H66V129.045H70V125.045Z" fill="black"/>
<path id="Rectangle 1376" d="M84 125.045H80V129.045H84V125.045Z" fill="black"/>
<path id="Rectangle 1377" d="M88 125.045H84V129.045H88V125.045Z" fill="black"/>
<path id="Rectangle 1378" d="M92 125.045H88V129.045H92V125.045Z" fill="black"/>
<path id="Rectangle 1379" d="M96 125.045H92V129.045H96V125.045Z" fill="black"/>
<path id="Rectangle 1380" d="M111 125.045H107V129.045H111V125.045Z" fill="black"/>
<path id="Rectangle 1381" d="M114 125.045H111V129.045H114V125.045Z" fill="black"/>
<path id="Rectangle 1382" d="M118 125.045H114V129.045H118V125.045Z" fill="black"/>
<path id="Rectangle 1383" d="M121 125.045H118V129.045H121V125.045Z" fill="black"/>
<path id="Rectangle 1384" d="M125 125.045H121V129.045H125V125.045Z" fill="black"/>
<path id="Rectangle 1385" d="M129 125.045H125V129.045H129V125.045Z" fill="black"/>
<path id="Rectangle 1386" d="M133 125.045H129V129.045H133V125.045Z" fill="black"/>
<path id="Rectangle 1387" d="M137 125.045H133V129.045H137V125.045Z" fill="black"/>
<path id="Rectangle 1388" d="M141 125.045H137V129.045H141V125.045Z" fill="black"/>
<path id="Rectangle 1389" d="M144 125.045H141V129.045H144V125.045Z" fill="black"/>
<path id="Rectangle 1390" d="M148 125.045H144V129.045H148V125.045Z" fill="black"/>
<path id="Rectangle 1391" d="M152 125.045H148V129.045H152V125.045Z" fill="black"/>
<path id="Rectangle 1392" d="M155 125.045H152V129.045H155V125.045Z" fill="black"/>
<path id="Rectangle 1393" d="M58 129.045H55V133.045H58V129.045Z" fill="black"/>
<path id="Rectangle 1394" d="M62 129.045H58V133.045H62V129.045Z" fill="black"/>
<path id="Rectangle 1395" d="M66 129.045H62V133.045H66V129.045Z" fill="black"/>
<path id="Rectangle 1396" d="M74 129.045H70V133.045H74V129.045Z" fill="black"/>
<path id="Rectangle 1397" d="M77 129.045H74V133.045H77V129.045Z" fill="black"/>
<path id="Rectangle 1398" d="M80 129.045H77V133.045H80V129.045Z" fill="black"/>
<path id="Rectangle 1399" d="M84 129.045H80V133.045H84V129.045Z" fill="black"/>
<path id="Rectangle 1400" d="M88 129.045H84V133.045H88V129.045Z" fill="black"/>
<path id="Rectangle 1401" d="M96 129.045H92V133.045H96V129.045Z" fill="black"/>
<path id="Rectangle 1402" d="M99 129.045H96V133.045H99V129.045Z" fill="black"/>
<path id="Rectangle 1403" d="M103 129.045H99V133.045H103V129.045Z" fill="black"/>
<path id="Rectangle 1404" d="M107 129.045H103V133.045H107V129.045Z" fill="black"/>
<path id="Rectangle 1405" d="M114 129.045H111V133.045H114V129.045Z" fill="black"/>
<path id="Rectangle 1406" d="M121 129.045H118V133.045H121V129.045Z" fill="black"/>
<path id="Rectangle 1407" d="M133 129.045H129V133.045H133V129.045Z" fill="black"/>
<path id="Rectangle 1408" d="M148 129.045H144V133.045H148V129.045Z" fill="black"/>
<path id="Rectangle 1409" d="M152 129.045H148V133.045H152V129.045Z" fill="black"/>
<path id="Rectangle 1410" d="M29 133.045H25V137.045H29V133.045Z" fill="black"/>
<path id="Rectangle 1411" d="M33 133.045H29V137.045H33V133.045Z" fill="black"/>
<path id="Rectangle 1412" d="M35 133.045H33V137.045H35V133.045Z" fill="black"/>
<path id="Rectangle 1413" d="M39 133.045H35V137.045H39V133.045Z" fill="black"/>
<path id="Rectangle 1414" d="M43 133.045H39V137.045H43V133.045Z" fill="black"/>
<path id="Rectangle 1415" d="M47 133.045H43V137.045H47V133.045Z" fill="black"/>
<path id="Rectangle 1416" d="M51 133.045H47V137.045H51V133.045Z" fill="black"/>
<path id="Rectangle 1417" d="M58 133.045H55V137.045H58V133.045Z" fill="black"/>
<path id="Rectangle 1418" d="M62 133.045H58V137.045H62V133.045Z" fill="black"/>
<path id="Rectangle 1419" d="M66 133.045H62V137.045H66V133.045Z" fill="black"/>
<path id="Rectangle 1420" d="M77 133.045H74V137.045H77V133.045Z" fill="black"/>
<path id="Rectangle 1421" d="M80 133.045H77V137.045H80V133.045Z" fill="black"/>
<path id="Rectangle 1422" d="M84 133.045H80V137.045H84V133.045Z" fill="black"/>
<path id="Rectangle 1423" d="M88 133.045H84V137.045H88V133.045Z" fill="black"/>
<path id="Rectangle 1424" d="M92 133.045H88V137.045H92V133.045Z" fill="black"/>
<path id="Rectangle 1425" d="M103 133.045H99V137.045H103V133.045Z" fill="black"/>
<path id="Rectangle 1426" d="M107 133.045H103V137.045H107V133.045Z" fill="black"/>
<path id="Rectangle 1427" d="M111 133.045H107V137.045H111V133.045Z" fill="black"/>
<path id="Rectangle 1428" d="M133 133.045H129V137.045H133V133.045Z" fill="black"/>
<path id="Rectangle 1429" d="M141 133.045H137V137.045H141V133.045Z" fill="black"/>
<path id="Rectangle 1430" d="M148 133.045H144V137.045H148V133.045Z" fill="black"/>
<path id="Rectangle 1431" d="M159 133.045H155V137.045H159V133.045Z" fill="black"/>
<path id="Rectangle 1432" d="M163 133.045H159V137.045H163V133.045Z" fill="black"/>
<path id="Rectangle 1433" d="M29 137.045H25V140.045H29V137.045Z" fill="black"/>
<path id="Rectangle 1434" d="M51 137.045H47V140.045H51V137.045Z" fill="black"/>
<path id="Rectangle 1435" d="M74 137.045H70V140.045H74V137.045Z" fill="black"/>
<path id="Rectangle 1436" d="M77 137.045H74V140.045H77V137.045Z" fill="black"/>
<path id="Rectangle 1437" d="M84 137.045H80V140.045H84V137.045Z" fill="black"/>
<path id="Rectangle 1438" d="M88 137.045H84V140.045H88V137.045Z" fill="black"/>
<path id="Rectangle 1439" d="M96 137.045H92V140.045H96V137.045Z" fill="black"/>
<path id="Rectangle 1440" d="M107 137.045H103V140.045H107V137.045Z" fill="black"/>
<path id="Rectangle 1441" d="M114 137.045H111V140.045H114V137.045Z" fill="black"/>
<path id="Rectangle 1442" d="M125 137.045H121V140.045H125V137.045Z" fill="black"/>
<path id="Rectangle 1443" d="M133 137.045H129V140.045H133V137.045Z" fill="black"/>
<path id="Rectangle 1444" d="M148 137.045H144V140.045H148V137.045Z" fill="black"/>
<path id="Rectangle 1445" d="M159 137.045H155V140.045H159V137.045Z" fill="black"/>
<path id="Rectangle 1446" d="M163 137.045H159V140.045H163V137.045Z" fill="black"/>
<path id="Rectangle 1447" d="M29 140.045H25V144.045H29V140.045Z" fill="black"/>
<path id="Rectangle 1448" d="M35 140.045H33V144.045H35V140.045Z" fill="black"/>
<path id="Rectangle 1449" d="M39 140.045H35V144.045H39V140.045Z" fill="black"/>
<path id="Rectangle 1450" d="M43 140.045H39V144.045H43V140.045Z" fill="black"/>
<path id="Rectangle 1451" d="M51 140.045H47V144.045H51V140.045Z" fill="black"/>
<path id="Rectangle 1452" d="M58 140.045H55V144.045H58V140.045Z" fill="black"/>
<path id="Rectangle 1453" d="M74 140.045H70V144.045H74V140.045Z" fill="black"/>
<path id="Rectangle 1454" d="M80 140.045H77V144.045H80V140.045Z" fill="black"/>
<path id="Rectangle 1455" d="M88 140.045H84V144.045H88V140.045Z" fill="black"/>
<path id="Rectangle 1456" d="M92 140.045H88V144.045H92V140.045Z" fill="black"/>
<path id="Rectangle 1457" d="M111 140.045H107V144.045H111V140.045Z" fill="black"/>
<path id="Rectangle 1458" d="M114 140.045H111V144.045H114V140.045Z" fill="black"/>
<path id="Rectangle 1459" d="M121 140.045H118V144.045H121V140.045Z" fill="black"/>
<path id="Rectangle 1460" d="M125 140.045H121V144.045H125V140.045Z" fill="black"/>
<path id="Rectangle 1461" d="M129 140.045H125V144.045H129V140.045Z" fill="black"/>
<path id="Rectangle 1462" d="M133 140.045H129V144.045H133V140.045Z" fill="black"/>
<path id="Rectangle 1463" d="M137 140.045H133V144.045H137V140.045Z" fill="black"/>
<path id="Rectangle 1464" d="M141 140.045H137V144.045H141V140.045Z" fill="black"/>
<path id="Rectangle 1465" d="M144 140.045H141V144.045H144V140.045Z" fill="black"/>
<path id="Rectangle 1466" d="M148 140.045H144V144.045H148V140.045Z" fill="black"/>
<path id="Rectangle 1467" d="M155 140.045H152V144.045H155V140.045Z" fill="black"/>
<path id="Rectangle 1468" d="M163 140.045H159V144.045H163V140.045Z" fill="black"/>
<path id="Rectangle 1469" d="M29 144.045H25V148.045H29V144.045Z" fill="black"/>
<path id="Rectangle 1470" d="M35 144.045H33V148.045H35V144.045Z" fill="black"/>
<path id="Rectangle 1471" d="M39 144.045H35V148.045H39V144.045Z" fill="black"/>
<path id="Rectangle 1472" d="M43 144.045H39V148.045H43V144.045Z" fill="black"/>
<path id="Rectangle 1473" d="M51 144.045H47V148.045H51V144.045Z" fill="black"/>
<path id="Rectangle 1474" d="M58 144.045H55V148.045H58V144.045Z" fill="black"/>
<path id="Rectangle 1475" d="M96 144.045H92V148.045H96V144.045Z" fill="black"/>
<path id="Rectangle 1476" d="M99 144.045H96V148.045H99V144.045Z" fill="black"/>
<path id="Rectangle 1477" d="M103 144.045H99V148.045H103V144.045Z" fill="black"/>
<path id="Rectangle 1478" d="M111 144.045H107V148.045H111V144.045Z" fill="black"/>
<path id="Rectangle 1479" d="M114 144.045H111V148.045H114V144.045Z" fill="black"/>
<path id="Rectangle 1480" d="M118 144.045H114V148.045H118V144.045Z" fill="black"/>
<path id="Rectangle 1481" d="M121 144.045H118V148.045H121V144.045Z" fill="black"/>
<path id="Rectangle 1482" d="M133 144.045H129V148.045H133V144.045Z" fill="black"/>
<path id="Rectangle 1483" d="M141 144.045H137V148.045H141V144.045Z" fill="black"/>
<path id="Rectangle 1484" d="M148 144.045H144V148.045H148V144.045Z" fill="black"/>
<path id="Rectangle 1485" d="M152 144.045H148V148.045H152V144.045Z" fill="black"/>
<path id="Rectangle 1486" d="M155 144.045H152V148.045H155V144.045Z" fill="black"/>
<path id="Rectangle 1487" d="M159 144.045H155V148.045H159V144.045Z" fill="black"/>
<path id="Rectangle 1488" d="M163 144.045H159V148.045H163V144.045Z" fill="black"/>
<path id="Rectangle 1489" d="M29 148.045H25V151.045H29V148.045Z" fill="black"/>
<path id="Rectangle 1490" d="M35 148.045H33V151.045H35V148.045Z" fill="black"/>
<path id="Rectangle 1491" d="M39 148.045H35V151.045H39V148.045Z" fill="black"/>
<path id="Rectangle 1492" d="M43 148.045H39V151.045H43V148.045Z" fill="black"/>
<path id="Rectangle 1493" d="M51 148.045H47V151.045H51V148.045Z" fill="black"/>
<path id="Rectangle 1494" d="M58 148.045H55V151.045H58V148.045Z" fill="black"/>
<path id="Rectangle 1495" d="M62 148.045H58V151.045H62V148.045Z" fill="black"/>
<path id="Rectangle 1496" d="M66 148.045H62V151.045H66V148.045Z" fill="black"/>
<path id="Rectangle 1497" d="M70 148.045H66V151.045H70V148.045Z" fill="black"/>
<path id="Rectangle 1498" d="M74 148.045H70V151.045H74V148.045Z" fill="black"/>
<path id="Rectangle 1499" d="M84 148.045H80V151.045H84V148.045Z" fill="black"/>
<path id="Rectangle 1500" d="M92 148.045H88V151.045H92V148.045Z" fill="black"/>
<path id="Rectangle 1501" d="M107 148.045H103V151.045H107V148.045Z" fill="black"/>
<path id="Rectangle 1502" d="M125 148.045H121V151.045H125V148.045Z" fill="black"/>
<path id="Rectangle 1503" d="M129 148.045H125V151.045H129V148.045Z" fill="black"/>
<path id="Rectangle 1504" d="M144 148.045H141V151.045H144V148.045Z" fill="black"/>
<path id="Rectangle 1505" d="M159 148.045H155V151.045H159V148.045Z" fill="black"/>
<path id="Rectangle 1506" d="M163 148.045H159V151.045H163V148.045Z" fill="black"/>
<path id="Rectangle 1507" d="M29 151.045H25V155.045H29V151.045Z" fill="black"/>
<path id="Rectangle 1508" d="M51 151.045H47V155.045H51V151.045Z" fill="black"/>
<path id="Rectangle 1509" d="M58 151.045H55V155.045H58V151.045Z" fill="black"/>
<path id="Rectangle 1510" d="M62 151.045H58V155.045H62V151.045Z" fill="black"/>
<path id="Rectangle 1511" d="M70 151.045H66V155.045H70V151.045Z" fill="black"/>
<path id="Rectangle 1512" d="M80 151.045H77V155.045H80V151.045Z" fill="black"/>
<path id="Rectangle 1513" d="M84 151.045H80V155.045H84V151.045Z" fill="black"/>
<path id="Rectangle 1514" d="M88 151.045H84V155.045H88V151.045Z" fill="black"/>
<path id="Rectangle 1515" d="M99 151.045H96V155.045H99V151.045Z" fill="black"/>
<path id="Rectangle 1516" d="M103 151.045H99V155.045H103V151.045Z" fill="black"/>
<path id="Rectangle 1517" d="M107 151.045H103V155.045H107V151.045Z" fill="black"/>
<path id="Rectangle 1518" d="M111 151.045H107V155.045H111V151.045Z" fill="black"/>
<path id="Rectangle 1519" d="M114 151.045H111V155.045H114V151.045Z" fill="black"/>
<path id="Rectangle 1520" d="M118 151.045H114V155.045H118V151.045Z" fill="black"/>
<path id="Rectangle 1521" d="M133 151.045H129V155.045H133V151.045Z" fill="black"/>
<path id="Rectangle 1522" d="M137 151.045H133V155.045H137V151.045Z" fill="black"/>
<path id="Rectangle 1523" d="M148 151.045H144V155.045H148V151.045Z" fill="black"/>
<path id="Rectangle 1524" d="M152 151.045H148V155.045H152V151.045Z" fill="black"/>
<path id="Rectangle 1525" d="M163 151.045H159V155.045H163V151.045Z" fill="black"/>
<path id="Rectangle 1526" d="M29 155.045H25V159.045H29V155.045Z" fill="black"/>
<path id="Rectangle 1527" d="M33 155.045H29V159.045H33V155.045Z" fill="black"/>
<path id="Rectangle 1528" d="M35 155.045H33V159.045H35V155.045Z" fill="black"/>
<path id="Rectangle 1529" d="M39 155.045H35V159.045H39V155.045Z" fill="black"/>
<path id="Rectangle 1530" d="M43 155.045H39V159.045H43V155.045Z" fill="black"/>
<path id="Rectangle 1531" d="M47 155.045H43V159.045H47V155.045Z" fill="black"/>
<path id="Rectangle 1532" d="M51 155.045H47V159.045H51V155.045Z" fill="black"/>
<path id="Rectangle 1533" d="M58 155.045H55V159.045H58V155.045Z" fill="black"/>
<path id="Rectangle 1534" d="M66 155.045H62V159.045H66V155.045Z" fill="black"/>
<path id="Rectangle 1535" d="M70 155.045H66V159.045H70V155.045Z" fill="black"/>
<path id="Rectangle 1536" d="M92 155.045H88V159.045H92V155.045Z" fill="black"/>
<path id="Rectangle 1537" d="M99 155.045H96V159.045H99V155.045Z" fill="black"/>
<path id="Rectangle 1538" d="M121 155.045H118V159.045H121V155.045Z" fill="black"/>
<path id="Rectangle 1539" d="M125 155.045H121V159.045H125V155.045Z" fill="black"/>
<path id="Rectangle 1540" d="M137 155.045H133V159.045H137V155.045Z" fill="black"/>
<path id="Rectangle 1541" d="M144 155.045H141V159.045H144V155.045Z" fill="black"/>
<path id="Rectangle 1542" d="M148 155.045H144V159.045H148V155.045Z" fill="black"/>
<path id="Rectangle 1543" d="M152 155.045H148V159.045H152V155.045Z" fill="black"/>
<path id="Rectangle 1544" d="M155 155.045H152V159.045H155V155.045Z" fill="black"/>
<path id="Rectangle 1545" d="M159 155.045H155V159.045H159V155.045Z" fill="black"/>
<path id="Rectangle 1546" d="M163 155.045H159V159.045H163V155.045Z" fill="black"/>
</g>
<g id="google-play-badge-svg">
<path id="Path 83" d="M163.35 220.045H23.59C22.1038 220.034 20.682 219.437 19.6348 218.382C18.5876 217.327 18 215.901 18 214.415V180.665C18.0026 179.18 18.5914 177.757 19.6383 176.704C20.6853 175.652 22.1055 175.055 23.59 175.045H163.35C164.835 175.055 166.255 175.652 167.302 176.704C168.349 177.757 168.937 179.18 168.94 180.665V214.415C168.94 215.901 168.352 217.327 167.305 218.382C166.258 219.437 164.836 220.034 163.35 220.045Z" fill="black"/>
<path id="Path 84" d="M163.35 175.945C164.6 175.95 165.797 176.451 166.678 177.338C167.559 178.225 168.053 179.425 168.05 180.675V214.425C168.05 215.673 167.555 216.871 166.675 217.755C165.794 218.64 164.598 219.14 163.35 219.145H23.59C22.3495 219.129 21.1654 218.625 20.2947 217.741C19.4241 216.857 18.9373 215.665 18.94 214.425V180.675C18.9346 179.433 19.4203 178.239 20.2912 177.353C21.1621 176.467 22.3478 175.961 23.59 175.945H163.35ZM163.35 175.045H23.59C22.1038 175.055 20.682 175.653 19.6348 176.708C18.5876 177.763 18 179.189 18 180.675V214.425C18.0026 215.909 18.5914 217.333 19.6383 218.385C20.6853 219.438 22.1055 220.034 23.59 220.045H163.35C164.835 220.034 166.255 219.438 167.302 218.385C168.349 217.333 168.937 215.909 168.94 214.425V180.675C168.94 179.189 168.352 177.763 167.305 176.708C166.258 175.653 164.836 175.055 163.35 175.045Z" fill="#A6A5A5"/>
<g id="Group 109">
<path id="Path 85" d="M71.0198 186.565C71.0403 186.978 70.9774 187.391 70.8347 187.779C70.6921 188.168 70.4728 188.523 70.1898 188.825C69.8706 189.155 69.4859 189.414 69.0606 189.586C68.6352 189.758 68.1785 189.84 67.7198 189.825C67.2616 189.836 66.8062 189.752 66.3814 189.58C65.9566 189.408 65.5715 189.151 65.2498 188.825C64.9214 188.496 64.6633 188.104 64.4914 187.673C64.3195 187.241 64.2373 186.779 64.2498 186.315C64.2373 185.851 64.3195 185.389 64.4914 184.957C64.6633 184.526 64.9214 184.134 65.2498 183.805C65.5715 183.479 65.9566 183.222 66.3814 183.05C66.8062 182.878 67.2616 182.794 67.7198 182.805C68.1913 182.79 68.661 182.871 69.0998 183.045C69.5038 183.209 69.8634 183.466 70.1498 183.795L69.5598 184.385C69.3339 184.121 69.0509 183.911 68.7321 183.773C68.4133 183.634 68.0671 183.57 67.7198 183.585C67.0494 183.594 66.4096 183.867 65.9398 184.345C65.6821 184.598 65.4804 184.902 65.3478 185.238C65.2151 185.574 65.1545 185.934 65.1698 186.295C65.1545 186.656 65.2151 187.016 65.3478 187.352C65.4804 187.688 65.6821 187.992 65.9398 188.245C66.4364 188.728 67.1019 188.999 67.7948 188.999C68.4877 188.999 69.1532 188.728 69.6498 188.245C69.9905 187.872 70.1888 187.39 70.2098 186.885H67.7198V186.045H70.9398C70.9809 186.216 71.0077 186.39 71.0198 186.565Z" fill="white" stroke="white" stroke-width="0.2" stroke-miterlimit="10"/>
<path id="Path 86" d="M76.1698 183.745H73.1698V185.885H75.9198V186.705H73.1198V188.845H76.1198V189.675H72.2598V182.925H76.1698V183.745Z" fill="white" stroke="white" stroke-width="0.2" stroke-miterlimit="10"/>
<path id="Path 87" d="M79.8098 189.675H78.9398V183.745H77.0698V182.925H81.6798V183.745H79.8098V189.675Z" fill="white" stroke="white" stroke-width="0.2" stroke-miterlimit="10"/>
<path id="Path 88" d="M85.02 189.675V182.925H85.88V189.675H85.02Z" fill="white" stroke="white" stroke-width="0.2" stroke-miterlimit="10"/>
<path id="Path 89" d="M89.6999 189.675H88.8399V183.745H86.9399V182.925H91.5499V183.745H89.6999V189.675Z" fill="white" stroke="white" stroke-width="0.2" stroke-miterlimit="10"/>
<path id="Path 90" d="M100.3 188.795C99.8131 189.286 99.1905 189.621 98.5121 189.755C97.8338 189.889 97.1307 189.817 96.4936 189.548C95.8565 189.279 95.3147 188.826 94.9379 188.246C94.5611 187.666 94.3667 186.986 94.3797 186.295C94.3651 185.603 94.5587 184.922 94.9352 184.341C95.3117 183.761 95.8539 183.306 96.4916 183.037C97.1293 182.768 97.8332 182.696 98.5121 182.831C99.191 182.966 99.8137 183.302 100.3 183.795C100.624 184.124 100.88 184.515 101.051 184.944C101.223 185.374 101.307 185.833 101.3 186.295C101.309 186.757 101.225 187.217 101.054 187.647C100.882 188.076 100.625 188.467 100.3 188.795ZM96.0197 188.235C96.2577 188.476 96.5412 188.667 96.8536 188.797C97.166 188.927 97.5011 188.995 97.8397 188.995C98.1782 188.995 98.5134 188.927 98.8258 188.797C99.1382 188.667 99.4216 188.476 99.6597 188.235C99.9091 187.979 100.104 187.675 100.233 187.342C100.362 187.008 100.422 186.652 100.41 186.295C100.422 185.938 100.362 185.582 100.233 185.248C100.104 184.915 99.9091 184.611 99.6597 184.355C99.4216 184.114 99.1382 183.923 98.8258 183.793C98.5134 183.662 98.1782 183.595 97.8397 183.595C97.5011 183.595 97.166 183.662 96.8536 183.793C96.5412 183.923 96.2577 184.114 96.0197 184.355C95.7716 184.612 95.5781 184.916 95.4509 185.249C95.3237 185.583 95.2655 185.938 95.2797 186.295C95.2655 186.652 95.3237 187.007 95.4509 187.341C95.5781 187.674 95.7716 187.978 96.0197 188.235Z" fill="white" stroke="white" stroke-width="0.2" stroke-miterlimit="10"/>
<path id="Path 91" d="M102.5 189.675V182.925H103.5L106.76 188.175V182.925H107.62V189.675H106.72L103.36 184.165V189.675H102.5Z" fill="white" stroke="white" stroke-width="0.2" stroke-miterlimit="10"/>
</g>
<path id="Path 92" d="M94.1802 199.515C93.2316 199.509 92.3025 199.785 91.5109 200.308C90.7192 200.83 90.1006 201.576 89.7335 202.451C89.3663 203.326 89.2672 204.29 89.4486 205.221C89.63 206.152 90.0838 207.008 90.7525 207.681C91.4212 208.354 92.2746 208.813 93.2046 209.001C94.1346 209.188 95.0992 209.095 95.9763 208.733C96.8533 208.372 97.6031 207.758 98.1308 206.969C98.6585 206.181 98.9402 205.254 98.9402 204.305C98.9523 203.675 98.8377 203.049 98.6032 202.465C98.3686 201.88 98.0189 201.348 97.5749 200.902C97.1309 200.455 96.6015 200.102 96.0184 199.864C95.4352 199.625 94.8101 199.507 94.1802 199.515ZM94.1802 207.205C93.8124 207.195 93.4504 207.111 93.1155 206.959C92.7805 206.807 92.4793 206.589 92.2296 206.319C91.9799 206.049 91.7868 205.732 91.6615 205.386C91.5362 205.04 91.4814 204.672 91.5002 204.305C91.541 203.783 91.7331 203.285 92.0528 202.871C92.3725 202.457 92.8061 202.145 93.3003 201.974C93.7946 201.802 94.3281 201.778 94.8356 201.906C95.3431 202.033 95.8025 202.305 96.1576 202.689C96.5126 203.073 96.748 203.553 96.8347 204.069C96.9215 204.585 96.8559 205.115 96.6461 205.594C96.4363 206.073 96.0912 206.481 95.6532 206.767C95.2153 207.053 94.7034 207.205 94.1802 207.205ZM83.7702 199.515C82.822 199.511 81.8939 199.789 81.1036 200.312C80.3132 200.836 79.6962 201.583 79.3306 202.458C78.965 203.333 78.8673 204.297 79.0498 205.227C79.2324 206.158 79.687 207.013 80.3561 207.685C81.0252 208.357 81.8786 208.815 82.8083 209.001C83.738 209.188 84.7022 209.094 85.5786 208.732C86.455 208.37 87.2043 207.756 87.7315 206.968C88.2587 206.18 88.5402 205.253 88.5402 204.305C88.5523 203.674 88.4374 203.048 88.2023 202.462C87.9671 201.877 87.6165 201.345 87.1714 200.898C86.7263 200.451 86.1958 200.098 85.6114 199.861C85.0271 199.623 84.4009 199.505 83.7702 199.515ZM83.7702 207.205C83.4024 207.195 83.0404 207.111 82.7055 206.959C82.3705 206.807 82.0693 206.589 81.8196 206.319C81.5699 206.049 81.3768 205.732 81.2515 205.386C81.1262 205.04 81.0714 204.672 81.0902 204.305C81.0581 203.934 81.1035 203.56 81.2236 203.207C81.3437 202.854 81.5359 202.53 81.7878 202.255C82.0398 201.98 82.3462 201.761 82.6874 201.611C83.0287 201.461 83.3974 201.383 83.7702 201.383C84.143 201.383 84.5117 201.461 84.853 201.611C85.1942 201.761 85.5006 201.98 85.7526 202.255C86.0045 202.53 86.1967 202.854 86.3168 203.207C86.4369 203.56 86.4823 203.934 86.4502 204.305C86.469 204.672 86.4142 205.04 86.2889 205.386C86.1636 205.732 85.9705 206.049 85.7208 206.319C85.4711 206.589 85.1699 206.807 84.8349 206.959C84.5 207.111 84.138 207.195 83.7702 207.205ZM71.3802 200.985V202.985H76.2102C76.1441 203.935 75.7561 204.835 75.1102 205.535C74.6304 206.036 74.0499 206.429 73.407 206.69C72.7641 206.95 72.0733 207.071 71.3802 207.045C69.948 207.045 68.5745 206.476 67.5618 205.463C66.5491 204.451 65.9802 203.077 65.9802 201.645C65.9802 200.213 66.5491 198.839 67.5618 197.827C68.5745 196.814 69.948 196.245 71.3802 196.245C72.0526 196.234 72.7205 196.357 73.3453 196.606C73.9701 196.855 74.5393 197.225 75.0202 197.695L76.4402 196.265C75.7771 195.602 74.9875 195.078 74.1183 194.726C73.2491 194.374 72.3179 194.2 71.3802 194.215C69.4096 194.215 67.5198 194.998 66.1264 196.391C64.733 197.785 63.9502 199.674 63.9502 201.645C63.9502 203.616 64.733 205.505 66.1264 206.899C67.5198 208.292 69.4096 209.075 71.3802 209.075C72.2934 209.125 73.2069 208.983 74.062 208.658C74.917 208.333 75.6945 207.833 76.3445 207.19C76.9945 206.546 77.5025 205.774 77.8359 204.922C78.1693 204.071 78.3206 203.159 78.2802 202.245C78.2882 201.819 78.2513 201.393 78.1702 200.975L71.3802 200.985ZM122.04 202.565C121.755 201.695 121.208 200.935 120.474 200.389C119.74 199.843 118.855 199.538 117.94 199.515C117.327 199.521 116.721 199.651 116.159 199.898C115.597 200.144 115.091 200.502 114.671 200.95C114.251 201.398 113.927 201.926 113.717 202.502C113.507 203.079 113.416 203.692 113.45 204.305C113.441 204.931 113.557 205.552 113.793 206.132C114.028 206.712 114.378 207.239 114.821 207.681C115.264 208.124 115.792 208.472 116.372 208.706C116.953 208.941 117.574 209.056 118.2 209.045C118.991 209.052 119.771 208.862 120.469 208.492C121.167 208.122 121.763 207.583 122.2 206.925L120.57 205.835C120.331 206.242 119.988 206.579 119.578 206.812C119.167 207.046 118.702 207.167 118.23 207.165C117.752 207.184 117.278 207.06 116.87 206.809C116.462 206.558 116.139 206.191 115.94 205.755L122.3 203.105L122.04 202.565ZM115.56 204.155C115.536 203.808 115.581 203.46 115.693 203.131C115.805 202.801 115.982 202.498 116.213 202.238C116.444 201.978 116.725 201.767 117.038 201.617C117.352 201.467 117.693 201.381 118.04 201.365C118.4 201.342 118.76 201.424 119.074 201.602C119.388 201.779 119.644 202.045 119.81 202.365L115.56 204.155ZM110.39 208.795H112.48V194.735H110.39V208.795ZM106.94 200.585C106.624 200.239 106.237 199.964 105.806 199.78C105.375 199.595 104.909 199.505 104.44 199.515C103.209 199.571 102.047 200.1 101.195 200.991C100.344 201.882 99.869 203.067 99.869 204.3C99.869 205.532 100.344 206.718 101.195 207.609C102.047 208.5 103.209 209.029 104.44 209.085C104.907 209.102 105.373 209.018 105.804 208.839C106.236 208.659 106.623 208.388 106.94 208.045V208.735C106.94 210.565 105.94 211.545 104.4 211.545C103.877 211.534 103.37 211.366 102.944 211.062C102.518 210.759 102.192 210.335 102.01 209.845L100.19 210.605C100.529 211.443 101.112 212.16 101.862 212.665C102.612 213.169 103.496 213.437 104.4 213.435C106.85 213.435 108.92 211.985 108.92 208.435V199.805H106.94V200.585ZM104.55 207.205C104.189 207.187 103.835 207.098 103.508 206.943C103.181 206.788 102.888 206.57 102.646 206.302C102.403 206.033 102.216 205.719 102.095 205.379C101.974 205.038 101.921 204.676 101.94 204.315C101.92 203.949 101.973 203.583 102.096 203.238C102.218 202.893 102.409 202.575 102.655 202.305C102.902 202.034 103.2 201.815 103.532 201.66C103.865 201.506 104.224 201.419 104.59 201.405C104.95 201.424 105.302 201.515 105.626 201.672C105.95 201.83 106.239 202.051 106.476 202.322C106.713 202.594 106.893 202.91 107.005 203.252C107.118 203.595 107.16 203.956 107.13 204.315C107.159 204.674 107.115 205.036 107 205.377C106.886 205.719 106.704 206.035 106.465 206.304C106.226 206.574 105.935 206.793 105.609 206.948C105.284 207.102 104.93 207.19 104.57 207.205H104.55ZM131.81 194.735H126.81V208.795H128.94V203.465H131.86C132.451 203.493 133.041 203.401 133.596 203.195C134.15 202.988 134.656 202.671 135.084 202.263C135.513 201.855 135.853 201.364 136.086 200.82C136.319 200.277 136.439 199.691 136.439 199.1C136.439 198.508 136.319 197.923 136.086 197.379C135.853 196.836 135.513 196.345 135.084 195.937C134.656 195.529 134.15 195.212 133.596 195.005C133.041 194.799 132.451 194.707 131.86 194.735H131.81ZM131.81 201.505H128.81V196.685H131.81C132.449 196.685 133.062 196.939 133.514 197.391C133.966 197.843 134.22 198.456 134.22 199.095C134.22 199.734 133.966 200.347 133.514 200.799C133.062 201.251 132.449 201.505 131.81 201.505ZM144.7 199.505C143.937 199.462 143.178 199.644 142.516 200.027C141.855 200.411 141.321 200.981 140.98 201.665L142.83 202.445C143.072 202.068 143.421 201.771 143.833 201.593C144.244 201.416 144.699 201.365 145.14 201.448C145.58 201.531 145.986 201.743 146.305 202.058C146.624 202.373 146.842 202.776 146.93 203.215V203.365C146.264 203.006 145.517 202.82 144.76 202.825C142.76 202.825 140.76 203.925 140.76 205.985C140.778 206.419 140.882 206.844 141.068 207.237C141.253 207.629 141.515 207.98 141.839 208.27C142.163 208.559 142.541 208.78 142.952 208.92C143.363 209.06 143.797 209.116 144.23 209.085C144.767 209.122 145.303 209.011 145.781 208.764C146.259 208.517 146.66 208.144 146.94 207.685H147.01V208.775H149.01V203.375C149.02 200.885 147.17 199.485 144.77 199.485L144.7 199.505ZM144.45 207.215C143.77 207.215 142.82 206.875 142.82 206.025C142.82 204.935 144 204.525 145.03 204.525C145.694 204.508 146.351 204.67 146.93 204.995C146.853 205.587 146.568 206.133 146.127 206.535C145.686 206.938 145.117 207.172 144.52 207.195L144.45 207.215ZM156.28 199.815L153.94 205.895L151.46 199.795H149.21L152.93 208.315L150.76 213.045H152.94L158.67 199.785L156.28 199.815ZM137.49 208.815H139.58V194.735H137.49V208.815Z" fill="white"/>
<g id="Group 110">
<path id="Path 93" d="M29.6699 183.535C29.3002 183.975 29.114 184.541 29.1499 185.115V209.975C29.114 210.549 29.3002 211.114 29.6699 211.555L29.7499 211.635L43.5899 197.705V197.385L29.7499 183.455L29.6699 183.535Z" fill="#5BC8F3"/>
<path id="Path 94" d="M48.2098 202.355L43.5898 197.705V197.385L48.2098 192.735L48.3098 192.795L53.7798 195.925C55.3398 196.815 55.3398 198.275 53.7798 199.165L48.3098 202.295L48.2098 202.355Z" fill="url(#paint0_linear_1027_10087)"/>
<path id="Path 95" d="M48.3099 202.295L43.5899 197.545L29.6699 211.545C29.9862 211.828 30.3926 211.991 30.8171 212.004C31.2417 212.017 31.6571 211.879 31.9899 211.615L48.3099 202.285" fill="url(#paint1_linear_1027_10087)"/>
<path id="Path 96" d="M48.3099 192.795L31.9899 183.465C31.6571 183.201 31.2417 183.063 30.8171 183.076C30.3926 183.089 29.9862 183.251 29.6699 183.535L43.5899 197.535L48.3099 192.795Z" fill="url(#paint2_linear_1027_10087)"/>
</g>
</g>
</g>
<defs>
<filter id="filter0_d_1027_10087" x="0" y="0.0449219" width="188" height="238" filterUnits="userSpaceOnUse" color-interpolation-filters="sRGB">
<feFlood flood-opacity="0" result="BackgroundImageFix"/>
<feColorMatrix in="SourceAlpha" type="matrix" values="0 0 0 0 0 0 0 0 0 0 0 0 0 0 0 0 0 0 127 0" result="hardAlpha"/>
<feOffset dy="4"/>
<feGaussianBlur stdDeviation="2"/>
<feComposite in2="hardAlpha" operator="out"/>
<feColorMatrix type="matrix" values="0 0 0 0 0 0 0 0 0 0 0 0 0 0 0 0 0 0 0.25 0"/>
<feBlend mode="normal" in2="BackgroundImageFix" result="effect1_dropShadow_1027_10087"/>
<feBlend mode="normal" in="SourceGraphic" in2="effect1_dropShadow_1027_10087" result="shape"/>
</filter>
<linearGradient id="paint0_linear_1027_10087" x1="52.7574" y1="197.545" x2="25.7319" y2="197.545" gradientUnits="userSpaceOnUse">
<stop stop-color="#FFDF00"/>
<stop offset="0.41" stop-color="#FBBC0E"/>
<stop offset="0.78" stop-color="#F9A418"/>
<stop offset="1" stop-color="#F89B1C"/>
</linearGradient>
<linearGradient id="paint1_linear_1027_10087" x1="45.7562" y1="200.119" x2="27.7108" y2="230.098" gradientUnits="userSpaceOnUse">
<stop stop-color="#EE4447"/>
<stop offset="1" stop-color="#C5166C"/>
</linearGradient>
<linearGradient id="paint2_linear_1027_10087" x1="20.1449" y1="169.353" x2="34.8783" y2="193.838" gradientUnits="userSpaceOnUse">
<stop stop-color="#269E6F"/>
<stop offset="0.05" stop-color="#2BA06F"/>
<stop offset="0.47" stop-color="#53B26B"/>
<stop offset="0.8" stop-color="#6BBD69"/>
<stop offset="1" stop-color="#74C168"/>
</linearGradient>
</defs>
</svg>
