<svg width="462" height="200" viewBox="0 0 462 200" fill="none" xmlns="http://www.w3.org/2000/svg">
<path fill-rule="evenodd" clip-rule="evenodd" d="M461.655 200H296.235C293.759 195.117 290.73 190.506 287.191 186.265C278.88 176.304 268.062 168.744 255.856 164.364C243.651 159.985 230.503 158.946 217.773 161.349C205.044 163.753 193.191 169.512 183.439 178.03C176.367 184.208 170.584 191.675 166.378 200H132.848H132.848H0.888244C2.8509 186.209 6.05532 172.568 10.4922 159.247C23.5925 119.915 46.9614 84.7969 78.1847 57.525C109.408 30.2531 147.35 11.8195 188.086 4.1275C228.822 -3.56443 270.873 -0.235541 309.893 13.7652C348.912 27.7658 383.487 51.9307 410.045 83.7612C436.603 115.592 454.183 153.936 460.967 194.832C461.253 196.559 461.482 198.283 461.655 200Z" fill="url(#paint0_linear_4231_5044)"/>
<defs>
<linearGradient id="paint0_linear_4231_5044" x1="4.54506" y1="100.043" x2="465.312" y2="100.043" gradientUnits="userSpaceOnUse">
<stop stop-color="#E72D2D"/>
<stop offset="1" stop-color="#F96D0B"/>
</linearGradient>
</defs>
</svg>
