<svg width="16" height="16" viewBox="0 0 16 16" fill="none" xmlns="http://www.w3.org/2000/svg">
<path d="M0.315341 11.2451C0.305266 11.3019 0.306484 11.3602 0.318926 11.4165C0.331368 11.4728 0.354789 11.5261 0.387851 11.5734C0.420914 11.6207 0.462968 11.661 0.511611 11.692C0.560254 11.723 0.614532 11.7441 0.671341 11.7541L2.62134 12.0981L1.39234 5.13013L0.315341 11.2451Z" fill="#555555"/>
<path d="M2.65815 0.508072C2.60121 0.497708 2.54277 0.498706 2.48621 0.511011C2.42966 0.523316 2.37609 0.546685 2.32859 0.579772C2.2811 0.612859 2.24062 0.655011 2.20948 0.703803C2.17834 0.752594 2.15716 0.807062 2.14715 0.864072L1.68115 3.50707L10.5472 1.94307L2.65815 0.508072Z" fill="#555555"/>
<path d="M15.3021 13.149L13.4711 2.76705C13.4611 2.71024 13.44 2.65596 13.409 2.60732C13.378 2.55867 13.3377 2.51662 13.2904 2.48355C13.2432 2.45049 13.1898 2.42707 13.1335 2.41463C13.0772 2.40219 13.019 2.40097 12.9622 2.41104L2.57515 4.24205C2.51834 4.25207 2.46407 4.27319 2.41542 4.30419C2.36678 4.3352 2.32472 4.37549 2.29166 4.42276C2.2586 4.47003 2.23518 4.52336 2.22274 4.57969C2.21029 4.63602 2.20907 4.69425 2.21915 4.75105L4.05015 15.138C4.06017 15.1949 4.08129 15.2491 4.1123 15.2978C4.14331 15.3464 4.1836 15.3885 4.23087 15.4215C4.27814 15.4546 4.33147 15.478 4.3878 15.4905C4.44413 15.5029 4.50235 15.5041 4.55915 15.494L14.9462 13.663C15.003 13.653 15.0572 13.6319 15.1059 13.6009C15.1545 13.5699 15.1966 13.5296 15.2296 13.4823C15.2627 13.4351 15.2861 13.3817 15.2986 13.3254C15.311 13.2691 15.3122 13.2108 15.3021 13.154V13.149ZM4.55815 7.90805C4.54808 7.85125 4.54929 7.79302 4.56173 7.73669C4.57417 7.68036 4.5976 7.62704 4.63066 7.57977C4.66373 7.5325 4.70578 7.4922 4.75442 7.46119C4.80306 7.43018 4.85734 7.40906 4.91415 7.39904L11.8382 6.17804C11.895 6.168 11.9533 6.16925 12.0097 6.18173C12.0661 6.19421 12.1194 6.21767 12.1667 6.25077C12.214 6.28388 12.2544 6.32598 12.2854 6.37467C12.3165 6.42336 12.3376 6.47769 12.3477 6.53455C12.3577 6.59141 12.3564 6.64969 12.344 6.70607C12.3315 6.76245 12.308 6.81582 12.2749 6.86313C12.2418 6.91044 12.1997 6.95077 12.151 6.98181C12.1023 7.01286 12.048 7.034 11.9912 7.04405L5.06715 8.26505C5.01035 8.27512 4.95212 8.2739 4.89579 8.26146C4.83946 8.24902 4.78614 8.2256 4.73887 8.19254C4.6916 8.15948 4.6513 8.11742 4.6203 8.06877C4.58929 8.02013 4.56817 7.96486 4.55815 7.90805ZM10.2942 10.908L5.67815 11.722C5.62129 11.7321 5.563 11.7308 5.50662 11.7184C5.45025 11.7059 5.39688 11.6824 5.34957 11.6493C5.30225 11.6162 5.26192 11.5741 5.23088 11.5254C5.19984 11.4767 5.1787 11.4224 5.16865 11.3655C5.1586 11.3087 5.15986 11.2504 5.17234 11.194C5.18481 11.1376 5.20828 11.0843 5.24138 11.037C5.27449 10.9896 5.31659 10.9493 5.36528 10.9183C5.41396 10.8872 5.46829 10.8661 5.52515 10.856L10.1412 10.042C10.198 10.032 10.2563 10.0333 10.3127 10.0457C10.3691 10.0582 10.4224 10.0817 10.4697 10.1148C10.517 10.1479 10.5574 10.19 10.5884 10.2387C10.6195 10.2874 10.6406 10.3417 10.6507 10.3985C10.6607 10.4554 10.6594 10.5137 10.647 10.5701C10.6345 10.6264 10.611 10.6798 10.5779 10.7271C10.5448 10.7744 10.5027 10.8148 10.454 10.8458C10.4053 10.8769 10.351 10.898 10.2942 10.908ZM12.2942 8.77005L5.37015 9.99105C5.31329 10.0011 5.255 9.99984 5.19863 9.98736C5.14225 9.97488 5.08888 9.95142 5.04157 9.91831C4.99426 9.88521 4.95393 9.84311 4.92288 9.79442C4.89184 9.74573 4.8707 9.69141 4.86065 9.63455C4.85061 9.57768 4.85186 9.5194 4.86434 9.46302C4.87682 9.40664 4.90028 9.35328 4.93338 9.30596C4.96649 9.25865 5.00858 9.21832 5.05727 9.18728C5.10596 9.15624 5.16029 9.13509 5.21715 9.12505L12.1412 7.90405C12.198 7.894 12.2563 7.89525 12.3127 7.90773C12.3691 7.92021 12.4224 7.94368 12.4697 7.97678C12.517 8.00988 12.5574 8.05198 12.5884 8.10067C12.6195 8.14935 12.6406 8.20368 12.6507 8.26055C12.6607 8.31741 12.6594 8.37569 12.647 8.43207C12.6345 8.48845 12.611 8.54182 12.5779 8.58913C12.5448 8.63644 12.5027 8.67677 12.454 8.70781C12.4053 8.73885 12.351 8.76 12.2942 8.77005Z" fill="#555555"/>
</svg>
