<svg width="188" height="239" viewBox="0 0 188 239" fill="none" xmlns="http://www.w3.org/2000/svg">
<g id="Apple" filter="url(#filter0_d_1027_10812)">
<g id="Rectangle 290">
<path id="Vector" d="M179 0.0449219H9C6.23858 0.0449219 4 2.2835 4 5.04492V225.045C4 227.806 6.23858 230.045 9 230.045H179C181.761 230.045 184 227.806 184 225.045V5.04492C184 2.2835 181.761 0.0449219 179 0.0449219Z" fill="white"/>
<path id="Vector_2" d="M179 0.544922H9C6.51472 0.544922 4.5 2.55964 4.5 5.04492V225.045C4.5 227.53 6.51472 229.545 9 229.545H179C181.485 229.545 183.5 227.53 183.5 225.045V5.04492C183.5 2.55964 181.485 0.544922 179 0.544922Z" stroke="white"/>
</g>
<g id="Apple_App_Store_Badge">
<g id="Group 94">
<g id="Group 92">
<path id="Path 60" d="M150.9 175.045H37.726C37.313 175.045 36.906 175.045 36.494 175.045C36.15 175.045 35.809 175.056 35.461 175.062C34.7057 175.071 33.9522 175.138 33.207 175.262C32.4626 175.388 31.7415 175.625 31.068 175.966C30.3956 176.31 29.7811 176.758 29.247 177.292C28.7103 177.825 28.2629 178.44 27.922 179.115C27.5812 179.789 27.3451 180.511 27.222 181.256C27.0973 182 27.0304 182.753 27.022 183.508C27.007 183.854 27.006 184.2 27 184.545V210.545C27.006 210.894 27.007 211.233 27.017 211.582C27.0254 212.337 27.0923 213.09 27.217 213.834C27.3398 214.579 27.5758 215.302 27.917 215.976C28.2577 216.649 28.7052 217.262 29.242 217.792C29.7741 218.329 30.3889 218.776 31.063 219.118C31.7361 219.46 32.4568 219.7 33.201 219.828C33.9463 219.951 34.6997 220.018 35.455 220.028C35.803 220.036 36.144 220.04 36.489 220.04C36.9 220.04 37.308 220.04 37.721 220.04H150.9C151.3 220.04 151.715 220.04 152.12 220.04C152.463 220.04 152.814 220.04 153.157 220.028C153.911 220.018 154.663 219.951 155.407 219.828C156.154 219.699 156.877 219.46 157.554 219.118C158.227 218.776 158.841 218.328 159.373 217.792C159.909 217.26 160.357 216.647 160.702 215.976C161.043 215.302 161.279 214.579 161.402 213.834C161.527 213.089 161.597 212.337 161.611 211.582C161.611 211.233 161.611 210.894 161.611 210.545C161.62 210.136 161.62 209.73 161.62 209.314V185.773C161.62 185.361 161.62 184.952 161.611 184.545C161.611 184.2 161.611 183.854 161.611 183.509C161.597 182.754 161.527 182.001 161.402 181.257C161.279 180.512 161.043 179.79 160.702 179.116C160.008 177.762 158.906 176.661 157.553 175.966C156.876 175.625 156.153 175.388 155.406 175.261C154.662 175.137 153.91 175.07 153.156 175.061C152.815 175.056 152.464 175.045 152.121 175.045C151.721 175.045 151.305 175.045 150.9 175.045Z" fill="#A6A6A6"/>
<path id="Path 61" d="M36.4858 219.078C36.1428 219.078 35.8088 219.078 35.4678 219.066C34.7643 219.056 34.0624 218.995 33.3678 218.882C32.7193 218.77 32.091 218.562 31.5038 218.265C30.9218 217.97 30.391 217.583 29.9318 217.12C29.466 216.662 29.0783 216.131 28.7838 215.548C28.4861 214.961 28.28 214.332 28.1728 213.682C28.0572 212.984 27.9947 212.278 27.9858 211.571C27.9738 211.337 27.9648 210.544 27.9648 210.544V184.537C27.9648 184.537 27.9748 183.756 27.9818 183.527C27.9903 182.821 28.0525 182.116 28.1678 181.419C28.2754 180.768 28.4818 180.137 28.7798 179.548C29.0731 178.965 29.4588 178.434 29.9218 177.974C30.3844 177.51 30.9169 177.122 31.4998 176.823C32.0857 176.527 32.7127 176.321 33.3598 176.211C34.0579 176.097 34.7635 176.035 35.4708 176.026L36.4858 176.012H152.131L153.159 176.026C153.859 176.034 154.558 176.095 155.25 176.209C155.904 176.32 156.537 176.528 157.13 176.826C158.298 177.429 159.248 178.381 159.848 179.551C160.14 180.136 160.343 180.762 160.448 181.408C160.566 182.11 160.633 182.821 160.648 183.533C160.648 183.852 160.648 184.194 160.648 184.533C160.657 184.955 160.657 185.357 160.657 185.762V209.327C160.657 209.736 160.657 210.135 160.648 210.538C160.648 210.904 160.648 211.238 160.648 211.585C160.635 212.284 160.571 212.982 160.456 213.672C160.351 214.326 160.146 214.96 159.848 215.552C159.551 216.129 159.165 216.655 158.705 217.112C158.245 217.578 157.713 217.966 157.13 218.263C156.539 218.562 155.906 218.771 155.253 218.882C154.558 218.996 153.856 219.057 153.153 219.066C152.823 219.074 152.478 219.078 152.143 219.078H150.923H36.4858Z" fill="black"/>
</g>
<g id="&#60;Group&#62;">
<g id="&#60;Group&#62;_2">
<g id="&#60;Group&#62;_3">
<path id="&#60;Path&#62;" d="M54.3681 197.935C54.3795 197.013 54.6239 196.109 55.0785 195.307C55.533 194.505 56.1831 193.831 56.9681 193.347C56.4688 192.634 55.8103 192.048 55.0448 191.634C54.2793 191.22 53.4279 190.99 52.5581 190.963C50.7021 190.768 48.9041 192.073 47.9581 192.073C46.9941 192.073 45.5381 190.982 43.9711 191.014C42.9572 191.047 41.9691 191.342 41.103 191.87C40.2369 192.398 39.5224 193.142 39.0291 194.028C36.8921 197.728 38.4861 203.166 40.5291 206.156C41.5531 207.62 42.7501 209.256 44.3161 209.198C45.8491 209.134 46.4211 208.221 48.2711 208.221C50.1041 208.221 50.6411 209.198 52.2391 209.161C53.8841 209.134 54.9201 207.69 55.9081 206.212C56.644 205.169 57.2104 204.015 57.5861 202.795C56.6306 202.391 55.8151 201.714 55.2414 200.85C54.6678 199.986 54.3612 198.971 54.3601 197.934L54.3681 197.935Z" fill="white"/>
<path id="&#60;Path&#62;_2" d="M51.3499 188.996C52.2468 187.92 52.6887 186.536 52.5819 185.139C51.212 185.283 49.9466 185.938 49.0379 186.973C48.5932 187.478 48.2524 188.067 48.0352 188.704C47.818 189.341 47.7285 190.015 47.7719 190.687C48.4572 190.694 49.1352 190.546 49.7548 190.253C50.3744 189.96 50.9205 189.53 51.3499 188.996Z" fill="white"/>
</g>
</g>
<g id="Group 93">
<path id="Path 62" d="M76.138 205.492H70.909L69.652 209.201H67.436L72.39 195.479H74.69L79.646 209.201H77.393L76.138 205.492ZM71.449 203.78H75.595L73.551 197.761H73.494L71.449 203.78Z" fill="white"/>
<path id="Path 63" d="M90.3449 204.199C90.3449 207.308 88.6809 209.305 86.1699 209.305C85.5338 209.338 84.9012 209.192 84.3444 208.882C83.7877 208.573 83.3294 208.113 83.0219 207.555H82.9739V212.51H80.9209V199.197H82.9089V200.861H82.9469C83.2683 200.306 83.7342 199.848 84.2951 199.537C84.8559 199.225 85.4907 199.071 86.1319 199.092C88.6709 199.092 90.3449 201.099 90.3449 204.199ZM88.2339 204.199C88.2339 202.174 87.1869 200.842 85.5899 200.842C84.0209 200.842 82.9659 202.202 82.9659 204.199C82.9659 206.215 84.0209 207.565 85.5899 207.565C87.1899 207.565 88.2339 206.243 88.2339 204.199Z" fill="white"/>
<path id="Path 64" d="M101.356 204.199C101.356 207.308 99.692 209.305 97.181 209.305C96.5449 209.338 95.9123 209.192 95.3556 208.882C94.7988 208.573 94.3405 208.113 94.033 207.555H93.986V212.51H91.936V199.197H93.924V200.861H93.962C94.2835 200.306 94.7494 199.848 95.3102 199.537C95.871 199.225 96.5058 199.071 97.147 199.092C99.682 199.092 101.356 201.099 101.356 204.199ZM99.245 204.199C99.245 202.174 98.198 200.842 96.601 200.842C95.032 200.842 93.977 202.202 93.977 204.199C93.977 206.215 95.032 207.565 96.601 207.565C98.201 207.565 99.245 206.243 99.245 204.199Z" fill="white"/>
<path id="Path 65" d="M108.633 205.379C108.785 206.74 110.107 207.633 111.913 207.633C113.644 207.633 114.889 206.74 114.889 205.513C114.889 204.448 114.138 203.813 112.36 203.373L110.582 202.945C108.062 202.336 106.893 201.158 106.893 199.245C106.893 196.877 108.956 195.251 111.886 195.251C114.786 195.251 116.773 196.877 116.84 199.245H114.767C114.643 197.876 113.511 197.045 111.857 197.045C110.203 197.045 109.071 197.881 109.071 199.099C109.071 200.069 109.794 200.64 111.563 201.077L113.075 201.448C115.89 202.114 117.06 203.248 117.06 205.248C117.06 207.815 115.015 209.423 111.76 209.423C108.717 209.423 106.66 207.853 106.53 205.371L108.633 205.379Z" fill="white"/>
<path id="Path 66" d="M121.49 196.829V199.197H123.39V200.823H121.49V206.338C121.49 207.195 121.871 207.594 122.707 207.594C122.933 207.59 123.158 207.574 123.382 207.546V209.162C123.006 209.232 122.624 209.264 122.241 209.257C120.216 209.257 119.426 208.496 119.426 206.557V200.823H117.973V199.196H119.428V196.829H121.49Z" fill="white"/>
<path id="Path 67" d="M124.495 204.199C124.495 201.051 126.349 199.073 129.24 199.073C132.131 199.073 133.986 201.051 133.986 204.199C133.986 207.347 132.15 209.325 129.24 209.325C126.33 209.325 124.495 207.355 124.495 204.199ZM131.895 204.199C131.895 202.04 130.905 200.765 129.242 200.765C127.579 200.765 126.59 202.049 126.59 204.199C126.59 206.367 127.578 207.632 129.242 207.632C130.906 207.632 131.893 206.367 131.893 204.199H131.895Z" fill="white"/>
<path id="Path 68" d="M135.678 199.197H137.637V200.897H137.685C137.818 200.365 138.129 199.895 138.567 199.566C139.006 199.237 139.544 199.069 140.091 199.09C140.327 199.089 140.561 199.115 140.791 199.167V201.088C140.492 200.997 140.181 200.955 139.868 200.964C139.57 200.952 139.273 201.004 138.997 201.118C138.721 201.231 138.473 201.403 138.269 201.622C138.066 201.84 137.912 202.1 137.819 202.384C137.726 202.667 137.695 202.967 137.728 203.264V209.198H135.678V199.197Z" fill="white"/>
<path id="Path 69" d="M150.261 206.262C149.985 208.078 148.216 209.324 145.953 209.324C143.043 209.324 141.236 207.374 141.236 204.246C141.236 201.118 143.052 199.073 145.866 199.073C148.634 199.073 150.374 200.973 150.374 204.008V204.708H143.31V204.832C143.277 205.2 143.323 205.571 143.445 205.92C143.567 206.269 143.761 206.588 144.016 206.856C144.27 207.124 144.579 207.335 144.921 207.475C145.263 207.614 145.631 207.679 146.001 207.666C146.486 207.711 146.973 207.599 147.389 207.346C147.805 207.092 148.129 206.711 148.311 206.259L150.261 206.262ZM143.32 203.276H148.32C148.338 202.945 148.288 202.614 148.172 202.303C148.057 201.992 147.878 201.709 147.648 201.47C147.417 201.232 147.14 201.044 146.833 200.918C146.527 200.791 146.197 200.73 145.866 200.737C145.532 200.735 145.2 200.8 144.891 200.926C144.581 201.053 144.3 201.24 144.064 201.476C143.827 201.712 143.639 201.993 143.511 202.302C143.383 202.611 143.319 202.942 143.32 203.276Z" fill="white"/>
</g>
</g>
</g>
<g id="&#60;Group&#62;_4">
<g id="Group 95">
<path id="Path 70" d="M71.192 184.894C71.6223 184.863 72.054 184.929 72.4561 185.085C72.8581 185.242 73.2204 185.485 73.5169 185.799C73.8134 186.112 74.0367 186.487 74.1707 186.897C74.3048 187.307 74.3462 187.742 74.292 188.17C74.292 190.276 73.154 191.487 71.192 191.487H68.811V184.894H71.192ZM69.835 190.555H71.078C71.3856 190.573 71.6934 190.523 71.979 190.407C72.2646 190.291 72.5208 190.113 72.729 189.886C72.9373 189.659 73.0922 189.389 73.1827 189.094C73.2732 188.8 73.2969 188.489 73.252 188.184C73.2938 187.88 73.2679 187.571 73.1761 187.278C73.0843 186.986 72.929 186.717 72.7212 186.492C72.5134 186.267 72.2583 186.09 71.9742 185.975C71.6902 185.86 71.3841 185.809 71.078 185.826H69.835V190.555Z" fill="white"/>
<path id="Path 71" d="M75.4519 188.997C75.421 188.67 75.4586 188.34 75.5625 188.029C75.6663 187.718 75.8341 187.431 76.055 187.189C76.2759 186.946 76.5451 186.752 76.8453 186.619C77.1455 186.486 77.4702 186.418 77.7984 186.418C78.1267 186.418 78.4513 186.486 78.7516 186.619C79.0518 186.752 79.321 186.946 79.5419 187.189C79.7628 187.431 79.9305 187.718 80.0344 188.029C80.1382 188.34 80.1759 188.67 80.1449 188.997C80.1774 189.325 80.1409 189.655 80.0378 189.968C79.9346 190.281 79.7671 190.568 79.5461 190.813C79.325 191.057 79.0553 191.252 78.7543 191.385C78.4533 191.519 78.1277 191.588 77.7984 191.588C77.4692 191.588 77.1435 191.519 76.8425 191.385C76.5415 191.252 76.2718 191.057 76.0508 190.813C75.8297 190.568 75.6622 190.281 75.5591 189.968C75.456 189.655 75.4194 189.325 75.4519 188.997ZM79.1349 188.997C79.1349 187.918 78.6499 187.288 77.7999 187.288C76.9499 187.288 76.4699 187.918 76.4699 188.997C76.4699 190.076 76.9499 190.71 77.8039 190.71C78.6579 190.71 79.1349 190.079 79.1349 188.997Z" fill="white"/>
<path id="Path 72" d="M86.384 191.488H85.364L84.336 187.823H84.258L83.234 191.488H82.225L80.853 186.512H81.853L82.744 190.312H82.817L83.84 186.512H84.784L85.807 190.312H85.884L86.771 186.512H87.753L86.384 191.488Z" fill="white"/>
<path id="Path 73" d="M88.9028 186.507H89.8488V187.297H89.9218C90.0465 187.013 90.2565 186.775 90.5227 186.616C90.7888 186.458 91.0979 186.386 91.4068 186.411C91.649 186.393 91.8921 186.429 92.1182 186.518C92.3443 186.606 92.5476 186.744 92.713 186.922C92.8784 187.1 93.0017 187.313 93.0736 187.545C93.1456 187.777 93.1645 188.022 93.1288 188.262V191.487H92.1488V188.513C92.1488 187.713 91.8018 187.313 91.0748 187.313C90.9104 187.305 90.7463 187.333 90.5937 187.395C90.4412 187.456 90.3037 187.55 90.1909 187.67C90.078 187.79 89.9924 187.933 89.9399 188.089C89.8875 188.245 89.8693 188.41 89.8868 188.574V191.487H88.9048L88.9028 186.507Z" fill="white"/>
<path id="Path 74" d="M94.6929 184.569H95.6749V191.487H94.6929V184.569Z" fill="white"/>
<path id="Path 75" d="M97.0398 188.997C97.0089 188.67 97.0465 188.34 97.1504 188.029C97.2542 187.718 97.422 187.431 97.6429 187.189C97.8638 186.946 98.133 186.752 98.4332 186.619C98.7334 186.486 99.0581 186.418 99.3863 186.418C99.7146 186.418 100.039 186.486 100.339 186.619C100.64 186.752 100.909 186.946 101.13 187.189C101.351 187.431 101.518 187.718 101.622 188.029C101.726 188.34 101.764 188.67 101.733 188.997C101.765 189.325 101.729 189.655 101.626 189.968C101.523 190.281 101.355 190.568 101.134 190.813C100.913 191.057 100.643 191.252 100.342 191.385C100.041 191.519 99.7156 191.588 99.3863 191.588C99.057 191.588 98.7314 191.519 98.4304 191.385C98.1294 191.252 97.8597 191.057 97.6387 190.813C97.4176 190.568 97.2501 190.281 97.147 189.968C97.0438 189.655 97.0073 189.325 97.0398 188.997ZM100.723 188.997C100.723 187.918 100.238 187.288 99.3878 187.288C98.5378 187.288 98.0538 187.919 98.0538 188.997C98.0538 190.075 98.5338 190.71 99.3878 190.71C100.242 190.71 100.721 190.079 100.721 188.997H100.723Z" fill="white"/>
<path id="Path 76" d="M102.766 190.079C102.766 189.179 103.433 188.667 104.617 188.594L105.965 188.516V188.087C105.965 187.561 105.618 187.265 104.946 187.265C104.398 187.265 104.018 187.465 103.909 187.818H102.958C103.058 186.963 103.858 186.418 104.991 186.418C106.238 186.418 106.942 187.039 106.942 188.09V191.49H105.997V190.79H105.919C105.761 191.041 105.54 191.245 105.277 191.383C105.015 191.52 104.72 191.585 104.424 191.571C104.215 191.593 104.003 191.571 103.803 191.506C103.603 191.441 103.419 191.335 103.263 191.194C103.106 191.054 102.981 190.882 102.896 190.689C102.81 190.497 102.766 190.289 102.766 190.079ZM105.966 189.654V189.238L104.751 189.316C104.066 189.362 103.751 189.595 103.751 190.034C103.751 190.473 104.139 190.742 104.674 190.742C104.831 190.758 104.989 190.743 105.14 190.697C105.291 190.65 105.431 190.574 105.551 190.473C105.672 190.371 105.771 190.246 105.842 190.105C105.913 189.965 105.956 189.811 105.966 189.654Z" fill="white"/>
<path id="Path 77" d="M108.234 188.997C108.234 187.425 109.042 186.429 110.299 186.429C110.61 186.415 110.919 186.489 111.189 186.644C111.459 186.798 111.68 187.026 111.825 187.302H111.898V184.569H112.88V191.487H111.939V190.701H111.861C111.704 190.974 111.476 191.2 111.2 191.353C110.925 191.506 110.613 191.581 110.298 191.569C109.034 191.569 108.234 190.573 108.234 188.997ZM109.248 188.997C109.248 190.052 109.748 190.687 110.577 190.687C111.406 190.687 111.916 190.043 111.916 189.001C111.916 187.959 111.399 187.311 110.577 187.311C109.755 187.311 109.248 187.95 109.248 188.997Z" fill="white"/>
<path id="Path 78" d="M116.943 188.997C116.912 188.67 116.95 188.34 117.054 188.029C117.158 187.718 117.325 187.431 117.546 187.189C117.767 186.946 118.036 186.752 118.337 186.619C118.637 186.486 118.961 186.418 119.29 186.418C119.618 186.418 119.943 186.486 120.243 186.619C120.543 186.752 120.812 186.946 121.033 187.189C121.254 187.431 121.422 187.718 121.526 188.029C121.629 188.34 121.667 188.67 121.636 188.997C121.669 189.325 121.632 189.655 121.529 189.968C121.426 190.281 121.258 190.568 121.037 190.813C120.816 191.057 120.547 191.252 120.246 191.385C119.945 191.519 119.619 191.588 119.29 191.588C118.96 191.588 118.635 191.519 118.334 191.385C118.033 191.252 117.763 191.057 117.542 190.813C117.321 190.568 117.153 190.281 117.05 189.968C116.947 189.655 116.911 189.325 116.943 188.997ZM120.626 188.997C120.626 187.918 120.141 187.288 119.291 187.288C118.441 187.288 117.957 187.919 117.957 188.997C117.957 190.075 118.437 190.71 119.291 190.71C120.145 190.71 120.626 190.079 120.626 188.997Z" fill="white"/>
<path id="Path 79" d="M122.953 186.507H123.898V187.297H123.971C124.096 187.013 124.306 186.775 124.572 186.616C124.838 186.457 125.147 186.386 125.456 186.411C125.699 186.392 125.943 186.427 126.171 186.516C126.398 186.604 126.602 186.743 126.768 186.921C126.934 187.099 127.058 187.313 127.13 187.546C127.202 187.779 127.221 188.025 127.184 188.266V191.487H126.202V188.513C126.202 187.713 125.855 187.313 125.128 187.313C124.964 187.305 124.8 187.333 124.647 187.395C124.494 187.456 124.357 187.55 124.244 187.67C124.131 187.79 124.046 187.933 123.993 188.089C123.941 188.245 123.923 188.41 123.94 188.574V191.487H122.958L122.953 186.507Z" fill="white"/>
<path id="Path 80" d="M132.728 185.273V186.534H133.806V187.361H132.728V189.92C132.728 190.441 132.943 190.669 133.428 190.669C133.553 190.668 133.678 190.661 133.802 190.646V191.464C133.626 191.495 133.447 191.512 133.268 191.514C132.176 191.514 131.741 191.13 131.741 190.171V187.361H130.951V186.534H131.741V185.273H132.728Z" fill="white"/>
<path id="Path 81" d="M135.143 184.569H136.116V187.311H136.194C136.325 187.024 136.54 186.785 136.812 186.626C137.083 186.466 137.397 186.394 137.711 186.42C137.952 186.407 138.193 186.447 138.416 186.537C138.64 186.628 138.841 186.767 139.004 186.944C139.168 187.121 139.291 187.332 139.363 187.562C139.436 187.793 139.457 188.036 139.425 188.275V191.487H138.443V188.517C138.443 187.722 138.073 187.317 137.379 187.317C137.21 187.303 137.041 187.326 136.882 187.385C136.723 187.443 136.579 187.536 136.459 187.656C136.34 187.776 136.248 187.921 136.191 188.08C136.133 188.239 136.111 188.409 136.126 188.578V191.484H135.143V184.569Z" fill="white"/>
<path id="Path 82" d="M145.154 190.143C145.02 190.598 144.731 190.991 144.337 191.254C143.943 191.517 143.469 191.633 142.998 191.582C142.67 191.591 142.344 191.528 142.043 191.398C141.742 191.269 141.472 191.075 141.253 190.831C141.034 190.586 140.871 190.297 140.775 189.983C140.68 189.67 140.653 189.339 140.698 189.014C140.654 188.688 140.681 188.357 140.777 188.042C140.872 187.727 141.034 187.437 141.252 187.19C141.469 186.944 141.737 186.747 142.037 186.613C142.338 186.479 142.663 186.411 142.992 186.414C144.376 186.414 145.212 187.36 145.212 188.922V189.265H141.699V189.32C141.684 189.502 141.707 189.686 141.766 189.859C141.826 190.033 141.922 190.191 142.046 190.325C142.171 190.46 142.322 190.566 142.491 190.638C142.659 190.711 142.841 190.747 143.024 190.745C143.259 190.773 143.496 190.732 143.707 190.625C143.918 190.518 144.092 190.351 144.208 190.145L145.154 190.143ZM141.7 188.543H144.213C144.225 188.376 144.203 188.208 144.146 188.05C144.09 187.893 144.002 187.748 143.886 187.627C143.771 187.505 143.631 187.41 143.477 187.345C143.322 187.281 143.155 187.25 142.988 187.254C142.818 187.252 142.65 187.284 142.492 187.348C142.335 187.412 142.192 187.507 142.072 187.627C141.952 187.747 141.857 187.89 141.793 188.047C141.729 188.205 141.698 188.373 141.7 188.543Z" fill="white"/>
</g>
</g>
</g>
<g id="IDP_apps_apple">
<path id="Rectangle 292" d="M174 10.0449H14V170.045H174V10.0449Z" fill="white"/>
<path id="Rectangle 293" d="M28 19.0449H23V24.0449H28V19.0449Z" fill="black"/>
<path id="Rectangle 294" d="M32 19.0449H28V24.0449H32V19.0449Z" fill="black"/>
<path id="Rectangle 295" d="M36 19.0449H32V24.0449H36V19.0449Z" fill="black"/>
<path id="Rectangle 296" d="M40 19.0449H36V24.0449H40V19.0449Z" fill="black"/>
<path id="Rectangle 297" d="M45 19.0449H40V24.0449H45V19.0449Z" fill="black"/>
<path id="Rectangle 298" d="M50 19.0449H45V24.0449H50V19.0449Z" fill="black"/>
<path id="Rectangle 299" d="M54 19.0449H50V24.0449H54V19.0449Z" fill="black"/>
<path id="Rectangle 300" d="M70 19.0449H66V24.0449H70V19.0449Z" fill="black"/>
<path id="Rectangle 301" d="M79 19.0449H74V24.0449H79V19.0449Z" fill="black"/>
<path id="Rectangle 302" d="M82 19.0449H79V24.0449H82V19.0449Z" fill="black"/>
<path id="Rectangle 303" d="M90 19.0449H87V24.0449H90V19.0449Z" fill="black"/>
<path id="Rectangle 304" d="M101 19.0449H98V24.0449H101V19.0449Z" fill="black"/>
<path id="Rectangle 305" d="M106 19.0449H101V24.0449H106V19.0449Z" fill="black"/>
<path id="Rectangle 306" d="M109 19.0449H106V24.0449H109V19.0449Z" fill="black"/>
<path id="Rectangle 307" d="M114 19.0449H109V24.0449H114V19.0449Z" fill="black"/>
<path id="Rectangle 308" d="M118 19.0449H114V24.0449H118V19.0449Z" fill="black"/>
<path id="Rectangle 309" d="M122 19.0449H118V24.0449H122V19.0449Z" fill="black"/>
<path id="Rectangle 310" d="M126 19.0449H122V24.0449H126V19.0449Z" fill="black"/>
<path id="Rectangle 311" d="M138 19.0449H134V24.0449H138V19.0449Z" fill="black"/>
<path id="Rectangle 312" d="M143 19.0449H138V24.0449H143V19.0449Z" fill="black"/>
<path id="Rectangle 313" d="M148 19.0449H143V24.0449H148V19.0449Z" fill="black"/>
<path id="Rectangle 314" d="M152 19.0449H148V24.0449H152V19.0449Z" fill="black"/>
<path id="Rectangle 315" d="M156 19.0449H152V24.0449H156V19.0449Z" fill="black"/>
<path id="Rectangle 316" d="M160 19.0449H156V24.0449H160V19.0449Z" fill="black"/>
<path id="Rectangle 317" d="M165 19.0449H160V24.0449H165V19.0449Z" fill="black"/>
<path id="Rectangle 318" d="M28 24.0449H23V28.0449H28V24.0449Z" fill="black"/>
<path id="Rectangle 319" d="M54 24.0449H50V28.0449H54V24.0449Z" fill="black"/>
<path id="Rectangle 320" d="M62 24.0449H58V28.0449H62V24.0449Z" fill="black"/>
<path id="Rectangle 321" d="M70 24.0449H66V28.0449H70V24.0449Z" fill="black"/>
<path id="Rectangle 322" d="M82 24.0449H79V28.0449H82V24.0449Z" fill="black"/>
<path id="Rectangle 323" d="M87 24.0449H82V28.0449H87V24.0449Z" fill="black"/>
<path id="Rectangle 324" d="M90 24.0449H87V28.0449H90V24.0449Z" fill="black"/>
<path id="Rectangle 325" d="M98 24.0449H90V28.0449H98V24.0449Z" fill="black"/>
<path id="Rectangle 326" d="M101 24.0449H98V28.0449H101V24.0449Z" fill="black"/>
<path id="Rectangle 327" d="M118 24.0449H114V28.0449H118V24.0449Z" fill="black"/>
<path id="Rectangle 328" d="M138 24.0449H134V28.0449H138V24.0449Z" fill="black"/>
<path id="Rectangle 329" d="M165 24.0449H160V28.0449H165V24.0449Z" fill="black"/>
<path id="Rectangle 330" d="M28 28.0449H23V32.0449H28V28.0449Z" fill="black"/>
<path id="Rectangle 331" d="M36 28.0449H32V32.0449H36V28.0449Z" fill="black"/>
<path id="Rectangle 332" d="M40 28.0449H36V32.0449H40V28.0449Z" fill="black"/>
<path id="Rectangle 333" d="M45 28.0449H40V32.0449H45V28.0449Z" fill="black"/>
<path id="Rectangle 334" d="M54 28.0449H50V32.0449H54V28.0449Z" fill="black"/>
<path id="Rectangle 335" d="M79 28.0449H74V32.0449H79V28.0449Z" fill="black"/>
<path id="Rectangle 336" d="M82 28.0449H79V32.0449H82V28.0449Z" fill="black"/>
<path id="Rectangle 337" d="M90 28.0449H87V32.0449H90V28.0449Z" fill="black"/>
<path id="Rectangle 338" d="M98 28.0449H90V32.0449H98V28.0449Z" fill="black"/>
<path id="Rectangle 339" d="M109 28.0449H106V32.0449H109V28.0449Z" fill="black"/>
<path id="Rectangle 340" d="M118 28.0449H114V32.0449H118V28.0449Z" fill="black"/>
<path id="Rectangle 341" d="M130 28.0449H126V32.0449H130V28.0449Z" fill="black"/>
<path id="Rectangle 342" d="M138 28.0449H134V32.0449H138V28.0449Z" fill="black"/>
<path id="Rectangle 343" d="M148 28.0449H143V32.0449H148V28.0449Z" fill="black"/>
<path id="Rectangle 344" d="M152 28.0449H148V32.0449H152V28.0449Z" fill="black"/>
<path id="Rectangle 345" d="M156 28.0449H152V32.0449H156V28.0449Z" fill="black"/>
<path id="Rectangle 346" d="M165 28.0449H160V32.0449H165V28.0449Z" fill="black"/>
<path id="Rectangle 347" d="M28 32.0449H23V36.0449H28V32.0449Z" fill="black"/>
<path id="Rectangle 348" d="M36 32.0449H32V36.0449H36V32.0449Z" fill="black"/>
<path id="Rectangle 349" d="M40 32.0449H36V36.0449H40V32.0449Z" fill="black"/>
<path id="Rectangle 350" d="M45 32.0449H40V36.0449H45V32.0449Z" fill="black"/>
<path id="Rectangle 351" d="M54 32.0449H50V36.0449H54V32.0449Z" fill="black"/>
<path id="Rectangle 352" d="M62 32.0449H58V36.0449H62V32.0449Z" fill="black"/>
<path id="Rectangle 353" d="M66 32.0449H62V36.0449H66V32.0449Z" fill="black"/>
<path id="Rectangle 354" d="M70 32.0449H66V36.0449H70V32.0449Z" fill="black"/>
<path id="Rectangle 355" d="M79 32.0449H74V36.0449H79V32.0449Z" fill="black"/>
<path id="Rectangle 356" d="M87 32.0449H82V36.0449H87V32.0449Z" fill="black"/>
<path id="Rectangle 357" d="M90 32.0449H87V36.0449H90V32.0449Z" fill="black"/>
<path id="Rectangle 358" d="M98 32.0449H90V36.0449H98V32.0449Z" fill="black"/>
<path id="Rectangle 359" d="M101 32.0449H98V36.0449H101V32.0449Z" fill="black"/>
<path id="Rectangle 360" d="M114 32.0449H109V36.0449H114V32.0449Z" fill="black"/>
<path id="Rectangle 361" d="M122 32.0449H118V36.0449H122V32.0449Z" fill="black"/>
<path id="Rectangle 362" d="M130 32.0449H126V36.0449H130V32.0449Z" fill="black"/>
<path id="Rectangle 363" d="M138 32.0449H134V36.0449H138V32.0449Z" fill="black"/>
<path id="Rectangle 364" d="M148 32.0449H143V36.0449H148V32.0449Z" fill="black"/>
<path id="Rectangle 365" d="M152 32.0449H148V36.0449H152V32.0449Z" fill="black"/>
<path id="Rectangle 366" d="M156 32.0449H152V36.0449H156V32.0449Z" fill="black"/>
<path id="Rectangle 367" d="M165 32.0449H160V36.0449H165V32.0449Z" fill="black"/>
<path id="Rectangle 368" d="M28 36.0449H23V41.0449H28V36.0449Z" fill="black"/>
<path id="Rectangle 369" d="M36 36.0449H32V41.0449H36V36.0449Z" fill="black"/>
<path id="Rectangle 370" d="M40 36.0449H36V41.0449H40V36.0449Z" fill="black"/>
<path id="Rectangle 371" d="M45 36.0449H40V41.0449H45V36.0449Z" fill="black"/>
<path id="Rectangle 372" d="M54 36.0449H50V41.0449H54V36.0449Z" fill="black"/>
<path id="Rectangle 373" d="M66 36.0449H62V41.0449H66V36.0449Z" fill="black"/>
<path id="Rectangle 374" d="M106 36.0449H101V41.0449H106V36.0449Z" fill="black"/>
<path id="Rectangle 375" d="M109 36.0449H106V41.0449H109V36.0449Z" fill="black"/>
<path id="Rectangle 376" d="M114 36.0449H109V41.0449H114V36.0449Z" fill="black"/>
<path id="Rectangle 377" d="M118 36.0449H114V41.0449H118V36.0449Z" fill="black"/>
<path id="Rectangle 378" d="M122 36.0449H118V41.0449H122V36.0449Z" fill="black"/>
<path id="Rectangle 379" d="M126 36.0449H122V41.0449H126V36.0449Z" fill="black"/>
<path id="Rectangle 380" d="M138 36.0449H134V41.0449H138V36.0449Z" fill="black"/>
<path id="Rectangle 381" d="M148 36.0449H143V41.0449H148V36.0449Z" fill="black"/>
<path id="Rectangle 382" d="M152 36.0449H148V41.0449H152V36.0449Z" fill="black"/>
<path id="Rectangle 383" d="M156 36.0449H152V41.0449H156V36.0449Z" fill="black"/>
<path id="Rectangle 384" d="M165 36.0449H160V41.0449H165V36.0449Z" fill="black"/>
<path id="Rectangle 385" d="M28 41.0449H23V46.0449H28V41.0449Z" fill="black"/>
<path id="Rectangle 386" d="M54 41.0449H50V46.0449H54V41.0449Z" fill="black"/>
<path id="Rectangle 387" d="M62 41.0449H58V46.0449H62V41.0449Z" fill="black"/>
<path id="Rectangle 388" d="M66 41.0449H62V46.0449H66V41.0449Z" fill="black"/>
<path id="Rectangle 389" d="M74 41.0449H70V46.0449H74V41.0449Z" fill="black"/>
<path id="Rectangle 390" d="M79 41.0449H74V46.0449H79V41.0449Z" fill="black"/>
<path id="Rectangle 391" d="M90 41.0449H87V46.0449H90V41.0449Z" fill="black"/>
<path id="Rectangle 392" d="M98 41.0449H90V46.0449H98V41.0449Z" fill="black"/>
<path id="Rectangle 393" d="M106 41.0449H101V46.0449H106V41.0449Z" fill="black"/>
<path id="Rectangle 394" d="M118 41.0449H114V46.0449H118V41.0449Z" fill="black"/>
<path id="Rectangle 395" d="M138 41.0449H134V46.0449H138V41.0449Z" fill="black"/>
<path id="Rectangle 396" d="M165 41.0449H160V46.0449H165V41.0449Z" fill="black"/>
<path id="Rectangle 397" d="M28 46.0449H23V50.0449H28V46.0449Z" fill="black"/>
<path id="Rectangle 398" d="M32 46.0449H28V50.0449H32V46.0449Z" fill="black"/>
<path id="Rectangle 399" d="M36 46.0449H32V50.0449H36V46.0449Z" fill="black"/>
<path id="Rectangle 400" d="M40 46.0449H36V50.0449H40V46.0449Z" fill="black"/>
<path id="Rectangle 401" d="M45 46.0449H40V50.0449H45V46.0449Z" fill="black"/>
<path id="Rectangle 402" d="M50 46.0449H45V50.0449H50V46.0449Z" fill="black"/>
<path id="Rectangle 403" d="M54 46.0449H50V50.0449H54V46.0449Z" fill="black"/>
<path id="Rectangle 404" d="M62 46.0449H58V50.0449H62V46.0449Z" fill="black"/>
<path id="Rectangle 405" d="M70 46.0449H66V50.0449H70V46.0449Z" fill="black"/>
<path id="Rectangle 406" d="M79 46.0449H74V50.0449H79V46.0449Z" fill="black"/>
<path id="Rectangle 407" d="M87 46.0449H82V50.0449H87V46.0449Z" fill="black"/>
<path id="Rectangle 408" d="M98 46.0449H90V50.0449H98V46.0449Z" fill="black"/>
<path id="Rectangle 409" d="M106 46.0449H101V50.0449H106V46.0449Z" fill="black"/>
<path id="Rectangle 410" d="M114 46.0449H109V50.0449H114V46.0449Z" fill="black"/>
<path id="Rectangle 411" d="M122 46.0449H118V50.0449H122V46.0449Z" fill="black"/>
<path id="Rectangle 412" d="M130 46.0449H126V50.0449H130V46.0449Z" fill="black"/>
<path id="Rectangle 413" d="M138 46.0449H134V50.0449H138V46.0449Z" fill="black"/>
<path id="Rectangle 414" d="M143 46.0449H138V50.0449H143V46.0449Z" fill="black"/>
<path id="Rectangle 415" d="M148 46.0449H143V50.0449H148V46.0449Z" fill="black"/>
<path id="Rectangle 416" d="M152 46.0449H148V50.0449H152V46.0449Z" fill="black"/>
<path id="Rectangle 417" d="M156 46.0449H152V50.0449H156V46.0449Z" fill="black"/>
<path id="Rectangle 418" d="M160 46.0449H156V50.0449H160V46.0449Z" fill="black"/>
<path id="Rectangle 419" d="M165 46.0449H160V50.0449H165V46.0449Z" fill="black"/>
<path id="Rectangle 420" d="M66 50.0449H62V54.0449H66V50.0449Z" fill="black"/>
<path id="Rectangle 421" d="M70 50.0449H66V54.0449H70V50.0449Z" fill="black"/>
<path id="Rectangle 422" d="M74 50.0449H70V54.0449H74V50.0449Z" fill="black"/>
<path id="Rectangle 423" d="M87 50.0449H82V54.0449H87V50.0449Z" fill="black"/>
<path id="Rectangle 424" d="M109 50.0449H106V54.0449H109V50.0449Z" fill="black"/>
<path id="Rectangle 425" d="M118 50.0449H114V54.0449H118V50.0449Z" fill="black"/>
<path id="Rectangle 426" d="M126 50.0449H122V54.0449H126V50.0449Z" fill="black"/>
<path id="Rectangle 427" d="M28 54.0449H23V58.0449H28V54.0449Z" fill="black"/>
<path id="Rectangle 428" d="M32 54.0449H28V58.0449H32V54.0449Z" fill="black"/>
<path id="Rectangle 429" d="M36 54.0449H32V58.0449H36V54.0449Z" fill="black"/>
<path id="Rectangle 430" d="M40 54.0449H36V58.0449H40V54.0449Z" fill="black"/>
<path id="Rectangle 431" d="M45 54.0449H40V58.0449H45V54.0449Z" fill="black"/>
<path id="Rectangle 432" d="M54 54.0449H50V58.0449H54V54.0449Z" fill="black"/>
<path id="Rectangle 433" d="M58 54.0449H54V58.0449H58V54.0449Z" fill="black"/>
<path id="Rectangle 434" d="M62 54.0449H58V58.0449H62V54.0449Z" fill="black"/>
<path id="Rectangle 435" d="M66 54.0449H62V58.0449H66V54.0449Z" fill="black"/>
<path id="Rectangle 436" d="M74 54.0449H70V58.0449H74V54.0449Z" fill="black"/>
<path id="Rectangle 437" d="M90 54.0449H87V58.0449H90V54.0449Z" fill="black"/>
<path id="Rectangle 438" d="M98 54.0449H90V58.0449H98V54.0449Z" fill="black"/>
<path id="Rectangle 439" d="M101 54.0449H98V58.0449H101V54.0449Z" fill="black"/>
<path id="Rectangle 440" d="M126 54.0449H122V58.0449H126V54.0449Z" fill="black"/>
<path id="Rectangle 441" d="M130 54.0449H126V58.0449H130V54.0449Z" fill="black"/>
<path id="Rectangle 442" d="M134 54.0449H130V58.0449H134V54.0449Z" fill="black"/>
<path id="Rectangle 443" d="M143 54.0449H138V58.0449H143V54.0449Z" fill="black"/>
<path id="Rectangle 444" d="M152 54.0449H148V58.0449H152V54.0449Z" fill="black"/>
<path id="Rectangle 445" d="M160 54.0449H156V58.0449H160V54.0449Z" fill="black"/>
<path id="Rectangle 446" d="M28 58.0449H23V62.0449H28V58.0449Z" fill="black"/>
<path id="Rectangle 447" d="M36 58.0449H32V62.0449H36V58.0449Z" fill="black"/>
<path id="Rectangle 448" d="M40 58.0449H36V62.0449H40V58.0449Z" fill="black"/>
<path id="Rectangle 449" d="M50 58.0449H45V62.0449H50V58.0449Z" fill="black"/>
<path id="Rectangle 450" d="M62 58.0449H58V62.0449H62V58.0449Z" fill="black"/>
<path id="Rectangle 451" d="M70 58.0449H66V62.0449H70V58.0449Z" fill="black"/>
<path id="Rectangle 452" d="M79 58.0449H74V62.0449H79V58.0449Z" fill="black"/>
<path id="Rectangle 453" d="M82 58.0449H79V62.0449H82V58.0449Z" fill="black"/>
<path id="Rectangle 454" d="M87 58.0449H82V62.0449H87V58.0449Z" fill="black"/>
<path id="Rectangle 455" d="M106 58.0449H101V62.0449H106V58.0449Z" fill="black"/>
<path id="Rectangle 456" d="M109 58.0449H106V62.0449H109V58.0449Z" fill="black"/>
<path id="Rectangle 457" d="M114 58.0449H109V62.0449H114V58.0449Z" fill="black"/>
<path id="Rectangle 458" d="M126 58.0449H122V62.0449H126V58.0449Z" fill="black"/>
<path id="Rectangle 459" d="M130 58.0449H126V62.0449H130V58.0449Z" fill="black"/>
<path id="Rectangle 460" d="M134 58.0449H130V62.0449H134V58.0449Z" fill="black"/>
<path id="Rectangle 461" d="M138 58.0449H134V62.0449H138V58.0449Z" fill="black"/>
<path id="Rectangle 462" d="M156 58.0449H152V62.0449H156V58.0449Z" fill="black"/>
<path id="Rectangle 463" d="M160 58.0449H156V62.0449H160V58.0449Z" fill="black"/>
<path id="Rectangle 464" d="M165 58.0449H160V62.0449H165V58.0449Z" fill="black"/>
<path id="Rectangle 465" d="M28 62.0449H23V66.0449H28V62.0449Z" fill="black"/>
<path id="Rectangle 466" d="M32 62.0449H28V66.0449H32V62.0449Z" fill="black"/>
<path id="Rectangle 467" d="M36 62.0449H32V66.0449H36V62.0449Z" fill="black"/>
<path id="Rectangle 468" d="M40 62.0449H36V66.0449H40V62.0449Z" fill="black"/>
<path id="Rectangle 469" d="M45 62.0449H40V66.0449H45V62.0449Z" fill="black"/>
<path id="Rectangle 470" d="M54 62.0449H50V66.0449H54V62.0449Z" fill="black"/>
<path id="Rectangle 471" d="M70 62.0449H66V66.0449H70V62.0449Z" fill="black"/>
<path id="Rectangle 472" d="M82 62.0449H79V66.0449H82V62.0449Z" fill="black"/>
<path id="Rectangle 473" d="M87 62.0449H82V66.0449H87V62.0449Z" fill="black"/>
<path id="Rectangle 474" d="M90 62.0449H87V66.0449H90V62.0449Z" fill="black"/>
<path id="Rectangle 475" d="M114 62.0449H109V66.0449H114V62.0449Z" fill="black"/>
<path id="Rectangle 476" d="M122 62.0449H118V66.0449H122V62.0449Z" fill="black"/>
<path id="Rectangle 477" d="M130 62.0449H126V66.0449H130V62.0449Z" fill="black"/>
<path id="Rectangle 478" d="M143 62.0449H138V66.0449H143V62.0449Z" fill="black"/>
<path id="Rectangle 479" d="M152 62.0449H148V66.0449H152V62.0449Z" fill="black"/>
<path id="Rectangle 480" d="M160 62.0449H156V66.0449H160V62.0449Z" fill="black"/>
<path id="Rectangle 481" d="M28 66.0449H23V70.0449H28V66.0449Z" fill="black"/>
<path id="Rectangle 482" d="M32 66.0449H28V70.0449H32V66.0449Z" fill="black"/>
<path id="Rectangle 483" d="M50 66.0449H45V70.0449H50V66.0449Z" fill="black"/>
<path id="Rectangle 484" d="M79 66.0449H74V70.0449H79V66.0449Z" fill="black"/>
<path id="Rectangle 485" d="M82 66.0449H79V70.0449H82V66.0449Z" fill="black"/>
<path id="Rectangle 486" d="M90 66.0449H87V70.0449H90V66.0449Z" fill="black"/>
<path id="Rectangle 487" d="M106 66.0449H101V70.0449H106V66.0449Z" fill="black"/>
<path id="Rectangle 488" d="M118 66.0449H114V70.0449H118V66.0449Z" fill="black"/>
<path id="Rectangle 489" d="M122 66.0449H118V70.0449H122V66.0449Z" fill="black"/>
<path id="Rectangle 490" d="M126 66.0449H122V70.0449H126V66.0449Z" fill="black"/>
<path id="Rectangle 491" d="M143 66.0449H138V70.0449H143V66.0449Z" fill="black"/>
<path id="Rectangle 492" d="M156 66.0449H152V70.0449H156V66.0449Z" fill="black"/>
<path id="Rectangle 493" d="M45 70.0449H40V75.0449H45V70.0449Z" fill="black"/>
<path id="Rectangle 494" d="M54 70.0449H50V75.0449H54V70.0449Z" fill="black"/>
<path id="Rectangle 495" d="M58 70.0449H54V75.0449H58V70.0449Z" fill="black"/>
<path id="Rectangle 496" d="M66 70.0449H62V75.0449H66V70.0449Z" fill="black"/>
<path id="Rectangle 497" d="M70 70.0449H66V75.0449H70V70.0449Z" fill="black"/>
<path id="Rectangle 498" d="M79 70.0449H74V75.0449H79V70.0449Z" fill="black"/>
<path id="Rectangle 499" d="M87 70.0449H82V75.0449H87V70.0449Z" fill="black"/>
<path id="Rectangle 500" d="M98 70.0449H90V75.0449H98V70.0449Z" fill="black"/>
<path id="Rectangle 501" d="M101 70.0449H98V75.0449H101V70.0449Z" fill="black"/>
<path id="Rectangle 502" d="M106 70.0449H101V75.0449H106V70.0449Z" fill="black"/>
<path id="Rectangle 503" d="M122 70.0449H118V75.0449H122V70.0449Z" fill="black"/>
<path id="Rectangle 504" d="M126 70.0449H122V75.0449H126V70.0449Z" fill="black"/>
<path id="Rectangle 505" d="M130 70.0449H126V75.0449H130V70.0449Z" fill="black"/>
<path id="Rectangle 506" d="M134 70.0449H130V75.0449H134V70.0449Z" fill="black"/>
<path id="Rectangle 507" d="M148 70.0449H143V75.0449H148V70.0449Z" fill="black"/>
<path id="Rectangle 508" d="M152 70.0449H148V75.0449H152V70.0449Z" fill="black"/>
<path id="Rectangle 509" d="M28 75.0449H23V78.0449H28V75.0449Z" fill="black"/>
<path id="Rectangle 510" d="M32 75.0449H28V78.0449H32V75.0449Z" fill="black"/>
<path id="Rectangle 511" d="M45 75.0449H40V78.0449H45V75.0449Z" fill="black"/>
<path id="Rectangle 512" d="M66 75.0449H62V78.0449H66V75.0449Z" fill="black"/>
<path id="Rectangle 513" d="M101 75.0449H98V78.0449H101V75.0449Z" fill="black"/>
<path id="Rectangle 514" d="M106 75.0449H101V78.0449H106V75.0449Z" fill="black"/>
<path id="Rectangle 515" d="M109 75.0449H106V78.0449H109V75.0449Z" fill="black"/>
<path id="Rectangle 516" d="M114 75.0449H109V78.0449H114V75.0449Z" fill="black"/>
<path id="Rectangle 517" d="M126 75.0449H122V78.0449H126V75.0449Z" fill="black"/>
<path id="Rectangle 518" d="M138 75.0449H134V78.0449H138V75.0449Z" fill="black"/>
<path id="Rectangle 519" d="M160 75.0449H156V78.0449H160V75.0449Z" fill="black"/>
<path id="Rectangle 520" d="M165 75.0449H160V78.0449H165V75.0449Z" fill="black"/>
<path id="Rectangle 521" d="M36 78.0449H32V83.0449H36V78.0449Z" fill="black"/>
<path id="Rectangle 522" d="M45 78.0449H40V83.0449H45V78.0449Z" fill="black"/>
<path id="Rectangle 523" d="M50 78.0449H45V83.0449H50V78.0449Z" fill="black"/>
<path id="Rectangle 524" d="M54 78.0449H50V83.0449H54V78.0449Z" fill="black"/>
<path id="Rectangle 525" d="M58 78.0449H54V83.0449H58V78.0449Z" fill="black"/>
<path id="Rectangle 526" d="M62 78.0449H58V83.0449H62V78.0449Z" fill="black"/>
<path id="Rectangle 527" d="M74 78.0449H70V83.0449H74V78.0449Z" fill="black"/>
<path id="Rectangle 528" d="M79 78.0449H74V83.0449H79V78.0449Z" fill="black"/>
<path id="Rectangle 529" d="M90 78.0449H87V83.0449H90V78.0449Z" fill="black"/>
<path id="Rectangle 530" d="M98 78.0449H90V83.0449H98V78.0449Z" fill="black"/>
<path id="Rectangle 531" d="M101 78.0449H98V83.0449H101V78.0449Z" fill="black"/>
<path id="Rectangle 532" d="M114 78.0449H109V83.0449H114V78.0449Z" fill="black"/>
<path id="Rectangle 533" d="M118 78.0449H114V83.0449H118V78.0449Z" fill="black"/>
<path id="Rectangle 534" d="M134 78.0449H130V83.0449H134V78.0449Z" fill="black"/>
<path id="Rectangle 535" d="M138 78.0449H134V83.0449H138V78.0449Z" fill="black"/>
<path id="Rectangle 536" d="M160 78.0449H156V83.0449H160V78.0449Z" fill="black"/>
<path id="Rectangle 537" d="M28 83.0449H23V86.0449H28V83.0449Z" fill="black"/>
<path id="Rectangle 538" d="M36 83.0449H32V86.0449H36V83.0449Z" fill="black"/>
<path id="Rectangle 539" d="M40 83.0449H36V86.0449H40V83.0449Z" fill="black"/>
<path id="Rectangle 540" d="M45 83.0449H40V86.0449H45V83.0449Z" fill="black"/>
<path id="Rectangle 541" d="M50 83.0449H45V86.0449H50V83.0449Z" fill="black"/>
<path id="Rectangle 542" d="M58 83.0449H54V86.0449H58V83.0449Z" fill="black"/>
<path id="Rectangle 543" d="M62 83.0449H58V86.0449H62V83.0449Z" fill="black"/>
<path id="Rectangle 544" d="M66 83.0449H62V86.0449H66V83.0449Z" fill="black"/>
<path id="Rectangle 545" d="M74 83.0449H70V86.0449H74V83.0449Z" fill="black"/>
<path id="Rectangle 546" d="M87 83.0449H82V86.0449H87V83.0449Z" fill="black"/>
<path id="Rectangle 547" d="M90 83.0449H87V86.0449H90V83.0449Z" fill="black"/>
<path id="Rectangle 548" d="M114 83.0449H109V86.0449H114V83.0449Z" fill="black"/>
<path id="Rectangle 549" d="M118 83.0449H114V86.0449H118V83.0449Z" fill="black"/>
<path id="Rectangle 550" d="M122 83.0449H118V86.0449H122V83.0449Z" fill="black"/>
<path id="Rectangle 551" d="M130 83.0449H126V86.0449H130V83.0449Z" fill="black"/>
<path id="Rectangle 552" d="M143 83.0449H138V86.0449H143V83.0449Z" fill="black"/>
<path id="Rectangle 553" d="M156 83.0449H152V86.0449H156V83.0449Z" fill="black"/>
<path id="Rectangle 554" d="M32 86.0449H28V94.0449H32V86.0449Z" fill="black"/>
<path id="Rectangle 555" d="M36 86.0449H32V94.0449H36V86.0449Z" fill="black"/>
<path id="Rectangle 556" d="M45 86.0449H40V94.0449H45V86.0449Z" fill="black"/>
<path id="Rectangle 557" d="M54 86.0449H50V94.0449H54V86.0449Z" fill="black"/>
<path id="Rectangle 558" d="M58 86.0449H54V94.0449H58V86.0449Z" fill="black"/>
<path id="Rectangle 559" d="M62 86.0449H58V94.0449H62V86.0449Z" fill="black"/>
<path id="Rectangle 560" d="M66 86.0449H62V94.0449H66V86.0449Z" fill="black"/>
<path id="Rectangle 561" d="M74 86.0449H70V94.0449H74V86.0449Z" fill="black"/>
<path id="Rectangle 562" d="M98 86.0449H90V94.0449H98V86.0449Z" fill="black"/>
<path id="Rectangle 563" d="M101 86.0449H98V94.0449H101V86.0449Z" fill="black"/>
<path id="Rectangle 564" d="M109 86.0449H106V94.0449H109V86.0449Z" fill="black"/>
<path id="Rectangle 565" d="M122 86.0449H118V94.0449H122V86.0449Z" fill="black"/>
<path id="Rectangle 566" d="M126 86.0449H122V94.0449H126V86.0449Z" fill="black"/>
<path id="Rectangle 567" d="M130 86.0449H126V94.0449H130V86.0449Z" fill="black"/>
<path id="Rectangle 568" d="M134 86.0449H130V94.0449H134V86.0449Z" fill="black"/>
<path id="Rectangle 569" d="M143 86.0449H138V94.0449H143V86.0449Z" fill="black"/>
<path id="Rectangle 570" d="M148 86.0449H143V94.0449H148V86.0449Z" fill="black"/>
<path id="Rectangle 571" d="M160 86.0449H156V94.0449H160V86.0449Z" fill="black"/>
<path id="Rectangle 572" d="M28 94.0449H23V97.0449H28V94.0449Z" fill="black"/>
<path id="Rectangle 573" d="M36 94.0449H32V97.0449H36V94.0449Z" fill="black"/>
<path id="Rectangle 574" d="M40 94.0449H36V97.0449H40V94.0449Z" fill="black"/>
<path id="Rectangle 575" d="M79 94.0449H74V97.0449H79V94.0449Z" fill="black"/>
<path id="Rectangle 576" d="M82 94.0449H79V97.0449H82V94.0449Z" fill="black"/>
<path id="Rectangle 577" d="M87 94.0449H82V97.0449H87V94.0449Z" fill="black"/>
<path id="Rectangle 578" d="M101 94.0449H98V97.0449H101V94.0449Z" fill="black"/>
<path id="Rectangle 579" d="M106 94.0449H101V97.0449H106V94.0449Z" fill="black"/>
<path id="Rectangle 580" d="M109 94.0449H106V97.0449H109V94.0449Z" fill="black"/>
<path id="Rectangle 581" d="M118 94.0449H114V97.0449H118V94.0449Z" fill="black"/>
<path id="Rectangle 582" d="M126 94.0449H122V97.0449H126V94.0449Z" fill="black"/>
<path id="Rectangle 583" d="M138 94.0449H134V97.0449H138V94.0449Z" fill="black"/>
<path id="Rectangle 584" d="M152 94.0449H148V97.0449H152V94.0449Z" fill="black"/>
<path id="Rectangle 585" d="M160 94.0449H156V97.0449H160V94.0449Z" fill="black"/>
<path id="Rectangle 586" d="M165 94.0449H160V97.0449H165V94.0449Z" fill="black"/>
<path id="Rectangle 587" d="M36 97.0449H32V102.045H36V97.0449Z" fill="black"/>
<path id="Rectangle 588" d="M40 97.0449H36V102.045H40V97.0449Z" fill="black"/>
<path id="Rectangle 589" d="M45 97.0449H40V102.045H45V97.0449Z" fill="black"/>
<path id="Rectangle 590" d="M54 97.0449H50V102.045H54V97.0449Z" fill="black"/>
<path id="Rectangle 591" d="M58 97.0449H54V102.045H58V97.0449Z" fill="black"/>
<path id="Rectangle 592" d="M82 97.0449H79V102.045H82V97.0449Z" fill="black"/>
<path id="Rectangle 593" d="M87 97.0449H82V102.045H87V97.0449Z" fill="black"/>
<path id="Rectangle 594" d="M90 97.0449H87V102.045H90V97.0449Z" fill="black"/>
<path id="Rectangle 595" d="M106 97.0449H101V102.045H106V97.0449Z" fill="black"/>
<path id="Rectangle 596" d="M114 97.0449H109V102.045H114V97.0449Z" fill="black"/>
<path id="Rectangle 597" d="M118 97.0449H114V102.045H118V97.0449Z" fill="black"/>
<path id="Rectangle 598" d="M122 97.0449H118V102.045H122V97.0449Z" fill="black"/>
<path id="Rectangle 599" d="M134 97.0449H130V102.045H134V97.0449Z" fill="black"/>
<path id="Rectangle 600" d="M143 97.0449H138V102.045H143V97.0449Z" fill="black"/>
<path id="Rectangle 601" d="M148 97.0449H143V102.045H148V97.0449Z" fill="black"/>
<path id="Rectangle 602" d="M152 97.0449H148V102.045H152V97.0449Z" fill="black"/>
<path id="Rectangle 603" d="M160 97.0449H156V102.045H160V97.0449Z" fill="black"/>
<path id="Rectangle 604" d="M28 102.045H23V105.045H28V102.045Z" fill="black"/>
<path id="Rectangle 605" d="M32 102.045H28V105.045H32V102.045Z" fill="black"/>
<path id="Rectangle 606" d="M40 102.045H36V105.045H40V102.045Z" fill="black"/>
<path id="Rectangle 607" d="M58 102.045H54V105.045H58V102.045Z" fill="black"/>
<path id="Rectangle 608" d="M66 102.045H62V105.045H66V102.045Z" fill="black"/>
<path id="Rectangle 609" d="M70 102.045H66V105.045H70V102.045Z" fill="black"/>
<path id="Rectangle 610" d="M79 102.045H74V105.045H79V102.045Z" fill="black"/>
<path id="Rectangle 611" d="M82 102.045H79V105.045H82V102.045Z" fill="black"/>
<path id="Rectangle 612" d="M90 102.045H87V105.045H90V102.045Z" fill="black"/>
<path id="Rectangle 613" d="M118 102.045H114V105.045H118V102.045Z" fill="black"/>
<path id="Rectangle 614" d="M126 102.045H122V105.045H126V102.045Z" fill="black"/>
<path id="Rectangle 615" d="M134 102.045H130V105.045H134V102.045Z" fill="black"/>
<path id="Rectangle 616" d="M148 102.045H143V105.045H148V102.045Z" fill="black"/>
<path id="Rectangle 617" d="M156 102.045H152V105.045H156V102.045Z" fill="black"/>
<path id="Rectangle 618" d="M45 105.045H40V110.045H45V105.045Z" fill="black"/>
<path id="Rectangle 619" d="M54 105.045H50V110.045H54V105.045Z" fill="black"/>
<path id="Rectangle 620" d="M58 105.045H54V110.045H58V105.045Z" fill="black"/>
<path id="Rectangle 621" d="M66 105.045H62V110.045H66V105.045Z" fill="black"/>
<path id="Rectangle 622" d="M70 105.045H66V110.045H70V105.045Z" fill="black"/>
<path id="Rectangle 623" d="M79 105.045H74V110.045H79V105.045Z" fill="black"/>
<path id="Rectangle 624" d="M87 105.045H82V110.045H87V105.045Z" fill="black"/>
<path id="Rectangle 625" d="M90 105.045H87V110.045H90V105.045Z" fill="black"/>
<path id="Rectangle 626" d="M98 105.045H90V110.045H98V105.045Z" fill="black"/>
<path id="Rectangle 627" d="M101 105.045H98V110.045H101V105.045Z" fill="black"/>
<path id="Rectangle 628" d="M109 105.045H106V110.045H109V105.045Z" fill="black"/>
<path id="Rectangle 629" d="M114 105.045H109V110.045H114V105.045Z" fill="black"/>
<path id="Rectangle 630" d="M122 105.045H118V110.045H122V105.045Z" fill="black"/>
<path id="Rectangle 631" d="M126 105.045H122V110.045H126V105.045Z" fill="black"/>
<path id="Rectangle 632" d="M130 105.045H126V110.045H130V105.045Z" fill="black"/>
<path id="Rectangle 633" d="M143 105.045H138V110.045H143V105.045Z" fill="black"/>
<path id="Rectangle 634" d="M148 105.045H143V110.045H148V105.045Z" fill="black"/>
<path id="Rectangle 635" d="M160 105.045H156V110.045H160V105.045Z" fill="black"/>
<path id="Rectangle 636" d="M28 110.045H23V114.045H28V110.045Z" fill="black"/>
<path id="Rectangle 637" d="M36 110.045H32V114.045H36V110.045Z" fill="black"/>
<path id="Rectangle 638" d="M45 110.045H40V114.045H45V110.045Z" fill="black"/>
<path id="Rectangle 639" d="M58 110.045H54V114.045H58V110.045Z" fill="black"/>
<path id="Rectangle 640" d="M62 110.045H58V114.045H62V110.045Z" fill="black"/>
<path id="Rectangle 641" d="M106 110.045H101V114.045H106V110.045Z" fill="black"/>
<path id="Rectangle 642" d="M109 110.045H106V114.045H109V110.045Z" fill="black"/>
<path id="Rectangle 643" d="M114 110.045H109V114.045H114V110.045Z" fill="black"/>
<path id="Rectangle 644" d="M118 110.045H114V114.045H118V110.045Z" fill="black"/>
<path id="Rectangle 645" d="M122 110.045H118V114.045H122V110.045Z" fill="black"/>
<path id="Rectangle 646" d="M126 110.045H122V114.045H126V110.045Z" fill="black"/>
<path id="Rectangle 647" d="M130 110.045H126V114.045H130V110.045Z" fill="black"/>
<path id="Rectangle 648" d="M138 110.045H134V114.045H138V110.045Z" fill="black"/>
<path id="Rectangle 649" d="M143 110.045H138V114.045H143V110.045Z" fill="black"/>
<path id="Rectangle 650" d="M152 110.045H148V114.045H152V110.045Z" fill="black"/>
<path id="Rectangle 651" d="M160 110.045H156V114.045H160V110.045Z" fill="black"/>
<path id="Rectangle 652" d="M165 110.045H160V114.045H165V110.045Z" fill="black"/>
<path id="Rectangle 653" d="M28 114.045H23V118.045H28V114.045Z" fill="black"/>
<path id="Rectangle 654" d="M36 114.045H32V118.045H36V114.045Z" fill="black"/>
<path id="Rectangle 655" d="M50 114.045H45V118.045H50V114.045Z" fill="black"/>
<path id="Rectangle 656" d="M54 114.045H50V118.045H54V114.045Z" fill="black"/>
<path id="Rectangle 657" d="M58 114.045H54V118.045H58V114.045Z" fill="black"/>
<path id="Rectangle 658" d="M66 114.045H62V118.045H66V114.045Z" fill="black"/>
<path id="Rectangle 659" d="M70 114.045H66V118.045H70V114.045Z" fill="black"/>
<path id="Rectangle 660" d="M74 114.045H70V118.045H74V114.045Z" fill="black"/>
<path id="Rectangle 661" d="M79 114.045H74V118.045H79V114.045Z" fill="black"/>
<path id="Rectangle 662" d="M90 114.045H87V118.045H90V114.045Z" fill="black"/>
<path id="Rectangle 663" d="M118 114.045H114V118.045H118V114.045Z" fill="black"/>
<path id="Rectangle 664" d="M134 114.045H130V118.045H134V114.045Z" fill="black"/>
<path id="Rectangle 665" d="M138 114.045H134V118.045H138V114.045Z" fill="black"/>
<path id="Rectangle 666" d="M148 114.045H143V118.045H148V114.045Z" fill="black"/>
<path id="Rectangle 667" d="M152 114.045H148V118.045H152V114.045Z" fill="black"/>
<path id="Rectangle 668" d="M160 114.045H156V118.045H160V114.045Z" fill="black"/>
<path id="Rectangle 669" d="M28 118.045H23V122.045H28V118.045Z" fill="black"/>
<path id="Rectangle 670" d="M36 118.045H32V122.045H36V118.045Z" fill="black"/>
<path id="Rectangle 671" d="M40 118.045H36V122.045H40V118.045Z" fill="black"/>
<path id="Rectangle 672" d="M62 118.045H58V122.045H62V118.045Z" fill="black"/>
<path id="Rectangle 673" d="M70 118.045H66V122.045H70V118.045Z" fill="black"/>
<path id="Rectangle 674" d="M74 118.045H70V122.045H74V118.045Z" fill="black"/>
<path id="Rectangle 675" d="M87 118.045H82V122.045H87V118.045Z" fill="black"/>
<path id="Rectangle 676" d="M98 118.045H90V122.045H98V118.045Z" fill="black"/>
<path id="Rectangle 677" d="M106 118.045H101V122.045H106V118.045Z" fill="black"/>
<path id="Rectangle 678" d="M114 118.045H109V122.045H114V118.045Z" fill="black"/>
<path id="Rectangle 679" d="M118 118.045H114V122.045H118V118.045Z" fill="black"/>
<path id="Rectangle 680" d="M138 118.045H134V122.045H138V118.045Z" fill="black"/>
<path id="Rectangle 681" d="M143 118.045H138V122.045H143V118.045Z" fill="black"/>
<path id="Rectangle 682" d="M152 118.045H148V122.045H152V118.045Z" fill="black"/>
<path id="Rectangle 683" d="M156 118.045H152V122.045H156V118.045Z" fill="black"/>
<path id="Rectangle 684" d="M28 122.045H23V126.045H28V122.045Z" fill="black"/>
<path id="Rectangle 685" d="M45 122.045H40V126.045H45V122.045Z" fill="black"/>
<path id="Rectangle 686" d="M50 122.045H45V126.045H50V122.045Z" fill="black"/>
<path id="Rectangle 687" d="M54 122.045H50V126.045H54V122.045Z" fill="black"/>
<path id="Rectangle 688" d="M62 122.045H58V126.045H62V122.045Z" fill="black"/>
<path id="Rectangle 689" d="M66 122.045H62V126.045H66V122.045Z" fill="black"/>
<path id="Rectangle 690" d="M70 122.045H66V126.045H70V122.045Z" fill="black"/>
<path id="Rectangle 691" d="M74 122.045H70V126.045H74V122.045Z" fill="black"/>
<path id="Rectangle 692" d="M90 122.045H87V126.045H90V122.045Z" fill="black"/>
<path id="Rectangle 693" d="M98 122.045H90V126.045H98V122.045Z" fill="black"/>
<path id="Rectangle 694" d="M101 122.045H98V126.045H101V122.045Z" fill="black"/>
<path id="Rectangle 695" d="M106 122.045H101V126.045H106V122.045Z" fill="black"/>
<path id="Rectangle 696" d="M126 122.045H122V126.045H126V122.045Z" fill="black"/>
<path id="Rectangle 697" d="M130 122.045H126V126.045H130V122.045Z" fill="black"/>
<path id="Rectangle 698" d="M134 122.045H130V126.045H134V122.045Z" fill="black"/>
<path id="Rectangle 699" d="M138 122.045H134V126.045H138V122.045Z" fill="black"/>
<path id="Rectangle 700" d="M143 122.045H138V126.045H143V122.045Z" fill="black"/>
<path id="Rectangle 701" d="M148 122.045H143V126.045H148V122.045Z" fill="black"/>
<path id="Rectangle 702" d="M165 122.045H160V126.045H165V122.045Z" fill="black"/>
<path id="Rectangle 703" d="M62 126.045H58V130.045H62V126.045Z" fill="black"/>
<path id="Rectangle 704" d="M66 126.045H62V130.045H66V126.045Z" fill="black"/>
<path id="Rectangle 705" d="M70 126.045H66V130.045H70V126.045Z" fill="black"/>
<path id="Rectangle 706" d="M79 126.045H74V130.045H79V126.045Z" fill="black"/>
<path id="Rectangle 707" d="M82 126.045H79V130.045H82V126.045Z" fill="black"/>
<path id="Rectangle 708" d="M87 126.045H82V130.045H87V126.045Z" fill="black"/>
<path id="Rectangle 709" d="M109 126.045H106V130.045H109V126.045Z" fill="black"/>
<path id="Rectangle 710" d="M114 126.045H109V130.045H114V126.045Z" fill="black"/>
<path id="Rectangle 711" d="M130 126.045H126V130.045H130V126.045Z" fill="black"/>
<path id="Rectangle 712" d="M148 126.045H143V130.045H148V126.045Z" fill="black"/>
<path id="Rectangle 713" d="M156 126.045H152V130.045H156V126.045Z" fill="black"/>
<path id="Rectangle 714" d="M165 126.045H160V130.045H165V126.045Z" fill="black"/>
<path id="Rectangle 715" d="M28 130.045H23V134.045H28V130.045Z" fill="black"/>
<path id="Rectangle 716" d="M32 130.045H28V134.045H32V130.045Z" fill="black"/>
<path id="Rectangle 717" d="M36 130.045H32V134.045H36V130.045Z" fill="black"/>
<path id="Rectangle 718" d="M40 130.045H36V134.045H40V130.045Z" fill="black"/>
<path id="Rectangle 719" d="M45 130.045H40V134.045H45V130.045Z" fill="black"/>
<path id="Rectangle 720" d="M50 130.045H45V134.045H50V130.045Z" fill="black"/>
<path id="Rectangle 721" d="M54 130.045H50V134.045H54V130.045Z" fill="black"/>
<path id="Rectangle 722" d="M62 130.045H58V134.045H62V130.045Z" fill="black"/>
<path id="Rectangle 723" d="M66 130.045H62V134.045H66V130.045Z" fill="black"/>
<path id="Rectangle 724" d="M82 130.045H79V134.045H82V130.045Z" fill="black"/>
<path id="Rectangle 725" d="M87 130.045H82V134.045H87V130.045Z" fill="black"/>
<path id="Rectangle 726" d="M90 130.045H87V134.045H90V130.045Z" fill="black"/>
<path id="Rectangle 727" d="M106 130.045H101V134.045H106V130.045Z" fill="black"/>
<path id="Rectangle 728" d="M114 130.045H109V134.045H114V130.045Z" fill="black"/>
<path id="Rectangle 729" d="M118 130.045H114V134.045H118V130.045Z" fill="black"/>
<path id="Rectangle 730" d="M122 130.045H118V134.045H122V130.045Z" fill="black"/>
<path id="Rectangle 731" d="M126 130.045H122V134.045H126V130.045Z" fill="black"/>
<path id="Rectangle 732" d="M130 130.045H126V134.045H130V130.045Z" fill="black"/>
<path id="Rectangle 733" d="M138 130.045H134V134.045H138V130.045Z" fill="black"/>
<path id="Rectangle 734" d="M148 130.045H143V134.045H148V130.045Z" fill="black"/>
<path id="Rectangle 735" d="M152 130.045H148V134.045H152V130.045Z" fill="black"/>
<path id="Rectangle 736" d="M156 130.045H152V134.045H156V130.045Z" fill="black"/>
<path id="Rectangle 737" d="M160 130.045H156V134.045H160V130.045Z" fill="black"/>
<path id="Rectangle 738" d="M28 134.045H23V139.045H28V134.045Z" fill="black"/>
<path id="Rectangle 739" d="M54 134.045H50V139.045H54V134.045Z" fill="black"/>
<path id="Rectangle 740" d="M70 134.045H66V139.045H70V134.045Z" fill="black"/>
<path id="Rectangle 741" d="M79 134.045H74V139.045H79V134.045Z" fill="black"/>
<path id="Rectangle 742" d="M82 134.045H79V139.045H82V134.045Z" fill="black"/>
<path id="Rectangle 743" d="M98 134.045H90V139.045H98V134.045Z" fill="black"/>
<path id="Rectangle 744" d="M114 134.045H109V139.045H114V134.045Z" fill="black"/>
<path id="Rectangle 745" d="M118 134.045H114V139.045H118V134.045Z" fill="black"/>
<path id="Rectangle 746" d="M122 134.045H118V139.045H122V134.045Z" fill="black"/>
<path id="Rectangle 747" d="M126 134.045H122V139.045H126V134.045Z" fill="black"/>
<path id="Rectangle 748" d="M130 134.045H126V139.045H130V134.045Z" fill="black"/>
<path id="Rectangle 749" d="M148 134.045H143V139.045H148V134.045Z" fill="black"/>
<path id="Rectangle 750" d="M152 134.045H148V139.045H152V134.045Z" fill="black"/>
<path id="Rectangle 751" d="M156 134.045H152V139.045H156V134.045Z" fill="black"/>
<path id="Rectangle 752" d="M160 134.045H156V139.045H160V134.045Z" fill="black"/>
<path id="Rectangle 753" d="M165 134.045H160V139.045H165V134.045Z" fill="black"/>
<path id="Rectangle 754" d="M28 139.045H23V144.045H28V139.045Z" fill="black"/>
<path id="Rectangle 755" d="M36 139.045H32V144.045H36V139.045Z" fill="black"/>
<path id="Rectangle 756" d="M40 139.045H36V144.045H40V139.045Z" fill="black"/>
<path id="Rectangle 757" d="M45 139.045H40V144.045H45V139.045Z" fill="black"/>
<path id="Rectangle 758" d="M54 139.045H50V144.045H54V139.045Z" fill="black"/>
<path id="Rectangle 759" d="M62 139.045H58V144.045H62V139.045Z" fill="black"/>
<path id="Rectangle 760" d="M79 139.045H74V144.045H79V139.045Z" fill="black"/>
<path id="Rectangle 761" d="M87 139.045H82V144.045H87V139.045Z" fill="black"/>
<path id="Rectangle 762" d="M90 139.045H87V144.045H90V139.045Z" fill="black"/>
<path id="Rectangle 763" d="M98 139.045H90V144.045H98V139.045Z" fill="black"/>
<path id="Rectangle 764" d="M101 139.045H98V144.045H101V139.045Z" fill="black"/>
<path id="Rectangle 765" d="M106 139.045H101V144.045H106V139.045Z" fill="black"/>
<path id="Rectangle 766" d="M114 139.045H109V144.045H114V139.045Z" fill="black"/>
<path id="Rectangle 767" d="M122 139.045H118V144.045H122V139.045Z" fill="black"/>
<path id="Rectangle 768" d="M130 139.045H126V144.045H130V139.045Z" fill="black"/>
<path id="Rectangle 769" d="M134 139.045H130V144.045H134V139.045Z" fill="black"/>
<path id="Rectangle 770" d="M138 139.045H134V144.045H138V139.045Z" fill="black"/>
<path id="Rectangle 771" d="M143 139.045H138V144.045H143V139.045Z" fill="black"/>
<path id="Rectangle 772" d="M148 139.045H143V144.045H148V139.045Z" fill="black"/>
<path id="Rectangle 773" d="M152 139.045H148V144.045H152V139.045Z" fill="black"/>
<path id="Rectangle 774" d="M165 139.045H160V144.045H165V139.045Z" fill="black"/>
<path id="Rectangle 775" d="M28 144.045H23V148.045H28V144.045Z" fill="black"/>
<path id="Rectangle 776" d="M36 144.045H32V148.045H36V144.045Z" fill="black"/>
<path id="Rectangle 777" d="M40 144.045H36V148.045H40V144.045Z" fill="black"/>
<path id="Rectangle 778" d="M45 144.045H40V148.045H45V144.045Z" fill="black"/>
<path id="Rectangle 779" d="M54 144.045H50V148.045H54V144.045Z" fill="black"/>
<path id="Rectangle 780" d="M62 144.045H58V148.045H62V144.045Z" fill="black"/>
<path id="Rectangle 781" d="M66 144.045H62V148.045H66V144.045Z" fill="black"/>
<path id="Rectangle 782" d="M70 144.045H66V148.045H70V144.045Z" fill="black"/>
<path id="Rectangle 783" d="M109 144.045H106V148.045H109V144.045Z" fill="black"/>
<path id="Rectangle 784" d="M114 144.045H109V148.045H114V144.045Z" fill="black"/>
<path id="Rectangle 785" d="M118 144.045H114V148.045H118V144.045Z" fill="black"/>
<path id="Rectangle 786" d="M122 144.045H118V148.045H122V144.045Z" fill="black"/>
<path id="Rectangle 787" d="M126 144.045H122V148.045H126V144.045Z" fill="black"/>
<path id="Rectangle 788" d="M134 144.045H130V148.045H134V144.045Z" fill="black"/>
<path id="Rectangle 789" d="M148 144.045H143V148.045H148V144.045Z" fill="black"/>
<path id="Rectangle 790" d="M156 144.045H152V148.045H156V144.045Z" fill="black"/>
<path id="Rectangle 791" d="M160 144.045H156V148.045H160V144.045Z" fill="black"/>
<path id="Rectangle 792" d="M165 144.045H160V148.045H165V144.045Z" fill="black"/>
<path id="Rectangle 793" d="M28 148.045H23V152.045H28V148.045Z" fill="black"/>
<path id="Rectangle 794" d="M36 148.045H32V152.045H36V148.045Z" fill="black"/>
<path id="Rectangle 795" d="M40 148.045H36V152.045H40V148.045Z" fill="black"/>
<path id="Rectangle 796" d="M45 148.045H40V152.045H45V148.045Z" fill="black"/>
<path id="Rectangle 797" d="M54 148.045H50V152.045H54V148.045Z" fill="black"/>
<path id="Rectangle 798" d="M62 148.045H58V152.045H62V148.045Z" fill="black"/>
<path id="Rectangle 799" d="M66 148.045H62V152.045H66V148.045Z" fill="black"/>
<path id="Rectangle 800" d="M70 148.045H66V152.045H70V148.045Z" fill="black"/>
<path id="Rectangle 801" d="M74 148.045H70V152.045H74V148.045Z" fill="black"/>
<path id="Rectangle 802" d="M79 148.045H74V152.045H79V148.045Z" fill="black"/>
<path id="Rectangle 803" d="M90 148.045H87V152.045H90V148.045Z" fill="black"/>
<path id="Rectangle 804" d="M126 148.045H122V152.045H126V148.045Z" fill="black"/>
<path id="Rectangle 805" d="M138 148.045H134V152.045H138V148.045Z" fill="black"/>
<path id="Rectangle 806" d="M156 148.045H152V152.045H156V148.045Z" fill="black"/>
<path id="Rectangle 807" d="M28 152.045H23V156.045H28V152.045Z" fill="black"/>
<path id="Rectangle 808" d="M54 152.045H50V156.045H54V152.045Z" fill="black"/>
<path id="Rectangle 809" d="M62 152.045H58V156.045H62V152.045Z" fill="black"/>
<path id="Rectangle 810" d="M66 152.045H62V156.045H66V152.045Z" fill="black"/>
<path id="Rectangle 811" d="M74 152.045H70V156.045H74V152.045Z" fill="black"/>
<path id="Rectangle 812" d="M87 152.045H82V156.045H87V152.045Z" fill="black"/>
<path id="Rectangle 813" d="M98 152.045H90V156.045H98V152.045Z" fill="black"/>
<path id="Rectangle 814" d="M106 152.045H101V156.045H106V152.045Z" fill="black"/>
<path id="Rectangle 815" d="M114 152.045H109V156.045H114V152.045Z" fill="black"/>
<path id="Rectangle 816" d="M118 152.045H114V156.045H118V152.045Z" fill="black"/>
<path id="Rectangle 817" d="M122 152.045H118V156.045H122V152.045Z" fill="black"/>
<path id="Rectangle 818" d="M143 152.045H138V156.045H143V152.045Z" fill="black"/>
<path id="Rectangle 819" d="M152 152.045H148V156.045H152V152.045Z" fill="black"/>
<path id="Rectangle 820" d="M156 152.045H152V156.045H156V152.045Z" fill="black"/>
<path id="Rectangle 821" d="M28 156.045H23V161.045H28V156.045Z" fill="black"/>
<path id="Rectangle 822" d="M32 156.045H28V161.045H32V156.045Z" fill="black"/>
<path id="Rectangle 823" d="M36 156.045H32V161.045H36V156.045Z" fill="black"/>
<path id="Rectangle 824" d="M40 156.045H36V161.045H40V156.045Z" fill="black"/>
<path id="Rectangle 825" d="M45 156.045H40V161.045H45V156.045Z" fill="black"/>
<path id="Rectangle 826" d="M50 156.045H45V161.045H50V156.045Z" fill="black"/>
<path id="Rectangle 827" d="M54 156.045H50V161.045H54V156.045Z" fill="black"/>
<path id="Rectangle 828" d="M62 156.045H58V161.045H62V156.045Z" fill="black"/>
<path id="Rectangle 829" d="M66 156.045H62V161.045H66V156.045Z" fill="black"/>
<path id="Rectangle 830" d="M74 156.045H70V161.045H74V156.045Z" fill="black"/>
<path id="Rectangle 831" d="M90 156.045H87V161.045H90V156.045Z" fill="black"/>
<path id="Rectangle 832" d="M98 156.045H90V161.045H98V156.045Z" fill="black"/>
<path id="Rectangle 833" d="M101 156.045H98V161.045H101V156.045Z" fill="black"/>
<path id="Rectangle 834" d="M106 156.045H101V161.045H106V156.045Z" fill="black"/>
<path id="Rectangle 835" d="M114 156.045H109V161.045H114V156.045Z" fill="black"/>
<path id="Rectangle 836" d="M122 156.045H118V161.045H122V156.045Z" fill="black"/>
<path id="Rectangle 837" d="M126 156.045H122V161.045H126V156.045Z" fill="black"/>
<path id="Rectangle 838" d="M130 156.045H126V161.045H130V156.045Z" fill="black"/>
<path id="Rectangle 839" d="M134 156.045H130V161.045H134V156.045Z" fill="black"/>
<path id="Rectangle 840" d="M138 156.045H134V161.045H138V156.045Z" fill="black"/>
<path id="Rectangle 841" d="M143 156.045H138V161.045H143V156.045Z" fill="black"/>
<path id="Rectangle 842" d="M152 156.045H148V161.045H152V156.045Z" fill="black"/>
<path id="Rectangle 843" d="M160 156.045H156V161.045H160V156.045Z" fill="black"/>
</g>
</g>
<defs>
<filter id="filter0_d_1027_10812" x="0" y="0.0449219" width="188" height="238" filterUnits="userSpaceOnUse" color-interpolation-filters="sRGB">
<feFlood flood-opacity="0" result="BackgroundImageFix"/>
<feColorMatrix in="SourceAlpha" type="matrix" values="0 0 0 0 0 0 0 0 0 0 0 0 0 0 0 0 0 0 127 0" result="hardAlpha"/>
<feOffset dy="4"/>
<feGaussianBlur stdDeviation="2"/>
<feComposite in2="hardAlpha" operator="out"/>
<feColorMatrix type="matrix" values="0 0 0 0 0 0 0 0 0 0 0 0 0 0 0 0 0 0 0.25 0"/>
<feBlend mode="normal" in2="BackgroundImageFix" result="effect1_dropShadow_1027_10812"/>
<feBlend mode="normal" in="SourceGraphic" in2="effect1_dropShadow_1027_10812" result="shape"/>
</filter>
</defs>
</svg>
