<svg width="21" height="21" viewBox="0 0 21 21" fill="none" xmlns="http://www.w3.org/2000/svg">
<path d="M5.83525 5.14706C5.83525 4.23741 6.57266 3.5 7.48231 3.5H11.2588C11.6957 3.5 12.1146 3.67353 12.4235 3.98241L15.2352 6.79412C15.5441 7.103 15.7176 7.52194 15.7176 7.95876V15.0294C15.7176 15.9391 14.9802 16.6765 14.0705 16.6765H12.8124C13.5948 15.8023 14.0705 14.6479 14.0705 13.3824C14.0705 10.6534 11.8583 8.44118 9.12937 8.44118C7.86384 8.44118 6.70944 8.91694 5.83525 9.69935V5.14706Z" fill="#333333"/>
<path fill-rule="evenodd" clip-rule="evenodd" d="M9.12937 10.0882C7.31008 10.0882 5.83525 11.5631 5.83525 13.3824C5.83525 13.9929 6.00184 14.5653 6.29146 15.0556L5.25292 16.0941C4.93132 16.4158 4.93132 16.9372 5.25292 17.2588C5.57453 17.5804 6.09596 17.5804 6.41757 17.2588L7.4561 16.2203C7.94647 16.5099 8.51881 16.6765 9.12937 16.6765C10.9487 16.6765 12.4235 15.2016 12.4235 13.3824C12.4235 11.5631 10.9487 10.0882 9.12937 10.0882ZM7.48231 13.3824C7.48231 12.4727 8.21972 11.7353 9.12937 11.7353C10.039 11.7353 10.7764 12.4727 10.7764 13.3824C10.7764 14.292 10.039 15.0294 9.12937 15.0294C8.67432 15.0294 8.26368 14.846 7.96472 14.547C7.66576 14.248 7.48231 13.8374 7.48231 13.3824Z" fill="#333333"/>
</svg>
