<svg width="21" height="21" viewBox="0 0 21 21" fill="none" xmlns="http://www.w3.org/2000/svg">
<path d="M9.48975 3.5C9.0065 3.5 8.61475 3.89175 8.61475 4.375C8.61475 4.85825 9.0065 5.25 9.48975 5.25H11.2397C11.723 5.25 12.1147 4.85825 12.1147 4.375C12.1147 3.89175 11.723 3.5 11.2397 3.5H9.48975Z" fill="#333333"/>
<path fill-rule="evenodd" clip-rule="evenodd" d="M5.11475 6.125C5.11475 5.1585 5.89825 4.375 6.86475 4.375C6.86475 5.82475 8.04 7 9.48975 7H11.2397C12.6895 7 13.8647 5.82475 13.8647 4.375C14.8312 4.375 15.6147 5.1585 15.6147 6.125V15.75C15.6147 16.7165 14.8312 17.5 13.8647 17.5H6.86475C5.89825 17.5 5.11475 16.7165 5.11475 15.75V6.125ZM7.73975 9.625C7.2565 9.625 6.86475 10.0168 6.86475 10.5C6.86475 10.9832 7.2565 11.375 7.73975 11.375H7.7485C8.23175 11.375 8.6235 10.9832 8.6235 10.5C8.6235 10.0168 8.23175 9.625 7.7485 9.625H7.73975ZM10.3647 9.625C9.8815 9.625 9.48975 10.0168 9.48975 10.5C9.48975 10.9832 9.8815 11.375 10.3647 11.375H12.9897C13.473 11.375 13.8647 10.9832 13.8647 10.5C13.8647 10.0168 13.473 9.625 12.9897 9.625H10.3647ZM7.73975 13.125C7.2565 13.125 6.86475 13.5168 6.86475 14C6.86475 14.4832 7.2565 14.875 7.73975 14.875H7.7485C8.23175 14.875 8.6235 14.4832 8.6235 14C8.6235 13.5168 8.23175 13.125 7.7485 13.125H7.73975ZM10.3647 13.125C9.8815 13.125 9.48975 13.5168 9.48975 14C9.48975 14.4832 9.8815 14.875 10.3647 14.875H12.9897C13.473 14.875 13.8647 14.4832 13.8647 14C13.8647 13.5168 13.473 13.125 12.9897 13.125H10.3647Z" fill="#333333"/>
</svg>
