<svg width="167" height="38" viewBox="0 0 167 38" fill="none" xmlns="http://www.w3.org/2000/svg">
<g id="Layer 2">
<g id="Layer 1">
<path id="Vector" d="M35.2946 23.5316C34.2137 22.0741 32.8028 20.8622 31.1645 19.9839C28.9927 18.7742 25.9329 18.8913 25.9329 18.8913C25.7152 19.3578 25.4009 19.7785 25.0087 20.1287C24.6165 20.4789 24.1541 20.7515 23.6488 20.9305C23.1435 21.1096 22.6054 21.1914 22.0662 21.1712C21.5269 21.1511 20.9974 21.0293 20.5087 20.8131C18.1373 23.7398 18.3679 26.1819 18.3885 26.3412C18.5227 30.1036 22.3741 37.8625 37.7831 37.8853C37.8278 37.5796 39.1047 28.2728 35.2774 23.5316" fill="#0086F8"/>
<path id="Vector_2" d="M22.8193 3.84274C18.5308 -0.105002 10.6112 -1.56508 0.437256 2.7176C0.46479 2.82491 3.50046 15.0193 17.1437 16.9574H17.1782C17.481 16.9737 17.8321 17.003 18.2107 17.042C18.2921 16.0836 18.7529 15.1895 19.5012 14.5379C20.2495 13.8864 21.2303 13.5253 22.2479 13.5267C22.7062 13.5278 23.1615 13.597 23.5971 13.7316C27.5345 8.08315 23.2977 4.24922 22.8193 3.84274Z" fill="#FF8300"/>
<path id="Vector_3" d="M20.5269 20.8085C19.8311 20.5009 19.2425 20.0124 18.8298 19.4002C18.4172 18.7881 18.1976 18.0775 18.1968 17.3517C18.1968 17.2574 18.1968 17.1469 18.214 17.0428C17.5172 16.9653 16.8161 16.9273 16.1145 16.929C12.5482 16.9896 9.09058 18.099 6.22277 20.1028C0.502502 24.327 0 31.2632 0 31.2632C0.302878 31.2989 10.4286 32.5639 16.5757 26.8179C17.2117 26.2155 17.776 25.5492 18.2587 24.831C18.2587 24.831 18.4205 24.5904 18.6855 24.1806C19.068 22.9586 19.6929 21.8165 20.5269 20.815V20.8085Z" fill="#51C21A"/>
<path id="Vector_4" d="M87.1327 9.02637C84.1418 9.02637 81.6258 10.2198 80.0908 12.1286V11.1921C80.0862 10.6168 79.8414 10.0664 79.4095 9.66084C78.9776 9.25524 78.3937 9.02721 77.7848 9.02637C77.1758 9.02721 76.5919 9.25524 76.16 9.66084C75.7281 10.0664 75.4833 10.6168 75.4788 11.1921V35.6753C75.4824 36.2606 75.7308 36.8209 76.1699 37.2339C76.609 37.6469 77.2031 37.8792 77.8226 37.88C78.4422 37.8792 79.0363 37.6469 79.4754 37.2339C79.9144 36.8209 80.1629 36.2606 80.1665 35.6753V27.0579C81.0614 27.979 82.1523 28.711 83.3677 29.2059C84.5831 29.7007 85.8954 29.9472 87.2187 29.9292C92.4537 29.9292 97.5441 26.2579 97.5441 19.4388C97.5613 12.4961 92.1164 9.02637 87.1327 9.02637ZM86.6267 25.9002C83.419 25.9002 80.1665 23.7052 80.1665 19.3575C80.1665 15.0878 83.3742 12.9741 86.5854 12.9741C89.7966 12.9741 92.9287 15.0488 92.9287 19.3965C92.9287 23.7442 89.8311 25.9002 86.6267 25.9002Z" fill="#333F48"/>
<path id="Vector_5" d="M60.3246 29.9292C63.3189 29.9292 65.8315 28.7358 67.3699 26.8269V27.7569C67.3736 28.3323 67.6175 28.8829 68.0488 29.2892C68.48 29.6954 69.0636 29.9242 69.6725 29.9259C70.282 29.9251 70.8665 29.6966 71.2985 29.2903C71.7304 28.884 71.9749 28.3328 71.9785 27.7569V3.27704C71.9695 2.69507 71.7187 2.13978 71.2802 1.73097C70.8417 1.32215 70.2507 1.09259 69.6346 1.0918C69.0157 1.09264 68.4221 1.32444 67.9831 1.73675C67.5441 2.14906 67.2953 2.7085 67.2908 3.2933V11.8977C66.3956 10.975 65.3037 10.2421 64.0869 9.74718C62.8702 9.25224 61.5562 9.00656 60.2316 9.0263C55.007 9.0263 49.9062 12.6944 49.9062 19.5168C49.9062 26.4562 55.3443 29.9292 60.3246 29.9292ZM60.834 13.0553C64.0417 13.0553 67.2908 15.2471 67.2908 19.5981C67.2908 23.8645 64.083 25.9782 60.8753 25.9782C57.6675 25.9782 54.5424 23.9035 54.5424 19.5558C54.5424 15.2081 57.6228 13.0553 60.834 13.0553Z" fill="#333F48"/>
<path id="Vector_6" d="M44.8113 0.115573C44.3706 0.106243 43.9325 0.181371 43.5234 0.336423C43.1143 0.491475 42.7427 0.723235 42.431 1.01772C42.1193 1.3122 41.874 1.66329 41.7099 2.04981C41.5458 2.43633 41.4663 2.85026 41.4762 3.26661C41.4663 3.68297 41.5458 4.0969 41.7099 4.48342C41.874 4.86993 42.1193 5.22103 42.431 5.51551C42.7427 5.80999 43.1143 6.04175 43.5234 6.1968C43.9325 6.35186 44.3706 6.42698 44.8113 6.41765C45.2538 6.42729 45.6939 6.35263 46.1052 6.19814C46.5165 6.04365 46.8908 5.81249 47.2055 5.51844C47.5203 5.22438 47.7692 4.87346 47.9373 4.48658C48.1055 4.09971 48.1894 3.68481 48.1842 3.26661C48.1894 2.84842 48.1055 2.43352 47.9373 2.04664C47.7692 1.65977 47.5203 1.30884 47.2055 1.01479C46.8908 0.720736 46.5165 0.489573 46.1052 0.335083C45.6939 0.180593 45.2538 0.10594 44.8113 0.115573Z" fill="#333F48"/>
<path id="Vector_7" d="M44.8122 9.02637C44.1927 9.02722 43.5986 9.25946 43.1595 9.67247C42.7205 10.0855 42.472 10.6458 42.4684 11.2311V27.7993C42.4924 28.371 42.7493 28.9118 43.1854 29.3088C43.6216 29.7057 44.2032 29.928 44.8088 29.9292C45.415 29.9289 45.9975 29.7069 46.4344 29.3099C46.8713 28.9129 47.1287 28.3716 47.1527 27.7993V27.7277V11.2311C47.149 10.6463 46.9011 10.0865 46.4628 9.67362C46.0244 9.2607 45.4312 9.02807 44.8122 9.02637Z" fill="#333F48"/>
<path id="Vector_8" d="M106.224 9.24072H107.146V14.5477H106.224V9.24072Z" fill="#333F48"/>
<path id="Vector_9" d="M108.417 9.24072H109.34L112.155 12.9934V9.24072H113.078V14.5477H112.155L109.34 10.8244V14.5477H108.417V9.24072Z" fill="#333F48"/>
<path id="Vector_10" d="M116.491 14.5477H115.569V10.0342H113.731V9.24072H118.329V10.0342H116.491V14.5477Z" fill="#333F48"/>
<path id="Vector_11" d="M120.025 10.0342V11.4975H121.929V12.2942H120.025V13.751H122.472V14.5477H119.103V9.24072H122.41V10.0342H120.025Z" fill="#333F48"/>
<path id="Vector_12" d="M126.494 14.5467L125.21 12.355H124.463V14.5467H123.541V9.23972H125.537C125.755 9.22585 125.973 9.25457 126.178 9.32409C126.384 9.3936 126.572 9.50241 126.731 9.64372C126.89 9.78503 127.016 9.95579 127.102 10.1453C127.188 10.3349 127.232 10.5391 127.23 10.7453C127.234 11.0582 127.137 11.3648 126.953 11.6248C126.768 11.8848 126.505 12.0861 126.198 12.2022L127.626 14.5467H126.494ZM126.294 10.7844C126.291 10.6779 126.264 10.5732 126.216 10.4767C126.169 10.3803 126.1 10.2942 126.016 10.2238C125.931 10.1533 125.832 10.1001 125.725 10.0673C125.618 10.0345 125.504 10.0229 125.392 10.0332H124.463V11.5583H125.392C125.506 11.5677 125.621 11.5548 125.729 11.5202C125.838 11.4857 125.938 11.4304 126.022 11.3577C126.107 11.285 126.175 11.1965 126.222 11.0979C126.268 10.9992 126.293 10.8925 126.294 10.7844Z" fill="#333F48"/>
<path id="Vector_13" d="M128.535 9.24072H129.457L132.273 12.9934V9.24072H133.199V14.5477H132.276L129.461 10.8244V14.5477H128.538L128.535 9.24072Z" fill="#333F48"/>
<path id="Vector_14" d="M135.446 13.2047L134.919 14.5477H133.907L136.107 9.24072H137.012L139.197 14.5477H138.186L137.673 13.2047H135.446ZM136.554 10.3756L135.759 12.408H137.356L136.554 10.3756Z" fill="#333F48"/>
<path id="Vector_15" d="M141.36 14.5477H140.427V10.0342H138.589V9.24072H143.187V10.0342H141.349L141.36 14.5477Z" fill="#333F48"/>
<path id="Vector_16" d="M143.785 9.24072H144.707V14.5477H143.785V9.24072Z" fill="#333F48"/>
<path id="Vector_17" d="M151.505 11.8952C151.505 12.6231 151.199 13.3212 150.654 13.8359C150.11 14.3506 149.371 14.6398 148.6 14.6398C147.83 14.6398 147.091 14.3506 146.546 13.8359C146.001 13.3212 145.695 12.6231 145.695 11.8952C145.695 11.1673 146.001 10.4692 146.546 9.9545C147.091 9.43979 147.83 9.15063 148.6 9.15063C149.371 9.15063 150.11 9.43979 150.654 9.9545C151.199 10.4692 151.505 11.1673 151.505 11.8952ZM146.635 11.8952C146.619 12.1483 146.658 12.4018 146.75 12.64C146.841 12.8783 146.984 13.0964 147.168 13.2809C147.352 13.4654 147.574 13.6124 147.82 13.7129C148.066 13.8134 148.332 13.8652 148.6 13.8652C148.869 13.8652 149.134 13.8134 149.381 13.7129C149.627 13.6124 149.849 13.4654 150.033 13.2809C150.217 13.0964 150.359 12.8783 150.451 12.64C150.542 12.4018 150.581 12.1483 150.566 11.8952C150.581 11.6421 150.542 11.3886 150.451 11.1503C150.359 10.912 150.217 10.6939 150.033 10.5095C149.849 10.325 149.627 10.178 149.381 10.0775C149.134 9.97703 148.869 9.9252 148.6 9.9252C148.332 9.9252 148.066 9.97703 147.82 10.0775C147.574 10.178 147.352 10.325 147.168 10.5095C146.984 10.6939 146.841 10.912 146.75 11.1503C146.658 11.3886 146.619 11.6421 146.635 11.8952Z" fill="#333F48"/>
<path id="Vector_18" d="M152.395 9.24072H153.321L156.136 12.9934V9.24072H157.059V14.5477H156.136L153.321 10.8244V14.5477H152.395V9.24072Z" fill="#333F48"/>
<path id="Vector_19" d="M159.28 13.2047L158.761 14.5477H157.749L159.948 9.24072H160.853L163.039 14.5477H162.027L161.497 13.2047H159.28ZM160.389 10.3756L159.594 12.408H161.191L160.389 10.3756Z" fill="#333F48"/>
<path id="Vector_20" d="M164.649 9.24072V13.751H167V14.5477H163.727V9.24072H164.649Z" fill="#333F48"/>
<path id="Vector_21" d="M107.146 17.6202V19.0835H109.046V19.877H107.146V21.3338H109.593V22.1305H106.224V16.8235H109.528V17.6202H107.146Z" fill="#333F48"/>
<path id="Vector_22" d="M110.483 16.8235H112.441C114.31 16.8235 115.284 18.0885 115.284 19.425C115.284 20.7615 114.327 22.1403 112.307 22.1403H110.483V16.8235ZM111.405 17.6202V21.3338H112.386C112.907 21.3398 113.41 21.15 113.783 20.806C114.156 20.4621 114.369 19.9922 114.376 19.4998C114.382 19.0073 114.181 18.5326 113.817 18.1801C113.453 17.8276 112.956 17.6262 112.434 17.6202H111.405Z" fill="#333F48"/>
<path id="Vector_23" d="M116.196 20.2769V16.8235H117.118V20.1046C117.118 21.0086 117.727 21.4053 118.371 21.4053C119.014 21.4053 119.613 21.0184 119.613 20.1046V16.8235H120.536V20.2769C120.536 21.6167 119.445 22.2541 118.371 22.2541C117.297 22.2541 116.196 21.607 116.196 20.2769Z" fill="#333F48"/>
<path id="Vector_24" d="M124.249 22.2503C122.817 22.2503 121.472 21.2747 121.472 19.5057C121.468 18.9422 121.645 18.3909 121.98 17.9245C122.315 17.4581 122.791 17.0986 123.346 16.8933C123.902 16.6879 124.51 16.6465 125.091 16.7744C125.672 16.9024 126.198 17.1937 126.6 17.6099L125.973 18.2603C125.782 18.0315 125.538 17.8475 125.259 17.7228C124.98 17.5982 124.675 17.5361 124.366 17.5416C123.334 17.5416 122.411 18.192 122.411 19.4927C122.411 20.7935 123.323 21.4438 124.328 21.4438C124.726 21.4413 125.113 21.3246 125.438 21.109C125.763 20.8935 126.011 20.5895 126.149 20.2374L126.886 20.6016C126.669 21.0929 126.303 21.5121 125.833 21.8058C125.364 22.0995 124.812 22.2542 124.249 22.2503Z" fill="#333F48"/>
<path id="Vector_25" d="M128.617 20.7875L128.097 22.1305H127.085L129.285 16.8235H130.19L132.372 22.1305H131.363L130.833 20.7875H128.617ZM129.725 17.9584L128.93 19.9908H130.527L129.725 17.9584Z" fill="#333F48"/>
<path id="Vector_26" d="M134.637 22.1305H133.715V17.6202H131.877V16.8235H136.475V17.6202H134.637V22.1305Z" fill="#333F48"/>
<path id="Vector_27" d="M137.19 16.8235H138.112V22.1305H137.19V16.8235Z" fill="#333F48"/>
<path id="Vector_28" d="M145.006 19.4765C144.999 20.0179 144.823 20.5453 144.5 20.9923C144.176 21.4394 143.72 21.7861 143.189 21.9888C142.658 22.1916 142.075 22.2413 141.514 22.1318C140.952 22.0222 140.438 21.7583 140.035 21.3732C139.632 20.9881 139.359 20.4991 139.25 19.9676C139.14 19.4361 139.2 18.8859 139.421 18.3863C139.642 17.8867 140.014 17.46 140.491 17.1598C140.968 16.8596 141.528 16.6995 142.101 16.6994C142.487 16.6949 142.869 16.764 143.226 16.9024C143.583 17.0407 143.907 17.2457 144.178 17.5049C144.449 17.7641 144.662 18.0723 144.804 18.411C144.947 18.7498 145.015 19.1122 145.006 19.4765ZM140.136 19.4765C140.155 19.8401 140.286 20.1905 140.514 20.4842C140.741 20.778 141.055 21.0022 141.416 21.129C141.778 21.2558 142.17 21.2797 142.546 21.1977C142.921 21.1157 143.263 20.9315 143.528 20.6677C143.794 20.404 143.972 20.0725 144.04 19.7141C144.108 19.3558 144.063 18.9865 143.911 18.6519C143.759 18.3174 143.507 18.0323 143.185 17.8321C142.863 17.6318 142.486 17.5252 142.101 17.5254C141.835 17.5264 141.572 17.5784 141.327 17.678C141.082 17.7776 140.862 17.9229 140.678 18.1052C140.495 18.2874 140.352 18.5028 140.259 18.7385C140.166 18.9741 140.124 19.2252 140.136 19.4765Z" fill="#333F48"/>
<path id="Vector_29" d="M145.999 16.8235H146.921L149.74 20.5761V16.8235H150.662V22.1305H149.74L146.921 18.4071V22.1305H145.999V16.8235Z" fill="#333F48"/>
<path id="Vector_30" d="M107.996 25.0334C107.884 25.021 107.77 25.0312 107.663 25.0633C107.555 25.0954 107.456 25.1487 107.372 25.2197C107.288 25.2907 107.22 25.3777 107.174 25.4751C107.128 25.5725 107.104 25.678 107.105 25.7846C107.105 26.3374 107.618 26.5423 108.22 26.7342C109.056 26.9976 109.941 27.2414 109.941 28.256C109.941 29.2706 108.994 29.8332 107.958 29.8332C107.204 29.8335 106.48 29.5544 105.941 29.056L106.551 28.3633C106.723 28.5751 106.944 28.7473 107.196 28.8673C107.449 28.9872 107.727 29.0517 108.01 29.056C108.533 29.056 108.998 28.8413 108.998 28.3731C108.998 27.9048 108.478 27.7227 107.876 27.5081C107.146 27.2577 106.2 26.9455 106.2 25.8562C106.2 24.7668 107.16 24.3018 108.058 24.3018C108.653 24.3002 109.226 24.517 109.655 24.9066L109.159 25.5147C108.852 25.2178 108.435 25.0452 107.996 25.0334Z" fill="#333F48"/>
<path id="Vector_31" d="M114.558 25.9458C114.561 26.1579 114.518 26.3683 114.432 26.5641C114.346 26.76 114.218 26.9372 114.057 27.0849C113.896 27.2325 113.705 27.3475 113.495 27.4229C113.285 27.4982 113.061 27.5323 112.837 27.5229H111.804V29.7082H110.882V24.4077H112.892C113.11 24.3987 113.328 24.4321 113.531 24.5058C113.735 24.5795 113.921 24.6918 114.077 24.836C114.233 24.9801 114.356 25.153 114.439 25.3439C114.522 25.5347 114.562 25.7396 114.558 25.9458ZM112.73 26.736C112.845 26.7426 112.961 26.727 113.069 26.69C113.178 26.653 113.277 26.5954 113.361 26.5208C113.445 26.4462 113.512 26.3561 113.558 26.2561C113.604 26.1561 113.628 26.0483 113.628 25.9393C113.628 25.8342 113.604 25.7304 113.557 25.6347C113.511 25.539 113.444 25.4537 113.361 25.3842C113.277 25.3148 113.179 25.2629 113.073 25.2319C112.966 25.2009 112.854 25.1915 112.744 25.2044H111.797V26.736H112.73Z" fill="#333F48"/>
<path id="Vector_32" d="M116.271 25.2039V26.6673H118.174V27.464H116.271V28.9175H118.718V29.7077H115.349V24.4072H118.656V25.2039H116.271Z" fill="#333F48"/>
<path id="Vector_33" d="M122.15 29.834C120.721 29.834 119.372 28.8585 119.372 27.0895C119.369 26.526 119.546 25.9747 119.88 25.5083C120.215 25.0419 120.692 24.6823 121.247 24.477C121.802 24.2717 122.411 24.2302 122.992 24.3582C123.572 24.4861 124.098 24.7774 124.501 25.1936L123.874 25.844C123.684 25.6153 123.44 25.4313 123.162 25.3066C122.883 25.1819 122.578 25.1199 122.27 25.1253C121.238 25.1253 120.312 25.7757 120.312 27.0765C120.312 28.3772 121.227 29.0276 122.229 29.0276C122.627 29.0265 123.014 28.9102 123.34 28.6945C123.665 28.4788 123.913 28.174 124.05 27.8211L124.79 28.2016C124.571 28.6904 124.203 29.1065 123.733 29.3972C123.262 29.6879 122.712 29.8399 122.15 29.834Z" fill="#333F48"/>
<path id="Vector_34" d="M125.541 24.4072H126.463V29.7077H125.541V24.4072Z" fill="#333F48"/>
<path id="Vector_35" d="M128.895 28.3709L128.378 29.7074H127.346L129.545 24.4004H130.454L132.65 29.7074H131.638L131.108 28.3644L128.895 28.3709ZM130.003 25.545L129.208 27.5774H130.805L130.003 25.545Z" fill="#333F48"/>
<path id="Vector_36" d="M134.299 24.4072V28.9175H136.64V29.7077H133.363V24.4072H134.299Z" fill="#333F48"/>
<path id="Vector_37" d="M137.541 24.4072H138.463V29.7077H137.541V24.4072Z" fill="#333F48"/>
<path id="Vector_38" d="M141.423 25.0334C141.311 25.0215 141.197 25.0321 141.09 25.0644C140.983 25.0967 140.884 25.1501 140.8 25.221C140.717 25.292 140.65 25.3789 140.604 25.476C140.558 25.5731 140.534 25.6783 140.535 25.7846C140.535 26.3374 141.047 26.5423 141.65 26.7341C142.483 26.9975 143.371 27.2414 143.371 28.256C143.371 29.2706 142.424 29.8332 141.388 29.8332C140.634 29.8338 139.91 29.5547 139.371 29.056L139.98 28.3633C140.154 28.5774 140.378 28.7511 140.634 28.8711C140.89 28.9912 141.171 29.0544 141.457 29.056C141.98 29.056 142.445 28.8413 142.445 28.3731C142.445 27.9048 141.922 27.7227 141.323 27.5081C140.59 27.2577 139.643 26.9455 139.643 25.8562C139.643 24.7668 140.607 24.3018 141.505 24.3018C142.1 24.3002 142.673 24.517 143.102 24.9066L142.607 25.5147C142.294 25.2137 141.869 25.0408 141.423 25.0334Z" fill="#333F48"/>
<path id="Vector_39" d="M146.243 29.7077H145.32V25.2039H143.482V24.4072H148.081V25.2039H146.243V29.7077Z" fill="#333F48"/>
<path id="Vector_40" d="M150.225 25.0334C150.113 25.021 150 25.0312 149.892 25.0633C149.784 25.0954 149.685 25.1487 149.601 25.2197C149.517 25.2907 149.449 25.3777 149.403 25.4751C149.357 25.5725 149.334 25.678 149.334 25.7846C149.334 26.3374 149.847 26.5423 150.449 26.7341C151.285 26.9975 152.17 27.2414 152.17 28.256C152.17 29.2706 151.223 29.8332 150.191 29.8332C149.436 29.834 148.71 29.5549 148.171 29.056L148.78 28.3633C148.953 28.5753 149.174 28.7477 149.427 28.8676C149.681 28.9876 149.959 29.0519 150.242 29.056C150.762 29.056 151.227 28.8413 151.227 28.3731C151.227 27.9048 150.707 27.7227 150.105 27.5081C149.375 27.2577 148.429 26.9455 148.429 25.8561C148.429 24.7668 149.389 24.3018 150.291 24.3018C150.885 24.3007 151.456 24.5175 151.884 24.9066L151.389 25.5147C151.082 25.2178 150.664 25.0452 150.225 25.0334Z" fill="#333F48"/>
</g>
</g>
</svg>
