<svg width="160" height="161" viewBox="0 0 160 161" fill="none" xmlns="http://www.w3.org/2000/svg">
<path d="M160 0.0449219H0V160.045H160V0.0449219Z" fill="white"/>
<path d="M15 11.0449H11V15.0449H15V11.0449Z" fill="black"/>
<path d="M19 11.0449H15V15.0449H19V11.0449Z" fill="black"/>
<path d="M21 11.0449H19V15.0449H21V11.0449Z" fill="black"/>
<path d="M25 11.0449H21V15.0449H25V11.0449Z" fill="black"/>
<path d="M29 11.0449H25V15.0449H29V11.0449Z" fill="black"/>
<path d="M33 11.0449H29V15.0449H33V11.0449Z" fill="black"/>
<path d="M37 11.0449H33V15.0449H37V11.0449Z" fill="black"/>
<path d="M48 11.0449H44V15.0449H48V11.0449Z" fill="black"/>
<path d="M70 11.0449H66V15.0449H70V11.0449Z" fill="black"/>
<path d="M74 11.0449H70V15.0449H74V11.0449Z" fill="black"/>
<path d="M78 11.0449H74V15.0449H78V11.0449Z" fill="black"/>
<path d="M82 11.0449H78V15.0449H82V11.0449Z" fill="black"/>
<path d="M85 11.0449H82V15.0449H85V11.0449Z" fill="black"/>
<path d="M89 11.0449H85V15.0449H89V11.0449Z" fill="black"/>
<path d="M100 11.0449H97V15.0449H100V11.0449Z" fill="black"/>
<path d="M111 11.0449H107V15.0449H111V11.0449Z" fill="black"/>
<path d="M119 11.0449H115V15.0449H119V11.0449Z" fill="black"/>
<path d="M127 11.0449H123V15.0449H127V11.0449Z" fill="black"/>
<path d="M130 11.0449H127V15.0449H130V11.0449Z" fill="black"/>
<path d="M134 11.0449H130V15.0449H134V11.0449Z" fill="black"/>
<path d="M138 11.0449H134V15.0449H138V11.0449Z" fill="black"/>
<path d="M141 11.0449H138V15.0449H141V11.0449Z" fill="black"/>
<path d="M145 11.0449H141V15.0449H145V11.0449Z" fill="black"/>
<path d="M149 11.0449H145V15.0449H149V11.0449Z" fill="black"/>
<path d="M15 15.0449H11V19.0449H15V15.0449Z" fill="black"/>
<path d="M37 15.0449H33V19.0449H37V15.0449Z" fill="black"/>
<path d="M44 15.0449H41V19.0449H44V15.0449Z" fill="black"/>
<path d="M48 15.0449H44V19.0449H48V15.0449Z" fill="black"/>
<path d="M56 15.0449H52V19.0449H56V15.0449Z" fill="black"/>
<path d="M60 15.0449H56V19.0449H60V15.0449Z" fill="black"/>
<path d="M93 15.0449H89V19.0449H93V15.0449Z" fill="black"/>
<path d="M104 15.0449H100V19.0449H104V15.0449Z" fill="black"/>
<path d="M115 15.0449H111V19.0449H115V15.0449Z" fill="black"/>
<path d="M127 15.0449H123V19.0449H127V15.0449Z" fill="black"/>
<path d="M149 15.0449H145V19.0449H149V15.0449Z" fill="black"/>
<path d="M15 19.0449H11V21.0449H15V19.0449Z" fill="black"/>
<path d="M21 19.0449H19V21.0449H21V19.0449Z" fill="black"/>
<path d="M25 19.0449H21V21.0449H25V19.0449Z" fill="black"/>
<path d="M29 19.0449H25V21.0449H29V19.0449Z" fill="black"/>
<path d="M37 19.0449H33V21.0449H37V19.0449Z" fill="black"/>
<path d="M48 19.0449H44V21.0449H48V19.0449Z" fill="black"/>
<path d="M52 19.0449H48V21.0449H52V19.0449Z" fill="black"/>
<path d="M56 19.0449H52V21.0449H56V19.0449Z" fill="black"/>
<path d="M66 19.0449H63V21.0449H66V19.0449Z" fill="black"/>
<path d="M74 19.0449H70V21.0449H74V19.0449Z" fill="black"/>
<path d="M82 19.0449H78V21.0449H82V19.0449Z" fill="black"/>
<path d="M93 19.0449H89V21.0449H93V19.0449Z" fill="black"/>
<path d="M97 19.0449H93V21.0449H97V19.0449Z" fill="black"/>
<path d="M100 19.0449H97V21.0449H100V19.0449Z" fill="black"/>
<path d="M115 19.0449H111V21.0449H115V19.0449Z" fill="black"/>
<path d="M127 19.0449H123V21.0449H127V19.0449Z" fill="black"/>
<path d="M134 19.0449H130V21.0449H134V19.0449Z" fill="black"/>
<path d="M138 19.0449H134V21.0449H138V19.0449Z" fill="black"/>
<path d="M141 19.0449H138V21.0449H141V19.0449Z" fill="black"/>
<path d="M149 19.0449H145V21.0449H149V19.0449Z" fill="black"/>
<path d="M15 21.0449H11V25.0449H15V21.0449Z" fill="black"/>
<path d="M21 21.0449H19V25.0449H21V21.0449Z" fill="black"/>
<path d="M25 21.0449H21V25.0449H25V21.0449Z" fill="black"/>
<path d="M29 21.0449H25V25.0449H29V21.0449Z" fill="black"/>
<path d="M37 21.0449H33V25.0449H37V21.0449Z" fill="black"/>
<path d="M44 21.0449H41V25.0449H44V21.0449Z" fill="black"/>
<path d="M48 21.0449H44V25.0449H48V21.0449Z" fill="black"/>
<path d="M56 21.0449H52V25.0449H56V21.0449Z" fill="black"/>
<path d="M74 21.0449H70V25.0449H74V21.0449Z" fill="black"/>
<path d="M78 21.0449H74V25.0449H78V21.0449Z" fill="black"/>
<path d="M82 21.0449H78V25.0449H82V21.0449Z" fill="black"/>
<path d="M85 21.0449H82V25.0449H85V21.0449Z" fill="black"/>
<path d="M97 21.0449H93V25.0449H97V21.0449Z" fill="black"/>
<path d="M100 21.0449H97V25.0449H100V21.0449Z" fill="black"/>
<path d="M104 21.0449H100V25.0449H104V21.0449Z" fill="black"/>
<path d="M107 21.0449H104V25.0449H107V21.0449Z" fill="black"/>
<path d="M111 21.0449H107V25.0449H111V21.0449Z" fill="black"/>
<path d="M115 21.0449H111V25.0449H115V21.0449Z" fill="black"/>
<path d="M119 21.0449H115V25.0449H119V21.0449Z" fill="black"/>
<path d="M127 21.0449H123V25.0449H127V21.0449Z" fill="black"/>
<path d="M134 21.0449H130V25.0449H134V21.0449Z" fill="black"/>
<path d="M138 21.0449H134V25.0449H138V21.0449Z" fill="black"/>
<path d="M141 21.0449H138V25.0449H141V21.0449Z" fill="black"/>
<path d="M149 21.0449H145V25.0449H149V21.0449Z" fill="black"/>
<path d="M15 25.0449H11V29.0449H15V25.0449Z" fill="black"/>
<path d="M21 25.0449H19V29.0449H21V25.0449Z" fill="black"/>
<path d="M25 25.0449H21V29.0449H25V25.0449Z" fill="black"/>
<path d="M29 25.0449H25V29.0449H29V25.0449Z" fill="black"/>
<path d="M37 25.0449H33V29.0449H37V25.0449Z" fill="black"/>
<path d="M52 25.0449H48V29.0449H52V25.0449Z" fill="black"/>
<path d="M60 25.0449H56V29.0449H60V25.0449Z" fill="black"/>
<path d="M63 25.0449H60V29.0449H63V25.0449Z" fill="black"/>
<path d="M66 25.0449H63V29.0449H66V25.0449Z" fill="black"/>
<path d="M70 25.0449H66V29.0449H70V25.0449Z" fill="black"/>
<path d="M78 25.0449H74V29.0449H78V25.0449Z" fill="black"/>
<path d="M85 25.0449H82V29.0449H85V25.0449Z" fill="black"/>
<path d="M89 25.0449H85V29.0449H89V25.0449Z" fill="black"/>
<path d="M93 25.0449H89V29.0449H93V25.0449Z" fill="black"/>
<path d="M100 25.0449H97V29.0449H100V25.0449Z" fill="black"/>
<path d="M104 25.0449H100V29.0449H104V25.0449Z" fill="black"/>
<path d="M111 25.0449H107V29.0449H111V25.0449Z" fill="black"/>
<path d="M119 25.0449H115V29.0449H119V25.0449Z" fill="black"/>
<path d="M127 25.0449H123V29.0449H127V25.0449Z" fill="black"/>
<path d="M134 25.0449H130V29.0449H134V25.0449Z" fill="black"/>
<path d="M138 25.0449H134V29.0449H138V25.0449Z" fill="black"/>
<path d="M141 25.0449H138V29.0449H141V25.0449Z" fill="black"/>
<path d="M149 25.0449H145V29.0449H149V25.0449Z" fill="black"/>
<path d="M15 29.0449H11V33.0449H15V29.0449Z" fill="black"/>
<path d="M37 29.0449H33V33.0449H37V29.0449Z" fill="black"/>
<path d="M44 29.0449H41V33.0449H44V29.0449Z" fill="black"/>
<path d="M52 29.0449H48V33.0449H52V29.0449Z" fill="black"/>
<path d="M63 29.0449H60V33.0449H63V29.0449Z" fill="black"/>
<path d="M66 29.0449H63V33.0449H66V29.0449Z" fill="black"/>
<path d="M70 29.0449H66V33.0449H70V29.0449Z" fill="black"/>
<path d="M74 29.0449H70V33.0449H74V29.0449Z" fill="black"/>
<path d="M93 29.0449H89V33.0449H93V29.0449Z" fill="black"/>
<path d="M97 29.0449H93V33.0449H97V29.0449Z" fill="black"/>
<path d="M107 29.0449H104V33.0449H107V29.0449Z" fill="black"/>
<path d="M115 29.0449H111V33.0449H115V29.0449Z" fill="black"/>
<path d="M119 29.0449H115V33.0449H119V29.0449Z" fill="black"/>
<path d="M127 29.0449H123V33.0449H127V29.0449Z" fill="black"/>
<path d="M149 29.0449H145V33.0449H149V29.0449Z" fill="black"/>
<path d="M15 33.0449H11V37.0449H15V33.0449Z" fill="black"/>
<path d="M19 33.0449H15V37.0449H19V33.0449Z" fill="black"/>
<path d="M21 33.0449H19V37.0449H21V33.0449Z" fill="black"/>
<path d="M25 33.0449H21V37.0449H25V33.0449Z" fill="black"/>
<path d="M29 33.0449H25V37.0449H29V33.0449Z" fill="black"/>
<path d="M33 33.0449H29V37.0449H33V33.0449Z" fill="black"/>
<path d="M37 33.0449H33V37.0449H37V33.0449Z" fill="black"/>
<path d="M44 33.0449H41V37.0449H44V33.0449Z" fill="black"/>
<path d="M52 33.0449H48V37.0449H52V33.0449Z" fill="black"/>
<path d="M60 33.0449H56V37.0449H60V33.0449Z" fill="black"/>
<path d="M66 33.0449H63V37.0449H66V33.0449Z" fill="black"/>
<path d="M74 33.0449H70V37.0449H74V33.0449Z" fill="black"/>
<path d="M82 33.0449H78V37.0449H82V33.0449Z" fill="black"/>
<path d="M89 33.0449H85V37.0449H89V33.0449Z" fill="black"/>
<path d="M97 33.0449H93V37.0449H97V33.0449Z" fill="black"/>
<path d="M104 33.0449H100V37.0449H104V33.0449Z" fill="black"/>
<path d="M111 33.0449H107V37.0449H111V33.0449Z" fill="black"/>
<path d="M119 33.0449H115V37.0449H119V33.0449Z" fill="black"/>
<path d="M127 33.0449H123V37.0449H127V33.0449Z" fill="black"/>
<path d="M130 33.0449H127V37.0449H130V33.0449Z" fill="black"/>
<path d="M134 33.0449H130V37.0449H134V33.0449Z" fill="black"/>
<path d="M138 33.0449H134V37.0449H138V33.0449Z" fill="black"/>
<path d="M141 33.0449H138V37.0449H141V33.0449Z" fill="black"/>
<path d="M145 33.0449H141V37.0449H145V33.0449Z" fill="black"/>
<path d="M149 33.0449H145V37.0449H149V33.0449Z" fill="black"/>
<path d="M60 37.0449H56V41.0449H60V37.0449Z" fill="black"/>
<path d="M63 37.0449H60V41.0449H63V37.0449Z" fill="black"/>
<path d="M70 37.0449H66V41.0449H70V37.0449Z" fill="black"/>
<path d="M85 37.0449H82V41.0449H85V37.0449Z" fill="black"/>
<path d="M89 37.0449H85V41.0449H89V37.0449Z" fill="black"/>
<path d="M93 37.0449H89V41.0449H93V37.0449Z" fill="black"/>
<path d="M111 37.0449H107V41.0449H111V37.0449Z" fill="black"/>
<path d="M115 37.0449H111V41.0449H115V37.0449Z" fill="black"/>
<path d="M15 41.0449H11V44.0449H15V41.0449Z" fill="black"/>
<path d="M19 41.0449H15V44.0449H19V41.0449Z" fill="black"/>
<path d="M21 41.0449H19V44.0449H21V41.0449Z" fill="black"/>
<path d="M25 41.0449H21V44.0449H25V41.0449Z" fill="black"/>
<path d="M29 41.0449H25V44.0449H29V41.0449Z" fill="black"/>
<path d="M37 41.0449H33V44.0449H37V41.0449Z" fill="black"/>
<path d="M41 41.0449H37V44.0449H41V41.0449Z" fill="black"/>
<path d="M44 41.0449H41V44.0449H44V41.0449Z" fill="black"/>
<path d="M48 41.0449H44V44.0449H48V41.0449Z" fill="black"/>
<path d="M52 41.0449H48V44.0449H52V41.0449Z" fill="black"/>
<path d="M60 41.0449H56V44.0449H60V41.0449Z" fill="black"/>
<path d="M66 41.0449H63V44.0449H66V41.0449Z" fill="black"/>
<path d="M70 41.0449H66V44.0449H70V41.0449Z" fill="black"/>
<path d="M78 41.0449H74V44.0449H78V41.0449Z" fill="black"/>
<path d="M97 41.0449H93V44.0449H97V41.0449Z" fill="black"/>
<path d="M100 41.0449H97V44.0449H100V41.0449Z" fill="black"/>
<path d="M104 41.0449H100V44.0449H104V41.0449Z" fill="black"/>
<path d="M107 41.0449H104V44.0449H107V41.0449Z" fill="black"/>
<path d="M115 41.0449H111V44.0449H115V41.0449Z" fill="black"/>
<path d="M123 41.0449H119V44.0449H123V41.0449Z" fill="black"/>
<path d="M130 41.0449H127V44.0449H130V41.0449Z" fill="black"/>
<path d="M138 41.0449H134V44.0449H138V41.0449Z" fill="black"/>
<path d="M145 41.0449H141V44.0449H145V41.0449Z" fill="black"/>
<path d="M15 44.0449H11V48.0449H15V44.0449Z" fill="black"/>
<path d="M33 44.0449H29V48.0449H33V44.0449Z" fill="black"/>
<path d="M41 44.0449H37V48.0449H41V44.0449Z" fill="black"/>
<path d="M44 44.0449H41V48.0449H44V44.0449Z" fill="black"/>
<path d="M70 44.0449H66V48.0449H70V44.0449Z" fill="black"/>
<path d="M74 44.0449H70V48.0449H74V44.0449Z" fill="black"/>
<path d="M82 44.0449H78V48.0449H82V44.0449Z" fill="black"/>
<path d="M85 44.0449H82V48.0449H85V44.0449Z" fill="black"/>
<path d="M93 44.0449H89V48.0449H93V44.0449Z" fill="black"/>
<path d="M97 44.0449H93V48.0449H97V44.0449Z" fill="black"/>
<path d="M100 44.0449H97V48.0449H100V44.0449Z" fill="black"/>
<path d="M107 44.0449H104V48.0449H107V44.0449Z" fill="black"/>
<path d="M119 44.0449H115V48.0449H119V44.0449Z" fill="black"/>
<path d="M130 44.0449H127V48.0449H130V44.0449Z" fill="black"/>
<path d="M138 44.0449H134V48.0449H138V44.0449Z" fill="black"/>
<path d="M141 44.0449H138V48.0449H141V44.0449Z" fill="black"/>
<path d="M145 44.0449H141V48.0449H145V44.0449Z" fill="black"/>
<path d="M15 48.0449H11V52.0449H15V48.0449Z" fill="black"/>
<path d="M19 48.0449H15V52.0449H19V48.0449Z" fill="black"/>
<path d="M37 48.0449H33V52.0449H37V48.0449Z" fill="black"/>
<path d="M41 48.0449H37V52.0449H41V48.0449Z" fill="black"/>
<path d="M56 48.0449H52V52.0449H56V48.0449Z" fill="black"/>
<path d="M60 48.0449H56V52.0449H60V48.0449Z" fill="black"/>
<path d="M93 48.0449H89V52.0449H93V48.0449Z" fill="black"/>
<path d="M107 48.0449H104V52.0449H107V48.0449Z" fill="black"/>
<path d="M111 48.0449H107V52.0449H111V48.0449Z" fill="black"/>
<path d="M115 48.0449H111V52.0449H115V48.0449Z" fill="black"/>
<path d="M119 48.0449H115V52.0449H119V48.0449Z" fill="black"/>
<path d="M123 48.0449H119V52.0449H123V48.0449Z" fill="black"/>
<path d="M127 48.0449H123V52.0449H127V48.0449Z" fill="black"/>
<path d="M138 48.0449H134V52.0449H138V48.0449Z" fill="black"/>
<path d="M141 48.0449H138V52.0449H141V48.0449Z" fill="black"/>
<path d="M149 48.0449H145V52.0449H149V48.0449Z" fill="black"/>
<path d="M19 52.0449H15V56.0449H19V52.0449Z" fill="black"/>
<path d="M21 52.0449H19V56.0449H21V52.0449Z" fill="black"/>
<path d="M25 52.0449H21V56.0449H25V52.0449Z" fill="black"/>
<path d="M33 52.0449H29V56.0449H33V52.0449Z" fill="black"/>
<path d="M48 52.0449H44V56.0449H48V52.0449Z" fill="black"/>
<path d="M52 52.0449H48V56.0449H52V52.0449Z" fill="black"/>
<path d="M56 52.0449H52V56.0449H56V52.0449Z" fill="black"/>
<path d="M66 52.0449H63V56.0449H66V52.0449Z" fill="black"/>
<path d="M74 52.0449H70V56.0449H74V52.0449Z" fill="black"/>
<path d="M89 52.0449H85V56.0449H89V52.0449Z" fill="black"/>
<path d="M93 52.0449H89V56.0449H93V52.0449Z" fill="black"/>
<path d="M100 52.0449H97V56.0449H100V52.0449Z" fill="black"/>
<path d="M111 52.0449H107V56.0449H111V52.0449Z" fill="black"/>
<path d="M119 52.0449H115V56.0449H119V52.0449Z" fill="black"/>
<path d="M123 52.0449H119V56.0449H123V52.0449Z" fill="black"/>
<path d="M127 52.0449H123V56.0449H127V52.0449Z" fill="black"/>
<path d="M130 52.0449H127V56.0449H130V52.0449Z" fill="black"/>
<path d="M134 52.0449H130V56.0449H134V52.0449Z" fill="black"/>
<path d="M138 52.0449H134V56.0449H138V52.0449Z" fill="black"/>
<path d="M145 52.0449H141V56.0449H145V52.0449Z" fill="black"/>
<path d="M21 56.0449H19V60.0449H21V56.0449Z" fill="black"/>
<path d="M25 56.0449H21V60.0449H25V56.0449Z" fill="black"/>
<path d="M29 56.0449H25V60.0449H29V56.0449Z" fill="black"/>
<path d="M37 56.0449H33V60.0449H37V56.0449Z" fill="black"/>
<path d="M41 56.0449H37V60.0449H41V56.0449Z" fill="black"/>
<path d="M48 56.0449H44V60.0449H48V56.0449Z" fill="black"/>
<path d="M52 56.0449H48V60.0449H52V56.0449Z" fill="black"/>
<path d="M56 56.0449H52V60.0449H56V56.0449Z" fill="black"/>
<path d="M74 56.0449H70V60.0449H74V56.0449Z" fill="black"/>
<path d="M78 56.0449H74V60.0449H78V56.0449Z" fill="black"/>
<path d="M100 56.0449H97V60.0449H100V56.0449Z" fill="black"/>
<path d="M104 56.0449H100V60.0449H104V56.0449Z" fill="black"/>
<path d="M107 56.0449H104V60.0449H107V56.0449Z" fill="black"/>
<path d="M111 56.0449H107V60.0449H111V56.0449Z" fill="black"/>
<path d="M127 56.0449H123V60.0449H127V56.0449Z" fill="black"/>
<path d="M134 56.0449H130V60.0449H134V56.0449Z" fill="black"/>
<path d="M138 56.0449H134V60.0449H138V56.0449Z" fill="black"/>
<path d="M141 56.0449H138V60.0449H141V56.0449Z" fill="black"/>
<path d="M149 56.0449H145V60.0449H149V56.0449Z" fill="black"/>
<path d="M15 60.0449H11V63.0449H15V60.0449Z" fill="black"/>
<path d="M19 60.0449H15V63.0449H19V60.0449Z" fill="black"/>
<path d="M21 60.0449H19V63.0449H21V60.0449Z" fill="black"/>
<path d="M29 60.0449H25V63.0449H29V60.0449Z" fill="black"/>
<path d="M41 60.0449H37V63.0449H41V60.0449Z" fill="black"/>
<path d="M44 60.0449H41V63.0449H44V60.0449Z" fill="black"/>
<path d="M60 60.0449H56V63.0449H60V60.0449Z" fill="black"/>
<path d="M63 60.0449H60V63.0449H63V60.0449Z" fill="black"/>
<path d="M66 60.0449H63V63.0449H66V60.0449Z" fill="black"/>
<path d="M70 60.0449H66V63.0449H70V60.0449Z" fill="black"/>
<path d="M78 60.0449H74V63.0449H78V60.0449Z" fill="black"/>
<path d="M82 60.0449H78V63.0449H82V60.0449Z" fill="black"/>
<path d="M85 60.0449H82V63.0449H85V60.0449Z" fill="black"/>
<path d="M89 60.0449H85V63.0449H89V60.0449Z" fill="black"/>
<path d="M100 60.0449H97V63.0449H100V60.0449Z" fill="black"/>
<path d="M130 60.0449H127V63.0449H130V60.0449Z" fill="black"/>
<path d="M141 60.0449H138V63.0449H141V60.0449Z" fill="black"/>
<path d="M145 60.0449H141V63.0449H145V60.0449Z" fill="black"/>
<path d="M15 63.0449H11V66.0449H15V63.0449Z" fill="black"/>
<path d="M21 63.0449H19V66.0449H21V63.0449Z" fill="black"/>
<path d="M29 63.0449H25V66.0449H29V63.0449Z" fill="black"/>
<path d="M33 63.0449H29V66.0449H33V63.0449Z" fill="black"/>
<path d="M37 63.0449H33V66.0449H37V63.0449Z" fill="black"/>
<path d="M41 63.0449H37V66.0449H41V63.0449Z" fill="black"/>
<path d="M52 63.0449H48V66.0449H52V63.0449Z" fill="black"/>
<path d="M63 63.0449H60V66.0449H63V63.0449Z" fill="black"/>
<path d="M66 63.0449H63V66.0449H66V63.0449Z" fill="black"/>
<path d="M70 63.0449H66V66.0449H70V63.0449Z" fill="black"/>
<path d="M74 63.0449H70V66.0449H74V63.0449Z" fill="black"/>
<path d="M78 63.0449H74V66.0449H78V63.0449Z" fill="black"/>
<path d="M89 63.0449H85V66.0449H89V63.0449Z" fill="black"/>
<path d="M97 63.0449H93V66.0449H97V63.0449Z" fill="black"/>
<path d="M111 63.0449H107V66.0449H111V63.0449Z" fill="black"/>
<path d="M115 63.0449H111V66.0449H115V63.0449Z" fill="black"/>
<path d="M119 63.0449H115V66.0449H119V63.0449Z" fill="black"/>
<path d="M123 63.0449H119V66.0449H123V63.0449Z" fill="black"/>
<path d="M130 63.0449H127V66.0449H130V63.0449Z" fill="black"/>
<path d="M134 63.0449H130V66.0449H134V63.0449Z" fill="black"/>
<path d="M141 63.0449H138V66.0449H141V63.0449Z" fill="black"/>
<path d="M145 63.0449H141V66.0449H145V63.0449Z" fill="black"/>
<path d="M149 63.0449H145V66.0449H149V63.0449Z" fill="black"/>
<path d="M33 66.0449H29V70.0449H33V66.0449Z" fill="black"/>
<path d="M44 66.0449H41V70.0449H44V66.0449Z" fill="black"/>
<path d="M48 66.0449H44V70.0449H48V66.0449Z" fill="black"/>
<path d="M60 66.0449H56V70.0449H60V66.0449Z" fill="black"/>
<path d="M63 66.0449H60V70.0449H63V66.0449Z" fill="black"/>
<path d="M70 66.0449H66V70.0449H70V66.0449Z" fill="black"/>
<path d="M82 66.0449H78V70.0449H82V66.0449Z" fill="black"/>
<path d="M93 66.0449H89V70.0449H93V66.0449Z" fill="black"/>
<path d="M100 66.0449H97V70.0449H100V66.0449Z" fill="black"/>
<path d="M104 66.0449H100V70.0449H104V66.0449Z" fill="black"/>
<path d="M115 66.0449H111V70.0449H115V66.0449Z" fill="black"/>
<path d="M119 66.0449H115V70.0449H119V66.0449Z" fill="black"/>
<path d="M130 66.0449H127V70.0449H130V66.0449Z" fill="black"/>
<path d="M138 66.0449H134V70.0449H138V66.0449Z" fill="black"/>
<path d="M149 66.0449H145V70.0449H149V66.0449Z" fill="black"/>
<path d="M19 70.0449H15V74.0449H19V70.0449Z" fill="black"/>
<path d="M29 70.0449H25V74.0449H29V70.0449Z" fill="black"/>
<path d="M33 70.0449H29V74.0449H33V70.0449Z" fill="black"/>
<path d="M37 70.0449H33V74.0449H37V70.0449Z" fill="black"/>
<path d="M60 70.0449H56V74.0449H60V70.0449Z" fill="black"/>
<path d="M66 70.0449H63V74.0449H66V70.0449Z" fill="black"/>
<path d="M70 70.0449H66V74.0449H70V70.0449Z" fill="black"/>
<path d="M97 70.0449H93V74.0449H97V70.0449Z" fill="black"/>
<path d="M104 70.0449H100V74.0449H104V70.0449Z" fill="black"/>
<path d="M107 70.0449H104V74.0449H107V70.0449Z" fill="black"/>
<path d="M111 70.0449H107V74.0449H111V70.0449Z" fill="black"/>
<path d="M115 70.0449H111V74.0449H115V70.0449Z" fill="black"/>
<path d="M123 70.0449H119V74.0449H123V70.0449Z" fill="black"/>
<path d="M127 70.0449H123V74.0449H127V70.0449Z" fill="black"/>
<path d="M134 70.0449H130V74.0449H134V70.0449Z" fill="black"/>
<path d="M138 70.0449H134V74.0449H138V70.0449Z" fill="black"/>
<path d="M141 70.0449H138V74.0449H141V70.0449Z" fill="black"/>
<path d="M149 70.0449H145V74.0449H149V70.0449Z" fill="black"/>
<path d="M25 74.0449H21V78.0449H25V74.0449Z" fill="black"/>
<path d="M29 74.0449H25V78.0449H29V74.0449Z" fill="black"/>
<path d="M41 74.0449H37V78.0449H41V74.0449Z" fill="black"/>
<path d="M70 74.0449H66V78.0449H70V74.0449Z" fill="black"/>
<path d="M74 74.0449H70V78.0449H74V74.0449Z" fill="black"/>
<path d="M78 74.0449H74V78.0449H78V74.0449Z" fill="black"/>
<path d="M85 74.0449H82V78.0449H85V74.0449Z" fill="black"/>
<path d="M89 74.0449H85V78.0449H89V74.0449Z" fill="black"/>
<path d="M93 74.0449H89V78.0449H93V74.0449Z" fill="black"/>
<path d="M97 74.0449H93V78.0449H97V74.0449Z" fill="black"/>
<path d="M100 74.0449H97V78.0449H100V74.0449Z" fill="black"/>
<path d="M119 74.0449H115V78.0449H119V74.0449Z" fill="black"/>
<path d="M130 74.0449H127V78.0449H130V74.0449Z" fill="black"/>
<path d="M141 74.0449H138V78.0449H141V74.0449Z" fill="black"/>
<path d="M145 74.0449H141V78.0449H145V74.0449Z" fill="black"/>
<path d="M33 78.0449H29V82.0449H33V78.0449Z" fill="black"/>
<path d="M37 78.0449H33V82.0449H37V78.0449Z" fill="black"/>
<path d="M41 78.0449H37V82.0449H41V78.0449Z" fill="black"/>
<path d="M44 78.0449H41V82.0449H44V78.0449Z" fill="black"/>
<path d="M56 78.0449H52V82.0449H56V78.0449Z" fill="black"/>
<path d="M60 78.0449H56V82.0449H60V78.0449Z" fill="black"/>
<path d="M78 78.0449H74V82.0449H78V78.0449Z" fill="black"/>
<path d="M89 78.0449H85V82.0449H89V78.0449Z" fill="black"/>
<path d="M111 78.0449H107V82.0449H111V78.0449Z" fill="black"/>
<path d="M115 78.0449H111V82.0449H115V78.0449Z" fill="black"/>
<path d="M127 78.0449H123V82.0449H127V78.0449Z" fill="black"/>
<path d="M130 78.0449H127V82.0449H130V78.0449Z" fill="black"/>
<path d="M134 78.0449H130V82.0449H134V78.0449Z" fill="black"/>
<path d="M141 78.0449H138V82.0449H141V78.0449Z" fill="black"/>
<path d="M145 78.0449H141V82.0449H145V78.0449Z" fill="black"/>
<path d="M149 78.0449H145V82.0449H149V78.0449Z" fill="black"/>
<path d="M15 82.0449H11V85.0449H15V82.0449Z" fill="black"/>
<path d="M19 82.0449H15V85.0449H19V82.0449Z" fill="black"/>
<path d="M25 82.0449H21V85.0449H25V82.0449Z" fill="black"/>
<path d="M44 82.0449H41V85.0449H44V82.0449Z" fill="black"/>
<path d="M48 82.0449H44V85.0449H48V82.0449Z" fill="black"/>
<path d="M52 82.0449H48V85.0449H52V82.0449Z" fill="black"/>
<path d="M56 82.0449H52V85.0449H56V82.0449Z" fill="black"/>
<path d="M66 82.0449H63V85.0449H66V82.0449Z" fill="black"/>
<path d="M74 82.0449H70V85.0449H74V82.0449Z" fill="black"/>
<path d="M85 82.0449H82V85.0449H85V82.0449Z" fill="black"/>
<path d="M89 82.0449H85V85.0449H89V82.0449Z" fill="black"/>
<path d="M93 82.0449H89V85.0449H93V82.0449Z" fill="black"/>
<path d="M97 82.0449H93V85.0449H97V82.0449Z" fill="black"/>
<path d="M111 82.0449H107V85.0449H111V82.0449Z" fill="black"/>
<path d="M123 82.0449H119V85.0449H123V82.0449Z" fill="black"/>
<path d="M130 82.0449H127V85.0449H130V82.0449Z" fill="black"/>
<path d="M134 82.0449H130V85.0449H134V82.0449Z" fill="black"/>
<path d="M149 82.0449H145V85.0449H149V82.0449Z" fill="black"/>
<path d="M15 85.0449H11V89.0449H15V85.0449Z" fill="black"/>
<path d="M37 85.0449H33V89.0449H37V85.0449Z" fill="black"/>
<path d="M41 85.0449H37V89.0449H41V85.0449Z" fill="black"/>
<path d="M48 85.0449H44V89.0449H48V85.0449Z" fill="black"/>
<path d="M52 85.0449H48V89.0449H52V85.0449Z" fill="black"/>
<path d="M56 85.0449H52V89.0449H56V85.0449Z" fill="black"/>
<path d="M85 85.0449H82V89.0449H85V85.0449Z" fill="black"/>
<path d="M97 85.0449H93V89.0449H97V85.0449Z" fill="black"/>
<path d="M100 85.0449H97V89.0449H100V85.0449Z" fill="black"/>
<path d="M107 85.0449H104V89.0449H107V85.0449Z" fill="black"/>
<path d="M111 85.0449H107V89.0449H111V85.0449Z" fill="black"/>
<path d="M115 85.0449H111V89.0449H115V85.0449Z" fill="black"/>
<path d="M119 85.0449H115V89.0449H119V85.0449Z" fill="black"/>
<path d="M123 85.0449H119V89.0449H123V85.0449Z" fill="black"/>
<path d="M127 85.0449H123V89.0449H127V85.0449Z" fill="black"/>
<path d="M134 85.0449H130V89.0449H134V85.0449Z" fill="black"/>
<path d="M141 85.0449H138V89.0449H141V85.0449Z" fill="black"/>
<path d="M145 85.0449H141V89.0449H145V85.0449Z" fill="black"/>
<path d="M149 85.0449H145V89.0449H149V85.0449Z" fill="black"/>
<path d="M19 89.0449H15V93.0449H19V89.0449Z" fill="black"/>
<path d="M25 89.0449H21V93.0449H25V89.0449Z" fill="black"/>
<path d="M29 89.0449H25V93.0449H29V89.0449Z" fill="black"/>
<path d="M33 89.0449H29V93.0449H33V89.0449Z" fill="black"/>
<path d="M41 89.0449H37V93.0449H41V89.0449Z" fill="black"/>
<path d="M48 89.0449H44V93.0449H48V89.0449Z" fill="black"/>
<path d="M52 89.0449H48V93.0449H52V89.0449Z" fill="black"/>
<path d="M60 89.0449H56V93.0449H60V89.0449Z" fill="black"/>
<path d="M63 89.0449H60V93.0449H63V89.0449Z" fill="black"/>
<path d="M66 89.0449H63V93.0449H66V89.0449Z" fill="black"/>
<path d="M70 89.0449H66V93.0449H70V89.0449Z" fill="black"/>
<path d="M78 89.0449H74V93.0449H78V89.0449Z" fill="black"/>
<path d="M82 89.0449H78V93.0449H82V89.0449Z" fill="black"/>
<path d="M85 89.0449H82V93.0449H85V89.0449Z" fill="black"/>
<path d="M89 89.0449H85V93.0449H89V89.0449Z" fill="black"/>
<path d="M93 89.0449H89V93.0449H93V89.0449Z" fill="black"/>
<path d="M97 89.0449H93V93.0449H97V89.0449Z" fill="black"/>
<path d="M100 89.0449H97V93.0449H100V89.0449Z" fill="black"/>
<path d="M104 89.0449H100V93.0449H104V89.0449Z" fill="black"/>
<path d="M111 89.0449H107V93.0449H111V89.0449Z" fill="black"/>
<path d="M119 89.0449H115V93.0449H119V89.0449Z" fill="black"/>
<path d="M130 89.0449H127V93.0449H130V89.0449Z" fill="black"/>
<path d="M138 89.0449H134V93.0449H138V89.0449Z" fill="black"/>
<path d="M145 89.0449H141V93.0449H145V89.0449Z" fill="black"/>
<path d="M15 93.0449H11V97.0449H15V93.0449Z" fill="black"/>
<path d="M29 93.0449H25V97.0449H29V93.0449Z" fill="black"/>
<path d="M37 93.0449H33V97.0449H37V93.0449Z" fill="black"/>
<path d="M41 93.0449H37V97.0449H41V93.0449Z" fill="black"/>
<path d="M63 93.0449H60V97.0449H63V93.0449Z" fill="black"/>
<path d="M66 93.0449H63V97.0449H66V93.0449Z" fill="black"/>
<path d="M70 93.0449H66V97.0449H70V93.0449Z" fill="black"/>
<path d="M74 93.0449H70V97.0449H74V93.0449Z" fill="black"/>
<path d="M82 93.0449H78V97.0449H82V93.0449Z" fill="black"/>
<path d="M93 93.0449H89V97.0449H93V93.0449Z" fill="black"/>
<path d="M97 93.0449H93V97.0449H97V93.0449Z" fill="black"/>
<path d="M104 93.0449H100V97.0449H104V93.0449Z" fill="black"/>
<path d="M111 93.0449H107V97.0449H111V93.0449Z" fill="black"/>
<path d="M115 93.0449H111V97.0449H115V93.0449Z" fill="black"/>
<path d="M119 93.0449H115V97.0449H119V93.0449Z" fill="black"/>
<path d="M123 93.0449H119V97.0449H123V93.0449Z" fill="black"/>
<path d="M130 93.0449H127V97.0449H130V93.0449Z" fill="black"/>
<path d="M134 93.0449H130V97.0449H134V93.0449Z" fill="black"/>
<path d="M138 93.0449H134V97.0449H138V93.0449Z" fill="black"/>
<path d="M145 93.0449H141V97.0449H145V93.0449Z" fill="black"/>
<path d="M149 93.0449H145V97.0449H149V93.0449Z" fill="black"/>
<path d="M15 97.0449H11V100.045H15V97.0449Z" fill="black"/>
<path d="M21 97.0449H19V100.045H21V97.0449Z" fill="black"/>
<path d="M29 97.0449H25V100.045H29V97.0449Z" fill="black"/>
<path d="M33 97.0449H29V100.045H33V97.0449Z" fill="black"/>
<path d="M44 97.0449H41V100.045H44V97.0449Z" fill="black"/>
<path d="M48 97.0449H44V100.045H48V97.0449Z" fill="black"/>
<path d="M60 97.0449H56V100.045H60V97.0449Z" fill="black"/>
<path d="M63 97.0449H60V100.045H63V97.0449Z" fill="black"/>
<path d="M85 97.0449H82V100.045H85V97.0449Z" fill="black"/>
<path d="M93 97.0449H89V100.045H93V97.0449Z" fill="black"/>
<path d="M119 97.0449H115V100.045H119V97.0449Z" fill="black"/>
<path d="M123 97.0449H119V100.045H123V97.0449Z" fill="black"/>
<path d="M130 97.0449H127V100.045H130V97.0449Z" fill="black"/>
<path d="M134 97.0449H130V100.045H134V97.0449Z" fill="black"/>
<path d="M149 97.0449H145V100.045H149V97.0449Z" fill="black"/>
<path d="M21 100.045H19V104.045H21V100.045Z" fill="black"/>
<path d="M25 100.045H21V104.045H25V100.045Z" fill="black"/>
<path d="M29 100.045H25V104.045H29V100.045Z" fill="black"/>
<path d="M37 100.045H33V104.045H37V100.045Z" fill="black"/>
<path d="M60 100.045H56V104.045H60V100.045Z" fill="black"/>
<path d="M66 100.045H63V104.045H66V100.045Z" fill="black"/>
<path d="M70 100.045H66V104.045H70V100.045Z" fill="black"/>
<path d="M74 100.045H70V104.045H74V100.045Z" fill="black"/>
<path d="M89 100.045H85V104.045H89V100.045Z" fill="black"/>
<path d="M97 100.045H93V104.045H97V100.045Z" fill="black"/>
<path d="M104 100.045H100V104.045H104V100.045Z" fill="black"/>
<path d="M107 100.045H104V104.045H107V100.045Z" fill="black"/>
<path d="M111 100.045H107V104.045H111V100.045Z" fill="black"/>
<path d="M123 100.045H119V104.045H123V100.045Z" fill="black"/>
<path d="M127 100.045H123V104.045H127V100.045Z" fill="black"/>
<path d="M134 100.045H130V104.045H134V100.045Z" fill="black"/>
<path d="M138 100.045H134V104.045H138V100.045Z" fill="black"/>
<path d="M141 100.045H138V104.045H141V100.045Z" fill="black"/>
<path d="M145 100.045H141V104.045H145V100.045Z" fill="black"/>
<path d="M149 100.045H145V104.045H149V100.045Z" fill="black"/>
<path d="M15 104.045H11V107.045H15V104.045Z" fill="black"/>
<path d="M21 104.045H19V107.045H21V104.045Z" fill="black"/>
<path d="M29 104.045H25V107.045H29V104.045Z" fill="black"/>
<path d="M33 104.045H29V107.045H33V104.045Z" fill="black"/>
<path d="M52 104.045H48V107.045H52V104.045Z" fill="black"/>
<path d="M70 104.045H66V107.045H70V104.045Z" fill="black"/>
<path d="M74 104.045H70V107.045H74V104.045Z" fill="black"/>
<path d="M78 104.045H74V107.045H78V104.045Z" fill="black"/>
<path d="M82 104.045H78V107.045H82V104.045Z" fill="black"/>
<path d="M85 104.045H82V107.045H85V104.045Z" fill="black"/>
<path d="M89 104.045H85V107.045H89V104.045Z" fill="black"/>
<path d="M93 104.045H89V107.045H93V104.045Z" fill="black"/>
<path d="M97 104.045H93V107.045H97V104.045Z" fill="black"/>
<path d="M100 104.045H97V107.045H100V104.045Z" fill="black"/>
<path d="M119 104.045H115V107.045H119V104.045Z" fill="black"/>
<path d="M130 104.045H127V107.045H130V104.045Z" fill="black"/>
<path d="M141 104.045H138V107.045H141V104.045Z" fill="black"/>
<path d="M145 104.045H141V107.045H145V104.045Z" fill="black"/>
<path d="M15 107.045H11V111.045H15V107.045Z" fill="black"/>
<path d="M37 107.045H33V111.045H37V107.045Z" fill="black"/>
<path d="M41 107.045H37V111.045H41V107.045Z" fill="black"/>
<path d="M44 107.045H41V111.045H44V107.045Z" fill="black"/>
<path d="M48 107.045H44V111.045H48V107.045Z" fill="black"/>
<path d="M56 107.045H52V111.045H56V107.045Z" fill="black"/>
<path d="M60 107.045H56V111.045H60V107.045Z" fill="black"/>
<path d="M70 107.045H66V111.045H70V107.045Z" fill="black"/>
<path d="M74 107.045H70V111.045H74V107.045Z" fill="black"/>
<path d="M78 107.045H74V111.045H78V107.045Z" fill="black"/>
<path d="M93 107.045H89V111.045H93V107.045Z" fill="black"/>
<path d="M97 107.045H93V111.045H97V107.045Z" fill="black"/>
<path d="M115 107.045H111V111.045H115V107.045Z" fill="black"/>
<path d="M123 107.045H119V111.045H123V107.045Z" fill="black"/>
<path d="M130 107.045H127V111.045H130V107.045Z" fill="black"/>
<path d="M134 107.045H130V111.045H134V107.045Z" fill="black"/>
<path d="M138 107.045H134V111.045H138V107.045Z" fill="black"/>
<path d="M145 107.045H141V111.045H145V107.045Z" fill="black"/>
<path d="M149 107.045H145V111.045H149V107.045Z" fill="black"/>
<path d="M15 111.045H11V115.045H15V111.045Z" fill="black"/>
<path d="M21 111.045H19V115.045H21V111.045Z" fill="black"/>
<path d="M25 111.045H21V115.045H25V111.045Z" fill="black"/>
<path d="M29 111.045H25V115.045H29V111.045Z" fill="black"/>
<path d="M33 111.045H29V115.045H33V111.045Z" fill="black"/>
<path d="M48 111.045H44V115.045H48V111.045Z" fill="black"/>
<path d="M56 111.045H52V115.045H56V111.045Z" fill="black"/>
<path d="M66 111.045H63V115.045H66V111.045Z" fill="black"/>
<path d="M70 111.045H66V115.045H70V111.045Z" fill="black"/>
<path d="M74 111.045H70V115.045H74V111.045Z" fill="black"/>
<path d="M82 111.045H78V115.045H82V111.045Z" fill="black"/>
<path d="M85 111.045H82V115.045H85V111.045Z" fill="black"/>
<path d="M93 111.045H89V115.045H93V111.045Z" fill="black"/>
<path d="M97 111.045H93V115.045H97V111.045Z" fill="black"/>
<path d="M104 111.045H100V115.045H104V111.045Z" fill="black"/>
<path d="M111 111.045H107V115.045H111V111.045Z" fill="black"/>
<path d="M115 111.045H111V115.045H115V111.045Z" fill="black"/>
<path d="M119 111.045H115V115.045H119V111.045Z" fill="black"/>
<path d="M123 111.045H119V115.045H123V111.045Z" fill="black"/>
<path d="M127 111.045H123V115.045H127V111.045Z" fill="black"/>
<path d="M130 111.045H127V115.045H130V111.045Z" fill="black"/>
<path d="M149 111.045H145V115.045H149V111.045Z" fill="black"/>
<path d="M15 115.045H11V119.045H15V115.045Z" fill="black"/>
<path d="M21 115.045H19V119.045H21V115.045Z" fill="black"/>
<path d="M37 115.045H33V119.045H37V115.045Z" fill="black"/>
<path d="M48 115.045H44V119.045H48V115.045Z" fill="black"/>
<path d="M56 115.045H52V119.045H56V115.045Z" fill="black"/>
<path d="M70 115.045H66V119.045H70V115.045Z" fill="black"/>
<path d="M74 115.045H70V119.045H74V115.045Z" fill="black"/>
<path d="M78 115.045H74V119.045H78V115.045Z" fill="black"/>
<path d="M82 115.045H78V119.045H82V115.045Z" fill="black"/>
<path d="M97 115.045H93V119.045H97V115.045Z" fill="black"/>
<path d="M100 115.045H97V119.045H100V115.045Z" fill="black"/>
<path d="M104 115.045H100V119.045H104V115.045Z" fill="black"/>
<path d="M107 115.045H104V119.045H107V115.045Z" fill="black"/>
<path d="M111 115.045H107V119.045H111V115.045Z" fill="black"/>
<path d="M115 115.045H111V119.045H115V115.045Z" fill="black"/>
<path d="M119 115.045H115V119.045H119V115.045Z" fill="black"/>
<path d="M123 115.045H119V119.045H123V115.045Z" fill="black"/>
<path d="M127 115.045H123V119.045H127V115.045Z" fill="black"/>
<path d="M130 115.045H127V119.045H130V115.045Z" fill="black"/>
<path d="M134 115.045H130V119.045H134V115.045Z" fill="black"/>
<path d="M138 115.045H134V119.045H138V115.045Z" fill="black"/>
<path d="M141 115.045H138V119.045H141V115.045Z" fill="black"/>
<path d="M44 119.045H41V123.045H44V119.045Z" fill="black"/>
<path d="M48 119.045H44V123.045H48V119.045Z" fill="black"/>
<path d="M52 119.045H48V123.045H52V119.045Z" fill="black"/>
<path d="M60 119.045H56V123.045H60V119.045Z" fill="black"/>
<path d="M63 119.045H60V123.045H63V119.045Z" fill="black"/>
<path d="M66 119.045H63V123.045H66V119.045Z" fill="black"/>
<path d="M70 119.045H66V123.045H70V119.045Z" fill="black"/>
<path d="M74 119.045H70V123.045H74V119.045Z" fill="black"/>
<path d="M82 119.045H78V123.045H82V119.045Z" fill="black"/>
<path d="M85 119.045H82V123.045H85V119.045Z" fill="black"/>
<path d="M89 119.045H85V123.045H89V119.045Z" fill="black"/>
<path d="M93 119.045H89V123.045H93V119.045Z" fill="black"/>
<path d="M100 119.045H97V123.045H100V119.045Z" fill="black"/>
<path d="M107 119.045H104V123.045H107V119.045Z" fill="black"/>
<path d="M119 119.045H115V123.045H119V119.045Z" fill="black"/>
<path d="M134 119.045H130V123.045H134V119.045Z" fill="black"/>
<path d="M138 119.045H134V123.045H138V119.045Z" fill="black"/>
<path d="M15 123.045H11V127.045H15V123.045Z" fill="black"/>
<path d="M19 123.045H15V127.045H19V123.045Z" fill="black"/>
<path d="M21 123.045H19V127.045H21V123.045Z" fill="black"/>
<path d="M25 123.045H21V127.045H25V123.045Z" fill="black"/>
<path d="M29 123.045H25V127.045H29V123.045Z" fill="black"/>
<path d="M33 123.045H29V127.045H33V123.045Z" fill="black"/>
<path d="M37 123.045H33V127.045H37V123.045Z" fill="black"/>
<path d="M44 123.045H41V127.045H44V123.045Z" fill="black"/>
<path d="M48 123.045H44V127.045H48V123.045Z" fill="black"/>
<path d="M52 123.045H48V127.045H52V123.045Z" fill="black"/>
<path d="M63 123.045H60V127.045H63V123.045Z" fill="black"/>
<path d="M66 123.045H63V127.045H66V123.045Z" fill="black"/>
<path d="M70 123.045H66V127.045H70V123.045Z" fill="black"/>
<path d="M74 123.045H70V127.045H74V123.045Z" fill="black"/>
<path d="M78 123.045H74V127.045H78V123.045Z" fill="black"/>
<path d="M89 123.045H85V127.045H89V123.045Z" fill="black"/>
<path d="M93 123.045H89V127.045H93V123.045Z" fill="black"/>
<path d="M97 123.045H93V127.045H97V123.045Z" fill="black"/>
<path d="M119 123.045H115V127.045H119V123.045Z" fill="black"/>
<path d="M127 123.045H123V127.045H127V123.045Z" fill="black"/>
<path d="M134 123.045H130V127.045H134V123.045Z" fill="black"/>
<path d="M145 123.045H141V127.045H145V123.045Z" fill="black"/>
<path d="M149 123.045H145V127.045H149V123.045Z" fill="black"/>
<path d="M15 127.045H11V130.045H15V127.045Z" fill="black"/>
<path d="M37 127.045H33V130.045H37V127.045Z" fill="black"/>
<path d="M60 127.045H56V130.045H60V127.045Z" fill="black"/>
<path d="M63 127.045H60V130.045H63V127.045Z" fill="black"/>
<path d="M70 127.045H66V130.045H70V127.045Z" fill="black"/>
<path d="M74 127.045H70V130.045H74V127.045Z" fill="black"/>
<path d="M82 127.045H78V130.045H82V127.045Z" fill="black"/>
<path d="M93 127.045H89V130.045H93V127.045Z" fill="black"/>
<path d="M100 127.045H97V130.045H100V127.045Z" fill="black"/>
<path d="M111 127.045H107V130.045H111V127.045Z" fill="black"/>
<path d="M119 127.045H115V130.045H119V127.045Z" fill="black"/>
<path d="M134 127.045H130V130.045H134V127.045Z" fill="black"/>
<path d="M145 127.045H141V130.045H145V127.045Z" fill="black"/>
<path d="M149 127.045H145V130.045H149V127.045Z" fill="black"/>
<path d="M15 130.045H11V134.045H15V130.045Z" fill="black"/>
<path d="M21 130.045H19V134.045H21V130.045Z" fill="black"/>
<path d="M25 130.045H21V134.045H25V130.045Z" fill="black"/>
<path d="M29 130.045H25V134.045H29V130.045Z" fill="black"/>
<path d="M37 130.045H33V134.045H37V130.045Z" fill="black"/>
<path d="M44 130.045H41V134.045H44V130.045Z" fill="black"/>
<path d="M60 130.045H56V134.045H60V130.045Z" fill="black"/>
<path d="M66 130.045H63V134.045H66V130.045Z" fill="black"/>
<path d="M74 130.045H70V134.045H74V130.045Z" fill="black"/>
<path d="M78 130.045H74V134.045H78V130.045Z" fill="black"/>
<path d="M97 130.045H93V134.045H97V130.045Z" fill="black"/>
<path d="M100 130.045H97V134.045H100V130.045Z" fill="black"/>
<path d="M107 130.045H104V134.045H107V130.045Z" fill="black"/>
<path d="M111 130.045H107V134.045H111V130.045Z" fill="black"/>
<path d="M115 130.045H111V134.045H115V130.045Z" fill="black"/>
<path d="M119 130.045H115V134.045H119V130.045Z" fill="black"/>
<path d="M123 130.045H119V134.045H123V130.045Z" fill="black"/>
<path d="M127 130.045H123V134.045H127V130.045Z" fill="black"/>
<path d="M130 130.045H127V134.045H130V130.045Z" fill="black"/>
<path d="M134 130.045H130V134.045H134V130.045Z" fill="black"/>
<path d="M141 130.045H138V134.045H141V130.045Z" fill="black"/>
<path d="M149 130.045H145V134.045H149V130.045Z" fill="black"/>
<path d="M15 134.045H11V138.045H15V134.045Z" fill="black"/>
<path d="M21 134.045H19V138.045H21V134.045Z" fill="black"/>
<path d="M25 134.045H21V138.045H25V134.045Z" fill="black"/>
<path d="M29 134.045H25V138.045H29V134.045Z" fill="black"/>
<path d="M37 134.045H33V138.045H37V134.045Z" fill="black"/>
<path d="M44 134.045H41V138.045H44V134.045Z" fill="black"/>
<path d="M82 134.045H78V138.045H82V134.045Z" fill="black"/>
<path d="M85 134.045H82V138.045H85V134.045Z" fill="black"/>
<path d="M89 134.045H85V138.045H89V134.045Z" fill="black"/>
<path d="M97 134.045H93V138.045H97V134.045Z" fill="black"/>
<path d="M100 134.045H97V138.045H100V134.045Z" fill="black"/>
<path d="M104 134.045H100V138.045H104V134.045Z" fill="black"/>
<path d="M107 134.045H104V138.045H107V134.045Z" fill="black"/>
<path d="M119 134.045H115V138.045H119V134.045Z" fill="black"/>
<path d="M127 134.045H123V138.045H127V134.045Z" fill="black"/>
<path d="M134 134.045H130V138.045H134V134.045Z" fill="black"/>
<path d="M138 134.045H134V138.045H138V134.045Z" fill="black"/>
<path d="M141 134.045H138V138.045H141V134.045Z" fill="black"/>
<path d="M145 134.045H141V138.045H145V134.045Z" fill="black"/>
<path d="M149 134.045H145V138.045H149V134.045Z" fill="black"/>
<path d="M15 138.045H11V141.045H15V138.045Z" fill="black"/>
<path d="M21 138.045H19V141.045H21V138.045Z" fill="black"/>
<path d="M25 138.045H21V141.045H25V138.045Z" fill="black"/>
<path d="M29 138.045H25V141.045H29V138.045Z" fill="black"/>
<path d="M37 138.045H33V141.045H37V138.045Z" fill="black"/>
<path d="M44 138.045H41V141.045H44V138.045Z" fill="black"/>
<path d="M48 138.045H44V141.045H48V138.045Z" fill="black"/>
<path d="M52 138.045H48V141.045H52V138.045Z" fill="black"/>
<path d="M56 138.045H52V141.045H56V138.045Z" fill="black"/>
<path d="M60 138.045H56V141.045H60V138.045Z" fill="black"/>
<path d="M70 138.045H66V141.045H70V138.045Z" fill="black"/>
<path d="M78 138.045H74V141.045H78V138.045Z" fill="black"/>
<path d="M93 138.045H89V141.045H93V138.045Z" fill="black"/>
<path d="M111 138.045H107V141.045H111V138.045Z" fill="black"/>
<path d="M115 138.045H111V141.045H115V138.045Z" fill="black"/>
<path d="M130 138.045H127V141.045H130V138.045Z" fill="black"/>
<path d="M145 138.045H141V141.045H145V138.045Z" fill="black"/>
<path d="M149 138.045H145V141.045H149V138.045Z" fill="black"/>
<path d="M15 141.045H11V145.045H15V141.045Z" fill="black"/>
<path d="M37 141.045H33V145.045H37V141.045Z" fill="black"/>
<path d="M44 141.045H41V145.045H44V141.045Z" fill="black"/>
<path d="M48 141.045H44V145.045H48V141.045Z" fill="black"/>
<path d="M56 141.045H52V145.045H56V141.045Z" fill="black"/>
<path d="M66 141.045H63V145.045H66V141.045Z" fill="black"/>
<path d="M70 141.045H66V145.045H70V141.045Z" fill="black"/>
<path d="M74 141.045H70V145.045H74V141.045Z" fill="black"/>
<path d="M85 141.045H82V145.045H85V141.045Z" fill="black"/>
<path d="M89 141.045H85V145.045H89V141.045Z" fill="black"/>
<path d="M93 141.045H89V145.045H93V141.045Z" fill="black"/>
<path d="M97 141.045H93V145.045H97V141.045Z" fill="black"/>
<path d="M100 141.045H97V145.045H100V141.045Z" fill="black"/>
<path d="M104 141.045H100V145.045H104V141.045Z" fill="black"/>
<path d="M119 141.045H115V145.045H119V141.045Z" fill="black"/>
<path d="M123 141.045H119V145.045H123V141.045Z" fill="black"/>
<path d="M134 141.045H130V145.045H134V141.045Z" fill="black"/>
<path d="M138 141.045H134V145.045H138V141.045Z" fill="black"/>
<path d="M149 141.045H145V145.045H149V141.045Z" fill="black"/>
<path d="M15 145.045H11V149.045H15V145.045Z" fill="black"/>
<path d="M19 145.045H15V149.045H19V145.045Z" fill="black"/>
<path d="M21 145.045H19V149.045H21V145.045Z" fill="black"/>
<path d="M25 145.045H21V149.045H25V145.045Z" fill="black"/>
<path d="M29 145.045H25V149.045H29V145.045Z" fill="black"/>
<path d="M33 145.045H29V149.045H33V145.045Z" fill="black"/>
<path d="M37 145.045H33V149.045H37V145.045Z" fill="black"/>
<path d="M44 145.045H41V149.045H44V145.045Z" fill="black"/>
<path d="M52 145.045H48V149.045H52V145.045Z" fill="black"/>
<path d="M56 145.045H52V149.045H56V145.045Z" fill="black"/>
<path d="M78 145.045H74V149.045H78V145.045Z" fill="black"/>
<path d="M85 145.045H82V149.045H85V145.045Z" fill="black"/>
<path d="M107 145.045H104V149.045H107V145.045Z" fill="black"/>
<path d="M111 145.045H107V149.045H111V145.045Z" fill="black"/>
<path d="M123 145.045H119V149.045H123V145.045Z" fill="black"/>
<path d="M130 145.045H127V149.045H130V145.045Z" fill="black"/>
<path d="M134 145.045H130V149.045H134V145.045Z" fill="black"/>
<path d="M138 145.045H134V149.045H138V145.045Z" fill="black"/>
<path d="M141 145.045H138V149.045H141V145.045Z" fill="black"/>
<path d="M145 145.045H141V149.045H145V145.045Z" fill="black"/>
<path d="M149 145.045H145V149.045H149V145.045Z" fill="black"/>
</svg>
