<svg width="14" height="16" viewBox="0 0 14 16" fill="none" xmlns="http://www.w3.org/2000/svg">
<path d="M6.89957 0.5C6.1189 0.500791 5.35599 0.733009 4.70727 1.1673C4.05855 1.60159 3.55315 2.21846 3.25495 2.93994C2.95674 3.66141 2.87913 4.45509 3.03192 5.22067C3.1847 5.98624 3.56103 6.68933 4.11333 7.24107C4.66563 7.79281 5.36909 8.16842 6.13482 8.32043C6.90055 8.47244 7.69416 8.39402 8.41533 8.09509C9.1365 7.79616 9.75286 7.29013 10.1865 6.64097C10.6201 5.99182 10.8516 5.22867 10.8516 4.448C10.8502 3.40064 10.4333 2.39661 9.69235 1.65639C8.95138 0.91617 7.94693 0.500264 6.89957 0.5Z" fill="#555555"/>
<path d="M11.8216 10.9991C11.2954 10.4603 10.6667 10.0324 9.97248 9.74042C9.27829 9.44846 8.53269 9.29839 7.7796 9.29907H6.0216C5.26852 9.29839 4.52291 9.44846 3.82872 9.74042C3.13454 10.0324 2.50582 10.4603 1.9796 10.9991C0.906938 12.0786 0.306029 13.5393 0.308602 15.0611C0.308602 15.1775 0.354854 15.2892 0.437182 15.3715C0.519511 15.4538 0.631171 15.5001 0.747601 15.5001H13.0476C13.164 15.5001 13.2757 15.4538 13.358 15.3715C13.4404 15.2892 13.4866 15.1775 13.4866 15.0611C13.4908 13.5401 12.8921 12.0795 11.8216 10.9991Z" fill="#555555"/>
</svg>
