<svg width="160" height="161" viewBox="0 0 160 161" fill="none" xmlns="http://www.w3.org/2000/svg">
<path d="M160 0.0449219H0V160.045H160V0.0449219Z" fill="white"/>
<path d="M14 9.04492H9V14.0449H14V9.04492Z" fill="black"/>
<path d="M18 9.04492H14V14.0449H18V9.04492Z" fill="black"/>
<path d="M22 9.04492H18V14.0449H22V9.04492Z" fill="black"/>
<path d="M26 9.04492H22V14.0449H26V9.04492Z" fill="black"/>
<path d="M31 9.04492H26V14.0449H31V9.04492Z" fill="black"/>
<path d="M36 9.04492H31V14.0449H36V9.04492Z" fill="black"/>
<path d="M40 9.04492H36V14.0449H40V9.04492Z" fill="black"/>
<path d="M56 9.04492H52V14.0449H56V9.04492Z" fill="black"/>
<path d="M65 9.04492H60V14.0449H65V9.04492Z" fill="black"/>
<path d="M68 9.04492H65V14.0449H68V9.04492Z" fill="black"/>
<path d="M76 9.04492H73V14.0449H76V9.04492Z" fill="black"/>
<path d="M87 9.04492H84V14.0449H87V9.04492Z" fill="black"/>
<path d="M92 9.04492H87V14.0449H92V9.04492Z" fill="black"/>
<path d="M95 9.04492H92V14.0449H95V9.04492Z" fill="black"/>
<path d="M100 9.04492H95V14.0449H100V9.04492Z" fill="black"/>
<path d="M104 9.04492H100V14.0449H104V9.04492Z" fill="black"/>
<path d="M108 9.04492H104V14.0449H108V9.04492Z" fill="black"/>
<path d="M112 9.04492H108V14.0449H112V9.04492Z" fill="black"/>
<path d="M124 9.04492H120V14.0449H124V9.04492Z" fill="black"/>
<path d="M129 9.04492H124V14.0449H129V9.04492Z" fill="black"/>
<path d="M134 9.04492H129V14.0449H134V9.04492Z" fill="black"/>
<path d="M138 9.04492H134V14.0449H138V9.04492Z" fill="black"/>
<path d="M142 9.04492H138V14.0449H142V9.04492Z" fill="black"/>
<path d="M146 9.04492H142V14.0449H146V9.04492Z" fill="black"/>
<path d="M151 9.04492H146V14.0449H151V9.04492Z" fill="black"/>
<path d="M14 14.0449H9V18.0449H14V14.0449Z" fill="black"/>
<path d="M40 14.0449H36V18.0449H40V14.0449Z" fill="black"/>
<path d="M48 14.0449H44V18.0449H48V14.0449Z" fill="black"/>
<path d="M56 14.0449H52V18.0449H56V14.0449Z" fill="black"/>
<path d="M68 14.0449H65V18.0449H68V14.0449Z" fill="black"/>
<path d="M73 14.0449H68V18.0449H73V14.0449Z" fill="black"/>
<path d="M76 14.0449H73V18.0449H76V14.0449Z" fill="black"/>
<path d="M84 14.0449H76V18.0449H84V14.0449Z" fill="black"/>
<path d="M87 14.0449H84V18.0449H87V14.0449Z" fill="black"/>
<path d="M104 14.0449H100V18.0449H104V14.0449Z" fill="black"/>
<path d="M124 14.0449H120V18.0449H124V14.0449Z" fill="black"/>
<path d="M151 14.0449H146V18.0449H151V14.0449Z" fill="black"/>
<path d="M14 18.0449H9V22.0449H14V18.0449Z" fill="black"/>
<path d="M22 18.0449H18V22.0449H22V18.0449Z" fill="black"/>
<path d="M26 18.0449H22V22.0449H26V18.0449Z" fill="black"/>
<path d="M31 18.0449H26V22.0449H31V18.0449Z" fill="black"/>
<path d="M40 18.0449H36V22.0449H40V18.0449Z" fill="black"/>
<path d="M65 18.0449H60V22.0449H65V18.0449Z" fill="black"/>
<path d="M68 18.0449H65V22.0449H68V18.0449Z" fill="black"/>
<path d="M76 18.0449H73V22.0449H76V18.0449Z" fill="black"/>
<path d="M84 18.0449H76V22.0449H84V18.0449Z" fill="black"/>
<path d="M95 18.0449H92V22.0449H95V18.0449Z" fill="black"/>
<path d="M104 18.0449H100V22.0449H104V18.0449Z" fill="black"/>
<path d="M116 18.0449H112V22.0449H116V18.0449Z" fill="black"/>
<path d="M124 18.0449H120V22.0449H124V18.0449Z" fill="black"/>
<path d="M134 18.0449H129V22.0449H134V18.0449Z" fill="black"/>
<path d="M138 18.0449H134V22.0449H138V18.0449Z" fill="black"/>
<path d="M142 18.0449H138V22.0449H142V18.0449Z" fill="black"/>
<path d="M151 18.0449H146V22.0449H151V18.0449Z" fill="black"/>
<path d="M14 22.0449H9V26.0449H14V22.0449Z" fill="black"/>
<path d="M22 22.0449H18V26.0449H22V22.0449Z" fill="black"/>
<path d="M26 22.0449H22V26.0449H26V22.0449Z" fill="black"/>
<path d="M31 22.0449H26V26.0449H31V22.0449Z" fill="black"/>
<path d="M40 22.0449H36V26.0449H40V22.0449Z" fill="black"/>
<path d="M48 22.0449H44V26.0449H48V22.0449Z" fill="black"/>
<path d="M52 22.0449H48V26.0449H52V22.0449Z" fill="black"/>
<path d="M56 22.0449H52V26.0449H56V22.0449Z" fill="black"/>
<path d="M65 22.0449H60V26.0449H65V22.0449Z" fill="black"/>
<path d="M73 22.0449H68V26.0449H73V22.0449Z" fill="black"/>
<path d="M76 22.0449H73V26.0449H76V22.0449Z" fill="black"/>
<path d="M84 22.0449H76V26.0449H84V22.0449Z" fill="black"/>
<path d="M87 22.0449H84V26.0449H87V22.0449Z" fill="black"/>
<path d="M100 22.0449H95V26.0449H100V22.0449Z" fill="black"/>
<path d="M108 22.0449H104V26.0449H108V22.0449Z" fill="black"/>
<path d="M116 22.0449H112V26.0449H116V22.0449Z" fill="black"/>
<path d="M124 22.0449H120V26.0449H124V22.0449Z" fill="black"/>
<path d="M134 22.0449H129V26.0449H134V22.0449Z" fill="black"/>
<path d="M138 22.0449H134V26.0449H138V22.0449Z" fill="black"/>
<path d="M142 22.0449H138V26.0449H142V22.0449Z" fill="black"/>
<path d="M151 22.0449H146V26.0449H151V22.0449Z" fill="black"/>
<path d="M14 26.0449H9V31.0449H14V26.0449Z" fill="black"/>
<path d="M22 26.0449H18V31.0449H22V26.0449Z" fill="black"/>
<path d="M26 26.0449H22V31.0449H26V26.0449Z" fill="black"/>
<path d="M31 26.0449H26V31.0449H31V26.0449Z" fill="black"/>
<path d="M40 26.0449H36V31.0449H40V26.0449Z" fill="black"/>
<path d="M52 26.0449H48V31.0449H52V26.0449Z" fill="black"/>
<path d="M92 26.0449H87V31.0449H92V26.0449Z" fill="black"/>
<path d="M95 26.0449H92V31.0449H95V26.0449Z" fill="black"/>
<path d="M100 26.0449H95V31.0449H100V26.0449Z" fill="black"/>
<path d="M104 26.0449H100V31.0449H104V26.0449Z" fill="black"/>
<path d="M108 26.0449H104V31.0449H108V26.0449Z" fill="black"/>
<path d="M112 26.0449H108V31.0449H112V26.0449Z" fill="black"/>
<path d="M124 26.0449H120V31.0449H124V26.0449Z" fill="black"/>
<path d="M134 26.0449H129V31.0449H134V26.0449Z" fill="black"/>
<path d="M138 26.0449H134V31.0449H138V26.0449Z" fill="black"/>
<path d="M142 26.0449H138V31.0449H142V26.0449Z" fill="black"/>
<path d="M151 26.0449H146V31.0449H151V26.0449Z" fill="black"/>
<path d="M14 31.0449H9V36.0449H14V31.0449Z" fill="black"/>
<path d="M40 31.0449H36V36.0449H40V31.0449Z" fill="black"/>
<path d="M48 31.0449H44V36.0449H48V31.0449Z" fill="black"/>
<path d="M52 31.0449H48V36.0449H52V31.0449Z" fill="black"/>
<path d="M60 31.0449H56V36.0449H60V31.0449Z" fill="black"/>
<path d="M65 31.0449H60V36.0449H65V31.0449Z" fill="black"/>
<path d="M76 31.0449H73V36.0449H76V31.0449Z" fill="black"/>
<path d="M84 31.0449H76V36.0449H84V31.0449Z" fill="black"/>
<path d="M92 31.0449H87V36.0449H92V31.0449Z" fill="black"/>
<path d="M104 31.0449H100V36.0449H104V31.0449Z" fill="black"/>
<path d="M124 31.0449H120V36.0449H124V31.0449Z" fill="black"/>
<path d="M151 31.0449H146V36.0449H151V31.0449Z" fill="black"/>
<path d="M14 36.0449H9V40.0449H14V36.0449Z" fill="black"/>
<path d="M18 36.0449H14V40.0449H18V36.0449Z" fill="black"/>
<path d="M22 36.0449H18V40.0449H22V36.0449Z" fill="black"/>
<path d="M26 36.0449H22V40.0449H26V36.0449Z" fill="black"/>
<path d="M31 36.0449H26V40.0449H31V36.0449Z" fill="black"/>
<path d="M36 36.0449H31V40.0449H36V36.0449Z" fill="black"/>
<path d="M40 36.0449H36V40.0449H40V36.0449Z" fill="black"/>
<path d="M48 36.0449H44V40.0449H48V36.0449Z" fill="black"/>
<path d="M56 36.0449H52V40.0449H56V36.0449Z" fill="black"/>
<path d="M65 36.0449H60V40.0449H65V36.0449Z" fill="black"/>
<path d="M73 36.0449H68V40.0449H73V36.0449Z" fill="black"/>
<path d="M84 36.0449H76V40.0449H84V36.0449Z" fill="black"/>
<path d="M92 36.0449H87V40.0449H92V36.0449Z" fill="black"/>
<path d="M100 36.0449H95V40.0449H100V36.0449Z" fill="black"/>
<path d="M108 36.0449H104V40.0449H108V36.0449Z" fill="black"/>
<path d="M116 36.0449H112V40.0449H116V36.0449Z" fill="black"/>
<path d="M124 36.0449H120V40.0449H124V36.0449Z" fill="black"/>
<path d="M129 36.0449H124V40.0449H129V36.0449Z" fill="black"/>
<path d="M134 36.0449H129V40.0449H134V36.0449Z" fill="black"/>
<path d="M138 36.0449H134V40.0449H138V36.0449Z" fill="black"/>
<path d="M142 36.0449H138V40.0449H142V36.0449Z" fill="black"/>
<path d="M146 36.0449H142V40.0449H146V36.0449Z" fill="black"/>
<path d="M151 36.0449H146V40.0449H151V36.0449Z" fill="black"/>
<path d="M52 40.0449H48V44.0449H52V40.0449Z" fill="black"/>
<path d="M56 40.0449H52V44.0449H56V40.0449Z" fill="black"/>
<path d="M60 40.0449H56V44.0449H60V40.0449Z" fill="black"/>
<path d="M73 40.0449H68V44.0449H73V40.0449Z" fill="black"/>
<path d="M95 40.0449H92V44.0449H95V40.0449Z" fill="black"/>
<path d="M104 40.0449H100V44.0449H104V40.0449Z" fill="black"/>
<path d="M112 40.0449H108V44.0449H112V40.0449Z" fill="black"/>
<path d="M14 44.0449H9V48.0449H14V44.0449Z" fill="black"/>
<path d="M18 44.0449H14V48.0449H18V44.0449Z" fill="black"/>
<path d="M22 44.0449H18V48.0449H22V44.0449Z" fill="black"/>
<path d="M26 44.0449H22V48.0449H26V44.0449Z" fill="black"/>
<path d="M31 44.0449H26V48.0449H31V44.0449Z" fill="black"/>
<path d="M40 44.0449H36V48.0449H40V44.0449Z" fill="black"/>
<path d="M44 44.0449H40V48.0449H44V44.0449Z" fill="black"/>
<path d="M48 44.0449H44V48.0449H48V44.0449Z" fill="black"/>
<path d="M52 44.0449H48V48.0449H52V44.0449Z" fill="black"/>
<path d="M60 44.0449H56V48.0449H60V44.0449Z" fill="black"/>
<path d="M76 44.0449H73V48.0449H76V44.0449Z" fill="black"/>
<path d="M84 44.0449H76V48.0449H84V44.0449Z" fill="black"/>
<path d="M87 44.0449H84V48.0449H87V44.0449Z" fill="black"/>
<path d="M112 44.0449H108V48.0449H112V44.0449Z" fill="black"/>
<path d="M116 44.0449H112V48.0449H116V44.0449Z" fill="black"/>
<path d="M120 44.0449H116V48.0449H120V44.0449Z" fill="black"/>
<path d="M129 44.0449H124V48.0449H129V44.0449Z" fill="black"/>
<path d="M138 44.0449H134V48.0449H138V44.0449Z" fill="black"/>
<path d="M146 44.0449H142V48.0449H146V44.0449Z" fill="black"/>
<path d="M14 48.0449H9V52.0449H14V48.0449Z" fill="black"/>
<path d="M22 48.0449H18V52.0449H22V48.0449Z" fill="black"/>
<path d="M26 48.0449H22V52.0449H26V48.0449Z" fill="black"/>
<path d="M36 48.0449H31V52.0449H36V48.0449Z" fill="black"/>
<path d="M48 48.0449H44V52.0449H48V48.0449Z" fill="black"/>
<path d="M56 48.0449H52V52.0449H56V48.0449Z" fill="black"/>
<path d="M65 48.0449H60V52.0449H65V48.0449Z" fill="black"/>
<path d="M68 48.0449H65V52.0449H68V48.0449Z" fill="black"/>
<path d="M73 48.0449H68V52.0449H73V48.0449Z" fill="black"/>
<path d="M92 48.0449H87V52.0449H92V48.0449Z" fill="black"/>
<path d="M95 48.0449H92V52.0449H95V48.0449Z" fill="black"/>
<path d="M100 48.0449H95V52.0449H100V48.0449Z" fill="black"/>
<path d="M112 48.0449H108V52.0449H112V48.0449Z" fill="black"/>
<path d="M116 48.0449H112V52.0449H116V48.0449Z" fill="black"/>
<path d="M120 48.0449H116V52.0449H120V48.0449Z" fill="black"/>
<path d="M124 48.0449H120V52.0449H124V48.0449Z" fill="black"/>
<path d="M142 48.0449H138V52.0449H142V48.0449Z" fill="black"/>
<path d="M146 48.0449H142V52.0449H146V48.0449Z" fill="black"/>
<path d="M151 48.0449H146V52.0449H151V48.0449Z" fill="black"/>
<path d="M14 52.0449H9V56.0449H14V52.0449Z" fill="black"/>
<path d="M18 52.0449H14V56.0449H18V52.0449Z" fill="black"/>
<path d="M22 52.0449H18V56.0449H22V52.0449Z" fill="black"/>
<path d="M26 52.0449H22V56.0449H26V52.0449Z" fill="black"/>
<path d="M31 52.0449H26V56.0449H31V52.0449Z" fill="black"/>
<path d="M40 52.0449H36V56.0449H40V52.0449Z" fill="black"/>
<path d="M56 52.0449H52V56.0449H56V52.0449Z" fill="black"/>
<path d="M68 52.0449H65V56.0449H68V52.0449Z" fill="black"/>
<path d="M73 52.0449H68V56.0449H73V52.0449Z" fill="black"/>
<path d="M76 52.0449H73V56.0449H76V52.0449Z" fill="black"/>
<path d="M100 52.0449H95V56.0449H100V52.0449Z" fill="black"/>
<path d="M108 52.0449H104V56.0449H108V52.0449Z" fill="black"/>
<path d="M116 52.0449H112V56.0449H116V52.0449Z" fill="black"/>
<path d="M129 52.0449H124V56.0449H129V52.0449Z" fill="black"/>
<path d="M138 52.0449H134V56.0449H138V52.0449Z" fill="black"/>
<path d="M146 52.0449H142V56.0449H146V52.0449Z" fill="black"/>
<path d="M14 56.0449H9V60.0449H14V56.0449Z" fill="black"/>
<path d="M18 56.0449H14V60.0449H18V56.0449Z" fill="black"/>
<path d="M36 56.0449H31V60.0449H36V56.0449Z" fill="black"/>
<path d="M65 56.0449H60V60.0449H65V56.0449Z" fill="black"/>
<path d="M68 56.0449H65V60.0449H68V56.0449Z" fill="black"/>
<path d="M76 56.0449H73V60.0449H76V56.0449Z" fill="black"/>
<path d="M92 56.0449H87V60.0449H92V56.0449Z" fill="black"/>
<path d="M104 56.0449H100V60.0449H104V56.0449Z" fill="black"/>
<path d="M108 56.0449H104V60.0449H108V56.0449Z" fill="black"/>
<path d="M112 56.0449H108V60.0449H112V56.0449Z" fill="black"/>
<path d="M129 56.0449H124V60.0449H129V56.0449Z" fill="black"/>
<path d="M142 56.0449H138V60.0449H142V56.0449Z" fill="black"/>
<path d="M31 60.0449H26V65.0449H31V60.0449Z" fill="black"/>
<path d="M40 60.0449H36V65.0449H40V60.0449Z" fill="black"/>
<path d="M44 60.0449H40V65.0449H44V60.0449Z" fill="black"/>
<path d="M52 60.0449H48V65.0449H52V60.0449Z" fill="black"/>
<path d="M56 60.0449H52V65.0449H56V60.0449Z" fill="black"/>
<path d="M65 60.0449H60V65.0449H65V60.0449Z" fill="black"/>
<path d="M73 60.0449H68V65.0449H73V60.0449Z" fill="black"/>
<path d="M84 60.0449H76V65.0449H84V60.0449Z" fill="black"/>
<path d="M87 60.0449H84V65.0449H87V60.0449Z" fill="black"/>
<path d="M92 60.0449H87V65.0449H92V60.0449Z" fill="black"/>
<path d="M108 60.0449H104V65.0449H108V60.0449Z" fill="black"/>
<path d="M112 60.0449H108V65.0449H112V60.0449Z" fill="black"/>
<path d="M116 60.0449H112V65.0449H116V60.0449Z" fill="black"/>
<path d="M120 60.0449H116V65.0449H120V60.0449Z" fill="black"/>
<path d="M134 60.0449H129V65.0449H134V60.0449Z" fill="black"/>
<path d="M138 60.0449H134V65.0449H138V60.0449Z" fill="black"/>
<path d="M14 65.0449H9V68.0449H14V65.0449Z" fill="black"/>
<path d="M18 65.0449H14V68.0449H18V65.0449Z" fill="black"/>
<path d="M31 65.0449H26V68.0449H31V65.0449Z" fill="black"/>
<path d="M52 65.0449H48V68.0449H52V65.0449Z" fill="black"/>
<path d="M87 65.0449H84V68.0449H87V65.0449Z" fill="black"/>
<path d="M92 65.0449H87V68.0449H92V65.0449Z" fill="black"/>
<path d="M95 65.0449H92V68.0449H95V65.0449Z" fill="black"/>
<path d="M100 65.0449H95V68.0449H100V65.0449Z" fill="black"/>
<path d="M112 65.0449H108V68.0449H112V65.0449Z" fill="black"/>
<path d="M124 65.0449H120V68.0449H124V65.0449Z" fill="black"/>
<path d="M146 65.0449H142V68.0449H146V65.0449Z" fill="black"/>
<path d="M151 65.0449H146V68.0449H151V65.0449Z" fill="black"/>
<path d="M22 68.0449H18V73.0449H22V68.0449Z" fill="black"/>
<path d="M31 68.0449H26V73.0449H31V68.0449Z" fill="black"/>
<path d="M36 68.0449H31V73.0449H36V68.0449Z" fill="black"/>
<path d="M40 68.0449H36V73.0449H40V68.0449Z" fill="black"/>
<path d="M44 68.0449H40V73.0449H44V68.0449Z" fill="black"/>
<path d="M48 68.0449H44V73.0449H48V68.0449Z" fill="black"/>
<path d="M60 68.0449H56V73.0449H60V68.0449Z" fill="black"/>
<path d="M65 68.0449H60V73.0449H65V68.0449Z" fill="black"/>
<path d="M76 68.0449H73V73.0449H76V68.0449Z" fill="black"/>
<path d="M84 68.0449H76V73.0449H84V68.0449Z" fill="black"/>
<path d="M87 68.0449H84V73.0449H87V68.0449Z" fill="black"/>
<path d="M100 68.0449H95V73.0449H100V68.0449Z" fill="black"/>
<path d="M104 68.0449H100V73.0449H104V68.0449Z" fill="black"/>
<path d="M120 68.0449H116V73.0449H120V68.0449Z" fill="black"/>
<path d="M124 68.0449H120V73.0449H124V68.0449Z" fill="black"/>
<path d="M146 68.0449H142V73.0449H146V68.0449Z" fill="black"/>
<path d="M14 73.0449H9V76.0449H14V73.0449Z" fill="black"/>
<path d="M22 73.0449H18V76.0449H22V73.0449Z" fill="black"/>
<path d="M26 73.0449H22V76.0449H26V73.0449Z" fill="black"/>
<path d="M31 73.0449H26V76.0449H31V73.0449Z" fill="black"/>
<path d="M36 73.0449H31V76.0449H36V73.0449Z" fill="black"/>
<path d="M44 73.0449H40V76.0449H44V73.0449Z" fill="black"/>
<path d="M48 73.0449H44V76.0449H48V73.0449Z" fill="black"/>
<path d="M52 73.0449H48V76.0449H52V73.0449Z" fill="black"/>
<path d="M60 73.0449H56V76.0449H60V73.0449Z" fill="black"/>
<path d="M73 73.0449H68V76.0449H73V73.0449Z" fill="black"/>
<path d="M76 73.0449H73V76.0449H76V73.0449Z" fill="black"/>
<path d="M100 73.0449H95V76.0449H100V73.0449Z" fill="black"/>
<path d="M104 73.0449H100V76.0449H104V73.0449Z" fill="black"/>
<path d="M108 73.0449H104V76.0449H108V73.0449Z" fill="black"/>
<path d="M116 73.0449H112V76.0449H116V73.0449Z" fill="black"/>
<path d="M129 73.0449H124V76.0449H129V73.0449Z" fill="black"/>
<path d="M142 73.0449H138V76.0449H142V73.0449Z" fill="black"/>
<path d="M18 76.0449H14V84.0449H18V76.0449Z" fill="black"/>
<path d="M22 76.0449H18V84.0449H22V76.0449Z" fill="black"/>
<path d="M31 76.0449H26V84.0449H31V76.0449Z" fill="black"/>
<path d="M40 76.0449H36V84.0449H40V76.0449Z" fill="black"/>
<path d="M44 76.0449H40V84.0449H44V76.0449Z" fill="black"/>
<path d="M48 76.0449H44V84.0449H48V76.0449Z" fill="black"/>
<path d="M52 76.0449H48V84.0449H52V76.0449Z" fill="black"/>
<path d="M60 76.0449H56V84.0449H60V76.0449Z" fill="black"/>
<path d="M84 76.0449H76V84.0449H84V76.0449Z" fill="black"/>
<path d="M87 76.0449H84V84.0449H87V76.0449Z" fill="black"/>
<path d="M95 76.0449H92V84.0449H95V76.0449Z" fill="black"/>
<path d="M108 76.0449H104V84.0449H108V76.0449Z" fill="black"/>
<path d="M112 76.0449H108V84.0449H112V76.0449Z" fill="black"/>
<path d="M116 76.0449H112V84.0449H116V76.0449Z" fill="black"/>
<path d="M120 76.0449H116V84.0449H120V76.0449Z" fill="black"/>
<path d="M129 76.0449H124V84.0449H129V76.0449Z" fill="black"/>
<path d="M134 76.0449H129V84.0449H134V76.0449Z" fill="black"/>
<path d="M146 76.0449H142V84.0449H146V76.0449Z" fill="black"/>
<path d="M14 84.0449H9V87.0449H14V84.0449Z" fill="black"/>
<path d="M22 84.0449H18V87.0449H22V84.0449Z" fill="black"/>
<path d="M26 84.0449H22V87.0449H26V84.0449Z" fill="black"/>
<path d="M65 84.0449H60V87.0449H65V84.0449Z" fill="black"/>
<path d="M68 84.0449H65V87.0449H68V84.0449Z" fill="black"/>
<path d="M73 84.0449H68V87.0449H73V84.0449Z" fill="black"/>
<path d="M87 84.0449H84V87.0449H87V84.0449Z" fill="black"/>
<path d="M92 84.0449H87V87.0449H92V84.0449Z" fill="black"/>
<path d="M95 84.0449H92V87.0449H95V84.0449Z" fill="black"/>
<path d="M104 84.0449H100V87.0449H104V84.0449Z" fill="black"/>
<path d="M112 84.0449H108V87.0449H112V84.0449Z" fill="black"/>
<path d="M124 84.0449H120V87.0449H124V84.0449Z" fill="black"/>
<path d="M138 84.0449H134V87.0449H138V84.0449Z" fill="black"/>
<path d="M146 84.0449H142V87.0449H146V84.0449Z" fill="black"/>
<path d="M151 84.0449H146V87.0449H151V84.0449Z" fill="black"/>
<path d="M22 87.0449H18V92.0449H22V87.0449Z" fill="black"/>
<path d="M26 87.0449H22V92.0449H26V87.0449Z" fill="black"/>
<path d="M31 87.0449H26V92.0449H31V87.0449Z" fill="black"/>
<path d="M40 87.0449H36V92.0449H40V87.0449Z" fill="black"/>
<path d="M44 87.0449H40V92.0449H44V87.0449Z" fill="black"/>
<path d="M68 87.0449H65V92.0449H68V87.0449Z" fill="black"/>
<path d="M73 87.0449H68V92.0449H73V87.0449Z" fill="black"/>
<path d="M76 87.0449H73V92.0449H76V87.0449Z" fill="black"/>
<path d="M92 87.0449H87V92.0449H92V87.0449Z" fill="black"/>
<path d="M100 87.0449H95V92.0449H100V87.0449Z" fill="black"/>
<path d="M104 87.0449H100V92.0449H104V87.0449Z" fill="black"/>
<path d="M108 87.0449H104V92.0449H108V87.0449Z" fill="black"/>
<path d="M120 87.0449H116V92.0449H120V87.0449Z" fill="black"/>
<path d="M129 87.0449H124V92.0449H129V87.0449Z" fill="black"/>
<path d="M134 87.0449H129V92.0449H134V87.0449Z" fill="black"/>
<path d="M138 87.0449H134V92.0449H138V87.0449Z" fill="black"/>
<path d="M146 87.0449H142V92.0449H146V87.0449Z" fill="black"/>
<path d="M14 92.0449H9V95.0449H14V92.0449Z" fill="black"/>
<path d="M18 92.0449H14V95.0449H18V92.0449Z" fill="black"/>
<path d="M26 92.0449H22V95.0449H26V92.0449Z" fill="black"/>
<path d="M44 92.0449H40V95.0449H44V92.0449Z" fill="black"/>
<path d="M52 92.0449H48V95.0449H52V92.0449Z" fill="black"/>
<path d="M56 92.0449H52V95.0449H56V92.0449Z" fill="black"/>
<path d="M65 92.0449H60V95.0449H65V92.0449Z" fill="black"/>
<path d="M68 92.0449H65V95.0449H68V92.0449Z" fill="black"/>
<path d="M76 92.0449H73V95.0449H76V92.0449Z" fill="black"/>
<path d="M104 92.0449H100V95.0449H104V92.0449Z" fill="black"/>
<path d="M112 92.0449H108V95.0449H112V92.0449Z" fill="black"/>
<path d="M120 92.0449H116V95.0449H120V92.0449Z" fill="black"/>
<path d="M134 92.0449H129V95.0449H134V92.0449Z" fill="black"/>
<path d="M142 92.0449H138V95.0449H142V92.0449Z" fill="black"/>
<path d="M31 95.0449H26V100.045H31V95.0449Z" fill="black"/>
<path d="M40 95.0449H36V100.045H40V95.0449Z" fill="black"/>
<path d="M44 95.0449H40V100.045H44V95.0449Z" fill="black"/>
<path d="M52 95.0449H48V100.045H52V95.0449Z" fill="black"/>
<path d="M56 95.0449H52V100.045H56V95.0449Z" fill="black"/>
<path d="M65 95.0449H60V100.045H65V95.0449Z" fill="black"/>
<path d="M73 95.0449H68V100.045H73V95.0449Z" fill="black"/>
<path d="M76 95.0449H73V100.045H76V95.0449Z" fill="black"/>
<path d="M84 95.0449H76V100.045H84V95.0449Z" fill="black"/>
<path d="M87 95.0449H84V100.045H87V95.0449Z" fill="black"/>
<path d="M95 95.0449H92V100.045H95V95.0449Z" fill="black"/>
<path d="M100 95.0449H95V100.045H100V95.0449Z" fill="black"/>
<path d="M108 95.0449H104V100.045H108V95.0449Z" fill="black"/>
<path d="M112 95.0449H108V100.045H112V95.0449Z" fill="black"/>
<path d="M116 95.0449H112V100.045H116V95.0449Z" fill="black"/>
<path d="M129 95.0449H124V100.045H129V95.0449Z" fill="black"/>
<path d="M134 95.0449H129V100.045H134V95.0449Z" fill="black"/>
<path d="M146 95.0449H142V100.045H146V95.0449Z" fill="black"/>
<path d="M14 100.045H9V104.045H14V100.045Z" fill="black"/>
<path d="M22 100.045H18V104.045H22V100.045Z" fill="black"/>
<path d="M31 100.045H26V104.045H31V100.045Z" fill="black"/>
<path d="M44 100.045H40V104.045H44V100.045Z" fill="black"/>
<path d="M48 100.045H44V104.045H48V100.045Z" fill="black"/>
<path d="M92 100.045H87V104.045H92V100.045Z" fill="black"/>
<path d="M95 100.045H92V104.045H95V100.045Z" fill="black"/>
<path d="M100 100.045H95V104.045H100V100.045Z" fill="black"/>
<path d="M104 100.045H100V104.045H104V100.045Z" fill="black"/>
<path d="M108 100.045H104V104.045H108V100.045Z" fill="black"/>
<path d="M112 100.045H108V104.045H112V100.045Z" fill="black"/>
<path d="M116 100.045H112V104.045H116V100.045Z" fill="black"/>
<path d="M124 100.045H120V104.045H124V100.045Z" fill="black"/>
<path d="M129 100.045H124V104.045H129V100.045Z" fill="black"/>
<path d="M138 100.045H134V104.045H138V100.045Z" fill="black"/>
<path d="M146 100.045H142V104.045H146V100.045Z" fill="black"/>
<path d="M151 100.045H146V104.045H151V100.045Z" fill="black"/>
<path d="M14 104.045H9V108.045H14V104.045Z" fill="black"/>
<path d="M22 104.045H18V108.045H22V104.045Z" fill="black"/>
<path d="M36 104.045H31V108.045H36V104.045Z" fill="black"/>
<path d="M40 104.045H36V108.045H40V104.045Z" fill="black"/>
<path d="M44 104.045H40V108.045H44V104.045Z" fill="black"/>
<path d="M52 104.045H48V108.045H52V104.045Z" fill="black"/>
<path d="M56 104.045H52V108.045H56V104.045Z" fill="black"/>
<path d="M60 104.045H56V108.045H60V104.045Z" fill="black"/>
<path d="M65 104.045H60V108.045H65V104.045Z" fill="black"/>
<path d="M76 104.045H73V108.045H76V104.045Z" fill="black"/>
<path d="M104 104.045H100V108.045H104V104.045Z" fill="black"/>
<path d="M120 104.045H116V108.045H120V104.045Z" fill="black"/>
<path d="M124 104.045H120V108.045H124V104.045Z" fill="black"/>
<path d="M134 104.045H129V108.045H134V104.045Z" fill="black"/>
<path d="M138 104.045H134V108.045H138V104.045Z" fill="black"/>
<path d="M146 104.045H142V108.045H146V104.045Z" fill="black"/>
<path d="M14 108.045H9V112.045H14V108.045Z" fill="black"/>
<path d="M22 108.045H18V112.045H22V108.045Z" fill="black"/>
<path d="M26 108.045H22V112.045H26V108.045Z" fill="black"/>
<path d="M48 108.045H44V112.045H48V108.045Z" fill="black"/>
<path d="M56 108.045H52V112.045H56V108.045Z" fill="black"/>
<path d="M60 108.045H56V112.045H60V108.045Z" fill="black"/>
<path d="M73 108.045H68V112.045H73V108.045Z" fill="black"/>
<path d="M84 108.045H76V112.045H84V108.045Z" fill="black"/>
<path d="M92 108.045H87V112.045H92V108.045Z" fill="black"/>
<path d="M100 108.045H95V112.045H100V108.045Z" fill="black"/>
<path d="M104 108.045H100V112.045H104V108.045Z" fill="black"/>
<path d="M124 108.045H120V112.045H124V108.045Z" fill="black"/>
<path d="M129 108.045H124V112.045H129V108.045Z" fill="black"/>
<path d="M138 108.045H134V112.045H138V108.045Z" fill="black"/>
<path d="M142 108.045H138V112.045H142V108.045Z" fill="black"/>
<path d="M14 112.045H9V116.045H14V112.045Z" fill="black"/>
<path d="M31 112.045H26V116.045H31V112.045Z" fill="black"/>
<path d="M36 112.045H31V116.045H36V112.045Z" fill="black"/>
<path d="M40 112.045H36V116.045H40V112.045Z" fill="black"/>
<path d="M48 112.045H44V116.045H48V112.045Z" fill="black"/>
<path d="M52 112.045H48V116.045H52V112.045Z" fill="black"/>
<path d="M56 112.045H52V116.045H56V112.045Z" fill="black"/>
<path d="M60 112.045H56V116.045H60V112.045Z" fill="black"/>
<path d="M76 112.045H73V116.045H76V112.045Z" fill="black"/>
<path d="M84 112.045H76V116.045H84V112.045Z" fill="black"/>
<path d="M87 112.045H84V116.045H87V112.045Z" fill="black"/>
<path d="M92 112.045H87V116.045H92V112.045Z" fill="black"/>
<path d="M112 112.045H108V116.045H112V112.045Z" fill="black"/>
<path d="M116 112.045H112V116.045H116V112.045Z" fill="black"/>
<path d="M120 112.045H116V116.045H120V112.045Z" fill="black"/>
<path d="M124 112.045H120V116.045H124V112.045Z" fill="black"/>
<path d="M129 112.045H124V116.045H129V112.045Z" fill="black"/>
<path d="M134 112.045H129V116.045H134V112.045Z" fill="black"/>
<path d="M151 112.045H146V116.045H151V112.045Z" fill="black"/>
<path d="M48 116.045H44V120.045H48V116.045Z" fill="black"/>
<path d="M52 116.045H48V120.045H52V116.045Z" fill="black"/>
<path d="M56 116.045H52V120.045H56V116.045Z" fill="black"/>
<path d="M65 116.045H60V120.045H65V116.045Z" fill="black"/>
<path d="M68 116.045H65V120.045H68V116.045Z" fill="black"/>
<path d="M73 116.045H68V120.045H73V116.045Z" fill="black"/>
<path d="M95 116.045H92V120.045H95V116.045Z" fill="black"/>
<path d="M100 116.045H95V120.045H100V116.045Z" fill="black"/>
<path d="M116 116.045H112V120.045H116V116.045Z" fill="black"/>
<path d="M134 116.045H129V120.045H134V116.045Z" fill="black"/>
<path d="M142 116.045H138V120.045H142V116.045Z" fill="black"/>
<path d="M151 116.045H146V120.045H151V116.045Z" fill="black"/>
<path d="M14 120.045H9V124.045H14V120.045Z" fill="black"/>
<path d="M18 120.045H14V124.045H18V120.045Z" fill="black"/>
<path d="M22 120.045H18V124.045H22V120.045Z" fill="black"/>
<path d="M26 120.045H22V124.045H26V120.045Z" fill="black"/>
<path d="M31 120.045H26V124.045H31V120.045Z" fill="black"/>
<path d="M36 120.045H31V124.045H36V120.045Z" fill="black"/>
<path d="M40 120.045H36V124.045H40V120.045Z" fill="black"/>
<path d="M48 120.045H44V124.045H48V120.045Z" fill="black"/>
<path d="M52 120.045H48V124.045H52V120.045Z" fill="black"/>
<path d="M68 120.045H65V124.045H68V120.045Z" fill="black"/>
<path d="M73 120.045H68V124.045H73V120.045Z" fill="black"/>
<path d="M76 120.045H73V124.045H76V120.045Z" fill="black"/>
<path d="M92 120.045H87V124.045H92V120.045Z" fill="black"/>
<path d="M100 120.045H95V124.045H100V120.045Z" fill="black"/>
<path d="M104 120.045H100V124.045H104V120.045Z" fill="black"/>
<path d="M108 120.045H104V124.045H108V120.045Z" fill="black"/>
<path d="M112 120.045H108V124.045H112V120.045Z" fill="black"/>
<path d="M116 120.045H112V124.045H116V120.045Z" fill="black"/>
<path d="M124 120.045H120V124.045H124V120.045Z" fill="black"/>
<path d="M134 120.045H129V124.045H134V120.045Z" fill="black"/>
<path d="M138 120.045H134V124.045H138V120.045Z" fill="black"/>
<path d="M142 120.045H138V124.045H142V120.045Z" fill="black"/>
<path d="M146 120.045H142V124.045H146V120.045Z" fill="black"/>
<path d="M14 124.045H9V129.045H14V124.045Z" fill="black"/>
<path d="M40 124.045H36V129.045H40V124.045Z" fill="black"/>
<path d="M56 124.045H52V129.045H56V124.045Z" fill="black"/>
<path d="M65 124.045H60V129.045H65V124.045Z" fill="black"/>
<path d="M68 124.045H65V129.045H68V124.045Z" fill="black"/>
<path d="M84 124.045H76V129.045H84V124.045Z" fill="black"/>
<path d="M100 124.045H95V129.045H100V124.045Z" fill="black"/>
<path d="M104 124.045H100V129.045H104V124.045Z" fill="black"/>
<path d="M108 124.045H104V129.045H108V124.045Z" fill="black"/>
<path d="M112 124.045H108V129.045H112V124.045Z" fill="black"/>
<path d="M116 124.045H112V129.045H116V124.045Z" fill="black"/>
<path d="M134 124.045H129V129.045H134V124.045Z" fill="black"/>
<path d="M138 124.045H134V129.045H138V124.045Z" fill="black"/>
<path d="M142 124.045H138V129.045H142V124.045Z" fill="black"/>
<path d="M146 124.045H142V129.045H146V124.045Z" fill="black"/>
<path d="M151 124.045H146V129.045H151V124.045Z" fill="black"/>
<path d="M14 129.045H9V134.045H14V129.045Z" fill="black"/>
<path d="M22 129.045H18V134.045H22V129.045Z" fill="black"/>
<path d="M26 129.045H22V134.045H26V129.045Z" fill="black"/>
<path d="M31 129.045H26V134.045H31V129.045Z" fill="black"/>
<path d="M40 129.045H36V134.045H40V129.045Z" fill="black"/>
<path d="M48 129.045H44V134.045H48V129.045Z" fill="black"/>
<path d="M65 129.045H60V134.045H65V129.045Z" fill="black"/>
<path d="M73 129.045H68V134.045H73V129.045Z" fill="black"/>
<path d="M76 129.045H73V134.045H76V129.045Z" fill="black"/>
<path d="M84 129.045H76V134.045H84V129.045Z" fill="black"/>
<path d="M87 129.045H84V134.045H87V129.045Z" fill="black"/>
<path d="M92 129.045H87V134.045H92V129.045Z" fill="black"/>
<path d="M100 129.045H95V134.045H100V129.045Z" fill="black"/>
<path d="M108 129.045H104V134.045H108V129.045Z" fill="black"/>
<path d="M116 129.045H112V134.045H116V129.045Z" fill="black"/>
<path d="M120 129.045H116V134.045H120V129.045Z" fill="black"/>
<path d="M124 129.045H120V134.045H124V129.045Z" fill="black"/>
<path d="M129 129.045H124V134.045H129V129.045Z" fill="black"/>
<path d="M134 129.045H129V134.045H134V129.045Z" fill="black"/>
<path d="M138 129.045H134V134.045H138V129.045Z" fill="black"/>
<path d="M151 129.045H146V134.045H151V129.045Z" fill="black"/>
<path d="M14 134.045H9V138.045H14V134.045Z" fill="black"/>
<path d="M22 134.045H18V138.045H22V134.045Z" fill="black"/>
<path d="M26 134.045H22V138.045H26V134.045Z" fill="black"/>
<path d="M31 134.045H26V138.045H31V134.045Z" fill="black"/>
<path d="M40 134.045H36V138.045H40V134.045Z" fill="black"/>
<path d="M48 134.045H44V138.045H48V134.045Z" fill="black"/>
<path d="M52 134.045H48V138.045H52V134.045Z" fill="black"/>
<path d="M56 134.045H52V138.045H56V134.045Z" fill="black"/>
<path d="M95 134.045H92V138.045H95V134.045Z" fill="black"/>
<path d="M100 134.045H95V138.045H100V134.045Z" fill="black"/>
<path d="M104 134.045H100V138.045H104V134.045Z" fill="black"/>
<path d="M108 134.045H104V138.045H108V134.045Z" fill="black"/>
<path d="M112 134.045H108V138.045H112V134.045Z" fill="black"/>
<path d="M120 134.045H116V138.045H120V134.045Z" fill="black"/>
<path d="M134 134.045H129V138.045H134V134.045Z" fill="black"/>
<path d="M142 134.045H138V138.045H142V134.045Z" fill="black"/>
<path d="M146 134.045H142V138.045H146V134.045Z" fill="black"/>
<path d="M151 134.045H146V138.045H151V134.045Z" fill="black"/>
<path d="M14 138.045H9V142.045H14V138.045Z" fill="black"/>
<path d="M22 138.045H18V142.045H22V138.045Z" fill="black"/>
<path d="M26 138.045H22V142.045H26V138.045Z" fill="black"/>
<path d="M31 138.045H26V142.045H31V138.045Z" fill="black"/>
<path d="M40 138.045H36V142.045H40V138.045Z" fill="black"/>
<path d="M48 138.045H44V142.045H48V138.045Z" fill="black"/>
<path d="M52 138.045H48V142.045H52V138.045Z" fill="black"/>
<path d="M56 138.045H52V142.045H56V138.045Z" fill="black"/>
<path d="M60 138.045H56V142.045H60V138.045Z" fill="black"/>
<path d="M65 138.045H60V142.045H65V138.045Z" fill="black"/>
<path d="M76 138.045H73V142.045H76V138.045Z" fill="black"/>
<path d="M112 138.045H108V142.045H112V138.045Z" fill="black"/>
<path d="M124 138.045H120V142.045H124V138.045Z" fill="black"/>
<path d="M142 138.045H138V142.045H142V138.045Z" fill="black"/>
<path d="M14 142.045H9V146.045H14V142.045Z" fill="black"/>
<path d="M40 142.045H36V146.045H40V142.045Z" fill="black"/>
<path d="M48 142.045H44V146.045H48V142.045Z" fill="black"/>
<path d="M52 142.045H48V146.045H52V142.045Z" fill="black"/>
<path d="M60 142.045H56V146.045H60V142.045Z" fill="black"/>
<path d="M73 142.045H68V146.045H73V142.045Z" fill="black"/>
<path d="M84 142.045H76V146.045H84V142.045Z" fill="black"/>
<path d="M92 142.045H87V146.045H92V142.045Z" fill="black"/>
<path d="M100 142.045H95V146.045H100V142.045Z" fill="black"/>
<path d="M104 142.045H100V146.045H104V142.045Z" fill="black"/>
<path d="M108 142.045H104V146.045H108V142.045Z" fill="black"/>
<path d="M129 142.045H124V146.045H129V142.045Z" fill="black"/>
<path d="M138 142.045H134V146.045H138V142.045Z" fill="black"/>
<path d="M142 142.045H138V146.045H142V142.045Z" fill="black"/>
<path d="M14 146.045H9V151.045H14V146.045Z" fill="black"/>
<path d="M18 146.045H14V151.045H18V146.045Z" fill="black"/>
<path d="M22 146.045H18V151.045H22V146.045Z" fill="black"/>
<path d="M26 146.045H22V151.045H26V146.045Z" fill="black"/>
<path d="M31 146.045H26V151.045H31V146.045Z" fill="black"/>
<path d="M36 146.045H31V151.045H36V146.045Z" fill="black"/>
<path d="M40 146.045H36V151.045H40V146.045Z" fill="black"/>
<path d="M48 146.045H44V151.045H48V146.045Z" fill="black"/>
<path d="M52 146.045H48V151.045H52V146.045Z" fill="black"/>
<path d="M60 146.045H56V151.045H60V146.045Z" fill="black"/>
<path d="M76 146.045H73V151.045H76V146.045Z" fill="black"/>
<path d="M84 146.045H76V151.045H84V146.045Z" fill="black"/>
<path d="M87 146.045H84V151.045H87V146.045Z" fill="black"/>
<path d="M92 146.045H87V151.045H92V146.045Z" fill="black"/>
<path d="M100 146.045H95V151.045H100V146.045Z" fill="black"/>
<path d="M108 146.045H104V151.045H108V146.045Z" fill="black"/>
<path d="M112 146.045H108V151.045H112V146.045Z" fill="black"/>
<path d="M116 146.045H112V151.045H116V146.045Z" fill="black"/>
<path d="M120 146.045H116V151.045H120V146.045Z" fill="black"/>
<path d="M124 146.045H120V151.045H124V146.045Z" fill="black"/>
<path d="M129 146.045H124V151.045H129V146.045Z" fill="black"/>
<path d="M138 146.045H134V151.045H138V146.045Z" fill="black"/>
<path d="M146 146.045H142V151.045H146V146.045Z" fill="black"/>
</svg>
