<svg width="16" height="16" viewBox="0 0 16 16" fill="none" xmlns="http://www.w3.org/2000/svg">
<path d="M15.3086 5.92294V0.937944L13.3286 2.91794L13.1086 2.69194C11.8808 1.4657 10.2658 0.703134 8.53884 0.534182C6.81183 0.365229 5.07968 0.800346 3.63753 1.76539C2.19539 2.73043 1.1325 4.16569 0.629979 5.82658C0.127458 7.48747 0.216403 9.27122 0.881658 10.8739C1.54691 12.4765 2.74731 13.7989 4.27831 14.6157C5.8093 15.4325 7.57615 15.6932 9.27777 15.3532C10.9794 15.0133 12.5105 14.0939 13.6102 12.7516C14.7099 11.4093 15.3101 9.72719 15.3086 7.99194H13.8516C13.8528 9.39094 13.3689 10.7471 12.4822 11.8292C11.5955 12.9113 10.361 13.6525 8.9891 13.9263C7.61717 14.2002 6.19273 13.9898 4.95855 13.331C3.72438 12.6722 2.75686 11.6058 2.22089 10.3136C1.68492 9.02131 1.61368 7.58318 2.01931 6.24428C2.42494 4.90538 3.28233 3.74859 4.44536 2.97106C5.60838 2.19353 7.00506 1.84339 8.39733 1.98031C9.78961 2.11723 11.0913 2.73275 12.0806 3.72194L12.3026 3.94394L10.3226 5.92394L15.3086 5.92294Z" fill="#555555"/>
<path d="M7.80548 7.99689V5.33789H6.35449V9.4489H10.4655V7.99789L7.80548 7.99689Z" fill="#555555"/>
</svg>
